<svg xmlns="http://www.w3.org/2000/svg"
viewBox = "0 0 561 445"
width="561"
height="445">
<g fill="None" fill-opacity="0.0" stroke="#000000" stroke-opacity="0.00" stroke-width="0.3"><path d="
M 0.00 445.00 
L 561.00 445.00
L 561.00 0.00
L 0.00 0.00
L 0.00 445.00
M 205.00 189.00 
C 239.05 177.89 274.71 176.20 300.75 145.75 C 326.79 115.30 286.02 77.04 255.00 71.00
C 292.98 69.87 340.03 113.71 318.23 153.23 C 296.43 192.75 244.78 200.74 205.00 189.00
M 214.00 220.00 
C 243.84 216.81 277.03 204.75 303.25 192.25 C 329.47 179.74 357.08 152.98 346.07 122.93 C 335.07 92.88 305.11 83.46 280.00 71.00
C 329.25 70.73 387.07 127.31 358.23 177.23 C 329.39 227.15 263.61 235.91 214.00 220.00
M 384.00 224.00 
C 404.21 293.15 356.10 363.39 286.00 373.00 C 215.90 382.61 150.51 323.32 153.00 253.00 C 155.49 182.68 222.45 127.08 291.00 142.00
C 280.29 154.32 264.64 155.29 249.99 156.99 C 235.34 158.69 223.55 166.77 212.75 176.75 C 201.96 186.73 196.61 199.50 192.67 213.67 C 188.74 227.84 191.96 248.57 198.77 261.23 C 205.59 273.89 212.16 283.42 224.75 291.25 C 237.33 299.09 254.87 304.09 270.00 303.00 C 285.13 301.91 299.12 295.71 310.75 286.75 C 322.38 277.79 329.69 266.40 334.00 253.00
C 300.43 262.86 260.69 264.56 228.00 252.00
C 263.88 248.40 305.25 233.88 336.70 218.69 C 368.14 203.51 401.57 170.89 389.02 134.98 C 376.48 99.06 339.38 85.51 309.00 72.00
C 343.72 74.80 377.22 92.13 398.77 122.23 C 420.32 152.33 414.80 200.52 384.00 224.00 Z"/>
</g>
<g fill="None" fill-opacity="0.0" stroke="#766858" stroke-opacity="0.91" stroke-width="0.3"><path d="
M 205.00 189.00 
C 244.78 200.74 296.43 192.75 318.23 153.23 C 340.03 113.71 292.98 69.87 255.00 71.00
C 286.02 77.04 326.79 115.30 300.75 145.75 C 274.71 176.20 239.05 177.89 205.00 189.00 Z"/>
</g>
<g fill="None" fill-opacity="0.0" stroke="#766858" stroke-opacity="0.93" stroke-width="0.3"><path d="
M 214.00 220.00 
C 263.61 235.91 329.39 227.15 358.23 177.23 C 387.07 127.31 329.25 70.73 280.00 71.00
C 305.11 83.46 335.07 92.88 346.07 122.93 C 357.08 152.98 329.47 179.74 303.25 192.25 C 277.03 204.75 243.84 216.81 214.00 220.00 Z"/>
</g>
<g fill="None" fill-opacity="0.0" stroke="#766858" stroke-opacity="0.98" stroke-width="0.3"><path d="
M 384.00 224.00 
C 414.80 200.52 420.32 152.33 398.77 122.23 C 377.22 92.13 343.72 74.80 309.00 72.00
C 339.38 85.51 376.48 99.06 389.02 134.98 C 401.57 170.89 368.14 203.51 336.70 218.69 C 305.25 233.88 263.88 248.40 228.00 252.00
C 260.69 264.56 300.43 262.86 334.00 253.00
C 329.69 266.40 322.38 277.79 310.75 286.75 C 299.12 295.71 285.13 301.91 270.00 303.00 C 254.87 304.09 237.33 299.09 224.75 291.25 C 212.16 283.42 205.59 273.89 198.77 261.23 C 191.96 248.57 188.74 227.84 192.67 213.67 C 196.61 199.50 201.96 186.73 212.75 176.75 C 223.55 166.77 235.34 158.69 249.99 156.99 C 264.64 155.29 280.29 154.32 291.00 142.00
C 222.45 127.08 155.49 182.68 153.00 253.00 C 150.51 323.32 215.90 382.61 286.00 373.00 C 356.10 363.39 404.21 293.15 384.00 224.00 Z"/>
</g>
<g fill="#000000" fill-opacity="0.00" stroke="None">
<path d="
M 0.00 445.00 
L 561.00 445.00
L 561.00 0.00
L 0.00 0.00
L 0.00 445.00
M 205.00 189.00 
C 239.05 177.89 274.71 176.20 300.75 145.75 C 326.79 115.30 286.02 77.04 255.00 71.00
C 292.98 69.87 340.03 113.71 318.23 153.23 C 296.43 192.75 244.78 200.74 205.00 189.00
M 214.00 220.00 
C 243.84 216.81 277.03 204.75 303.25 192.25 C 329.47 179.74 357.08 152.98 346.07 122.93 C 335.07 92.88 305.11 83.46 280.00 71.00
C 329.25 70.73 387.07 127.31 358.23 177.23 C 329.39 227.15 263.61 235.91 214.00 220.00
M 384.00 224.00 
C 404.21 293.15 356.10 363.39 286.00 373.00 C 215.90 382.61 150.51 323.32 153.00 253.00 C 155.49 182.68 222.45 127.08 291.00 142.00
C 280.29 154.32 264.64 155.29 249.99 156.99 C 235.34 158.69 223.55 166.77 212.75 176.75 C 201.96 186.73 196.61 199.50 192.67 213.67 C 188.74 227.84 191.96 248.57 198.77 261.23 C 205.59 273.89 212.16 283.42 224.75 291.25 C 237.33 299.09 254.87 304.09 270.00 303.00 C 285.13 301.91 299.12 295.71 310.75 286.75 C 322.38 277.79 329.69 266.40 334.00 253.00
C 300.43 262.86 260.69 264.56 228.00 252.00
C 263.88 248.40 305.25 233.88 336.70 218.69 C 368.14 203.51 401.57 170.89 389.02 134.98 C 376.48 99.06 339.38 85.51 309.00 72.00
C 343.72 74.80 377.22 92.13 398.77 122.23 C 420.32 152.33 414.80 200.52 384.00 224.00 Z"/>
</g>
<g fill="#D6AA80" fill-opacity="0.91" stroke="None">
<path d="
M 205.00 189.00 
C 244.78 200.74 296.43 192.75 318.23 153.23 C 340.03 113.71 292.98 69.87 255.00 71.00
C 286.02 77.04 326.79 115.30 300.75 145.75 C 274.71 176.20 239.05 177.89 205.00 189.00 Z"/>
</g>
<g fill="#A48669" fill-opacity="0.93" stroke="None">
<path d="
M 214.00 220.00 
C 263.61 235.91 329.39 227.15 358.23 177.23 C 387.07 127.31 329.25 70.73 280.00 71.00
C 305.11 83.46 335.07 92.88 346.07 122.93 C 357.08 152.98 329.47 179.74 303.25 192.25 C 277.03 204.75 243.84 216.81 214.00 220.00 Z"/>
</g>
<g fill="#736356" fill-opacity="0.98" stroke="None">
<path d="
M 384.00 224.00 
C 414.80 200.52 420.32 152.33 398.77 122.23 C 377.22 92.13 343.72 74.80 309.00 72.00
C 339.38 85.51 376.48 99.06 389.02 134.98 C 401.57 170.89 368.14 203.51 336.70 218.69 C 305.25 233.88 263.88 248.40 228.00 252.00
C 260.69 264.56 300.43 262.86 334.00 253.00
C 329.69 266.40 322.38 277.79 310.75 286.75 C 299.12 295.71 285.13 301.91 270.00 303.00 C 254.87 304.09 237.33 299.09 224.75 291.25 C 212.16 283.42 205.59 273.89 198.77 261.23 C 191.96 248.57 188.74 227.84 192.67 213.67 C 196.61 199.50 201.96 186.73 212.75 176.75 C 223.55 166.77 235.34 158.69 249.99 156.99 C 264.64 155.29 280.29 154.32 291.00 142.00
C 222.45 127.08 155.49 182.68 153.00 253.00 C 150.51 323.32 215.90 382.61 286.00 373.00 C 356.10 363.39 404.21 293.15 384.00 224.00 Z"/>
</g>
</svg>