<svg fill="none" height="75" viewBox="0 0 35 75" width="35" xmlns="http://www.w3.org/2000/svg">
    <path
        d="M33.6494 35.7437V36.1704C33.6195 37.4282 33.4847 38.731 33.2451 40.0786C33.0205 41.4263 32.6986 42.7739 32.2793 44.1216C31.86 45.4692 31.3584 46.8019 30.7744 48.1196C30.1904 49.4373 29.5316 50.6951 28.7979 51.8931C28.0791 53.106 27.3005 54.2365 26.4619 55.2847C25.6234 56.3478 24.7399 57.2837 23.8115 58.0923L20.4648 56.1606C20.9889 55.2772 21.4606 54.3114 21.8799 53.2632C22.3141 52.23 22.7035 51.1444 23.0479 50.0063C23.3923 48.8683 23.6842 47.7004 23.9238 46.5024C24.1784 45.3045 24.388 44.1141 24.5527 42.9312C24.7174 41.7482 24.8372 40.5877 24.9121 39.4497C25.002 38.2967 25.0469 37.2036 25.0469 36.1704C25.0469 35.3618 25.0394 34.4484 25.0244 33.4302C25.0244 32.397 24.9645 31.3488 24.8447 30.2856C24.7399 29.2225 24.5602 28.1893 24.3057 27.186C24.0511 26.1678 23.6693 25.2619 23.1602 24.4683C22.666 23.6746 22.0221 23.0382 21.2285 22.5591C20.4499 22.0799 19.4766 21.8403 18.3086 21.8403C17.2754 21.8403 16.3844 22.02 15.6357 22.3794C14.902 22.7238 14.2731 23.1955 13.749 23.7944C13.2399 24.3784 12.8281 25.0597 12.5137 25.8384C12.2142 26.617 11.9746 27.4406 11.7949 28.3091C11.6302 29.1626 11.5179 30.0311 11.458 30.9146C11.4131 31.783 11.3906 32.6066 11.3906 33.3853V39.6519H21.0713V43.3579H11.3906V51.2192H2.47363V34.7778C2.47363 32.4269 2.84798 30.2407 3.59668 28.2192C4.34538 26.1978 5.40104 24.4458 6.76367 22.9634C8.14128 21.466 9.78841 20.298 11.7051 19.4595C13.6367 18.606 15.7855 18.1792 18.1514 18.1792C19.7536 18.1792 21.251 18.4113 22.6436 18.8755C24.0511 19.3247 25.3314 19.9536 26.4844 20.7622C27.6374 21.5558 28.6631 22.5067 29.5615 23.6147C30.4749 24.7078 31.2311 25.9058 31.8301 27.2085C32.444 28.5112 32.9082 29.8888 33.2227 31.3413C33.5371 32.7938 33.6794 34.2612 33.6494 35.7437Z"
        fill="white" />
    <rect fill="white" height="75" width="4.11111" x="14.3889" />
</svg>
