<svg height="1280" version="1.1" viewBox="0 0 1920 2304" width="1280"
    xmlns="http://www.w3.org/2000/svg">
    <path d="m0 0 145 1 21 1 2 3v283l17 3 32 5 33 7 28 7 36 12 21 8 20 9 25 12 18 10 16 10 25 16 17 12 11 9 12 9 10 8 13 12 5 5 7 6 5 5 5 6 18 18 9 11 11 14 10 13 14 20 12 18 14 24 13 25 8 16 7 15 11 28 14 43 11 42 7 38 5 38 2 23v74l-3 31-6 45-5 31-10 46-12 48-12 41-16 45-11 27-22 52-11 23-12 22-13 25-12 22-16 26-11 17-10 16-15 22-12 17-8 11-20 26-13 16-11 14-3 4h-2l-2 4-15 16-8 8-1 2h-2v2h-2v2h-2v2h-2l-2 4h-2l-2 4-8 7-14 14h-2l-1 3h-2l-1 3-11 9-12 13-8 5-3 3-9-3-100-50-10-6-6-7 1-6 5-10 8-13 8-16 12-23 16-32 12-28 10-26 15-40 12-36 10-34 8-32 14-60 14-70 10-69 4-34 4-54 2-43 1-32v-89l-1-48-3-60-3-34-6-42-8-36-5-19-12-34-12-27-11-21-11-16-8-10-11-13-11-11-15-11-21-12-21-11-26-11-9-3-1 168v397l-1 38 33 1 13 1 2 1 1 3v73l-1 45-4 2-43 2v889l-3 2-24 1-104 1h-38l-3-1-1-7-1-44v-841h-139l-2 1v263l-2 2-4 1h-327l-2-3-2-21v-552l2-36 4-34 9-49 7-30 9-29 9-24 11-26 13-27 11-20 9-15 8-12 12-17 9-12 11-15 9-11 12-13 11-12h2v-2l4-4h2l2-4 17-16 14-12 20-15 18-13 20-13 20-12 14-8 23-12 31-13 21-8 38-12 22-6 53-11 1-1v-208l1-80 1-4zm-8 438-9 6-19 14-21 18v2l-4 2v2h-2l-9 11-10 13-9 14-10 18-9 19-8 22-12 45-5 22-4 25-4 37-3 45-1 35v230l19 1h119l3-1 1-16v-76l-1-485z"
        transform="translate(934,182)" />
</svg>