<svg fill="none" height="98" viewBox="0 0 35 98" width="35" xmlns="http://www.w3.org/2000/svg">
    <path
        d="M33.6494 46.5244V46.9512C33.6195 48.209 33.4847 49.5117 33.2451 50.8594C33.0205 52.207 32.6986 53.5547 32.2793 54.9023C31.86 56.25 31.3584 57.5827 30.7744 58.9004C30.1904 60.2181 29.5316 61.4759 28.7979 62.6738C28.0791 63.8867 27.3005 65.0173 26.4619 66.0654C25.6234 67.1286 24.7399 68.0645 23.8115 68.873L20.4648 66.9414C20.9889 66.0579 21.4606 65.0921 21.8799 64.0439C22.3141 63.0107 22.7035 61.9251 23.0479 60.7871C23.3923 59.6491 23.6842 58.4811 23.9238 57.2832C24.1784 56.0853 24.388 54.8949 24.5527 53.7119C24.7174 52.529 24.8372 51.3685 24.9121 50.2305C25.002 49.0775 25.0469 47.9844 25.0469 46.9512C25.0469 46.1426 25.0394 45.2292 25.0244 44.2109C25.0244 43.1777 24.9645 42.1296 24.8447 41.0664C24.7399 40.0033 24.5602 38.9701 24.3057 37.9668C24.0511 36.9486 23.6693 36.0426 23.1602 35.249C22.666 34.4554 22.0221 33.819 21.2285 33.3398C20.4499 32.8607 19.4766 32.6211 18.3086 32.6211C17.2754 32.6211 16.3844 32.8008 15.6357 33.1602C14.902 33.5046 14.2731 33.9762 13.749 34.5752C13.2399 35.1592 12.8281 35.8405 12.5137 36.6191C12.2142 37.3978 11.9746 38.2214 11.7949 39.0898C11.6302 39.9434 11.5179 40.8118 11.458 41.6953C11.4131 42.5638 11.3906 43.3874 11.3906 44.166V50.4326H21.0713V54.1387H11.3906V62H2.47363V45.5586C2.47363 43.2077 2.84798 41.0215 3.59668 39C4.34538 36.9785 5.40104 35.2266 6.76367 33.7441C8.14128 32.2467 9.78841 31.0788 11.7051 30.2402C13.6367 29.3867 15.7855 28.96 18.1514 28.96C19.7536 28.96 21.251 29.1921 22.6436 29.6562C24.0511 30.1055 25.3314 30.7344 26.4844 31.543C27.6374 32.3366 28.6631 33.2874 29.5615 34.3955C30.4749 35.4886 31.2311 36.6865 31.8301 37.9893C32.444 39.292 32.9082 40.6696 33.2227 42.1221C33.5371 43.5745 33.6794 45.042 33.6494 46.5244Z"
        fill="#1C6B1E" />
    <rect fill="#1C6B1E" height="55" width="4" x="14" y="23.6075" />
</svg>
