<svg height="309" version="1.1" viewBox="0 0 807 309" width="807"
    xmlns="http://www.w3.org/2000/svg">
    <g fill="none" stroke-linecap="butt" stroke-width="2">


        <path d="M 584.64 38.30 Q 577.84 36.87 577.45 29.25 Q 577.34 26.93 577.67 24.88" stroke="#c58cc4"
            vector-effect="non-scaling-stroke" />
        <path d="M 577.67 24.88 Q 579.27 21.35 582.20 20.01 A 0.63 0.63 0.0 0 0 582.56 19.30 Q 582.36 18.32 581.62 16.90 Q 575.13 4.53 561.67 6.92"
            stroke="#7e81c8"
            vector-effect="non-scaling-stroke" />
        <path d="M588.19 53.75C587.4 62.52 576.73 63.58 570.01 61.51Q566.85 60.54 564.73 56.21M559.6 40.95 554 28.35"
            stroke="#c58cc4"
            vector-effect="non-scaling-stroke" />
        <path d="M 577.67 24.88 C 573.91 23.61 573.75 21.86 572.75 18.79 A 0.44 0.44 0.0 0 0 572.13 18.53 Q 570.23 19.49 569.55 20.03 Q 562.55 25.58 554.00 28.35"
            stroke="#b8458d"
            vector-effect="non-scaling-stroke" />
        <path d="M554 28.35 551.04 28.94M614.4 103.87 618.5 130.11A.55.54 83.7 0 1 618 130.74L559.48 135.3A.65.65 0 0 0 558.88 135.89L549.24 244.97"
            stroke="#7e81c8"
            vector-effect="non-scaling-stroke" />
        <path d="M538.06 110.02 540.36 113.71A4.08 4.01-89.5 0 0 541.5 114.89C544.96 117.26 550.35 117.44 554.27 116.28A2.12 2.11 79.7 0 0 555.78 114.09L554.67 99.84A2.13 2.12-83.2 0 0 553.21 97.98L545.16 95.3A.58.55 87.1 0 1 544.83 94.99Q544.17 93.42 543.09 92.2M550.72 65.9Q564.86 75.71 577.66 88.35 580.5 91.16 585.94 97.32 589.87 101.76 592.54 103.09 600.03 106.8 607.47 102.75C610.4 101.15 612.26 97.85 611.46 94.78 610.54 91.27 610.48 87.21 609.52 84.19A.74.74 0 0 0 608.76 83.67L601.84 84.21A6.13 6.11-29.5 0 1 597.84 83.11Q593.75 80.21 590.39 78.02 589.88 77.7 589.74 77.38 589.51 76.86 589.04 76.86A1.66 1.28-20.1 0 1 588.09 76.56Q587.63 76.21 581.59 72.77C573.9 68.37 565.53 64.73 557.64 61.13Q555.63 60.21 554.78 58.22"
            stroke="#c58cc4"
            vector-effect="non-scaling-stroke" />
        <path d="M 659.32 237.63 Q 654.63 234.26 653.49 233.26 Q 644.55 225.37 645.69 212.48 Q 646.28 205.95 651.04 201.81 C 656.05 197.45 665.39 195.82 661.09 185.66 C 659.57 182.08 656.19 178.42 655.01 174.61 Q 652.52 166.50 660.34 160.65"
            stroke="#7e81c8"
            vector-effect="non-scaling-stroke" />
        <path d="M 535.69 86.56 Q 530.65 87.80 526.49 90.02 Q 526.04 90.26 525.75 90.87" stroke="#b8458d"
            vector-effect="non-scaling-stroke" />
        <path d="M681.4 243.88Q691.16 243.45 694.7 236.03C697.62 229.89 695.55 222.1 697.88 215.62 699.82 210.18 704.43 207.68 709.66 205.22Q713.32 203.51 715.15 201.91 723.98 194.18 718.4 183.13 714.86 176.1 707.09 169.44M715.65 147Q723.25 140.26 719.2 130.35"
            stroke="#c58cc4"
            vector-effect="non-scaling-stroke" />
        <path d="M178.27 23.16C173.99 25.02 168.92 25.81 166.04 30.55Q162.88 35.75 163.03 41.68A.78.78 0 0 0 163.8 42.44Q166.69 42.46 168.76 44.66A1.26 1.25 67.1 0 0 169.68 45.04Q172.21 44.97 172.89 42.9A.52.51 22.1 0 1 173.61 42.6Q177.86 44.8 181.02 41.03 181.38 40.6 181.65 40.63 181.93 40.67 182.39 41.13C184.59 43.32 187.77 42.21 189.09 39.83A1.44 1.43 5.9 0 1 189.92 39.16Q191.56 38.65 193.25 39.3M187.94 77.97Q185.29 83.76 179.16 83.91 173.79 84.04 169.77 81.94 165.52 79.72 164.41 74.29M158.89 39.92 159.77 31.51"
            stroke="#b8458d"
            vector-effect="non-scaling-stroke" />
        <path d="M 191.76 149.97 Q 170.93 150.21 164.99 149.65 Q 147.89 148.05 130.78 146.79" stroke="#7e81c8"
            vector-effect="non-scaling-stroke" />
        <path d="M 227.97 97.42 L 227.71 97.18 A 0.82 0.81 -74.9 0 1 227.44 96.70 L 224.55 81.51"
            stroke="#b8458d"
            vector-effect="non-scaling-stroke" />
        <path d="M 238.29 257.54 L 238.42 261.69 A 0.51 0.51 0.0 0 1 237.92 262.22 L 227.89 262.31"
            stroke="#7e81c8"
            vector-effect="non-scaling-stroke" />
        <path d="M 227.89 262.31 L 214.49 262.03" stroke="#c58cc4" vector-effect="non-scaling-stroke" />
        <path d="M214.49 262.03Q213.07 262.54 211.73 262.03A1.16 1.11 86.9 0 1 211.09 261.43L209.65 258.37M176.11 256.35 173.95 267.17A.86.85 87.2 0 1 173.37 267.82Q171.64 268.35 169.43 267.9"
            stroke="#7e81c8"
            vector-effect="non-scaling-stroke" />
        <path d="M 169.43 267.90 L 155.48 268.00" stroke="#c58cc4" vector-effect="non-scaling-stroke" />
        <path d="M 155.48 268.00 L 152.24 267.82 A 0.52 0.52 0.0 0 1 151.75 267.28 L 152.12 257.15"
            stroke="#7e81c8"
            vector-effect="non-scaling-stroke" />
        <path d="M124.1 86.5Q123.95 88.89 125.96 90.59C130.79 94.68 135.18 99.58 139.73 104.02Q140.01 104.3 139.9 105.1M138.63 109.6C138.48 110.77 138.61 112 138.35 113.13Q134.74 129.53 131.04 145.9 130.98 146.19 130.78 146.79"
            stroke="#b8458d"
            vector-effect="non-scaling-stroke" />
        <path d="M130.78 146.79Q130.3 146.53 129.87 147.1A.89.87-21.2 0 0 129.72 147.43Q128.84 152.17 127.52 156.87 125.82 162.95 125.85 166.06 125.93 174.69 133.3 180.6M104.61 207.11Q102.17 203.87 101.47 199.76C100.52 194.18 102.66 189.65 106.42 185.65 109.14 182.76 113.53 177.97 114.6 174.42 119.48 158.14 94 152.03 83.32 149.3 81.18 148.75 79.1 147.74 77.09 146.78"
            stroke="#c58cc4"
            vector-effect="non-scaling-stroke" />
        <path d="M214.49 262.03 214.69 269.56A.57.57 0 0 0 215.23 270.12Q219.13 270.36 222.89 268.68A2.29 2.24-54.7 0 1 223.93 268.49L227.35 268.7A.57.56-88.1 0 0 227.95 268.13L227.89 262.31M155.48 268 153.66 275.94A.51.51 0 0 0 154.06 276.56Q157.74 277.29 159.32 276.67 163.35 275.08 166.23 276.05A1.28 1.27 15.3 0 0 167.88 275.11L169.43 267.9M118.27 57.84Q119.28 51.93 116.34 48.12"
            stroke="#b8458d"
            vector-effect="non-scaling-stroke" />
        <path d="M438.44 109.73A2.61 2.61 0 0 0 435.83 107.12 2.61 2.61 0 0 0 433.22 109.73 2.61 2.61 0 0 0 435.83 112.34 2.61 2.61 0 0 0 438.44 109.73M379.11 114.46C372.58 110.66 366.88 115.74 367.76 122.72 368.59 129.34 376.29 132.72 380.36 126.4A.31.31 0 0 1 380.91 126.45Q381.59 128.25 382.86 129.29A.98.98 0 0 0 384.46 128.53L384.46 108.08A.5.49 0 0 0 383.96 107.59L380.2 107.59A.57.57 0 0 0 379.63 108.16L379.63 114.16A.35.35 0 0 1 379.11 114.46M314.34 129.33A.54.53 0 0 0 314.88 128.8L314.88 124.96A.47.47 0 0 1 315.35 124.49L319.81 124.49A1 1 0 0 0 320.81 123.49L320.81 123.01A.91.91 0 0 0 319.9 122.1L315.29 122.1A.42.41-1.4 0 1 314.87 121.71C314.75 119.23 314.54 114.08 316.39 112.46 319.06 110.12 322.47 112.11 322.86 115.37Q323.97 124.57 320.76 131.27A1.38 1.38 0 0 0 323.04 132.79C327.96 127.32 331.22 117.39 324.97 111.58Q321.03 107.92 316.71 109.28C307.4 112.24 309.52 121.08 309.4 128.77A.55.55 0 0 0 309.95 129.33L314.34 129.33M330.64 121.19C330.51 129.46 340.74 132.58 345.44 126.56A1.17 1.16 40.8 0 0 345.32 125L345.26 124.94A.96.95-49.6 0 0 343.84 125.06Q340.6 129.41 336.76 126.31A3.25 3.18-86.1 0 1 336.06 125.49Q335.24 124.1 335.29 121.26 335.34 118.43 336.2 117.07A3.25 3.18 88 0 1 336.93 116.27Q340.87 113.3 343.96 117.75A.96.95 51.5 0 0 345.38 117.92L345.44 117.86A1.17 1.16-38.9 0 0 345.61 116.31C341.11 110.13 330.78 112.91 330.64 121.19M359.76 128.24Q360.1 128.66 360.09 128.83A.49.49 0 0 0 360.58 129.33L363.93 129.33A.69.69 0 0 0 364.62 128.64L364.62 114.35A1.08 1.07 60.3 0 0 362.62 113.8L361.3 116.06A.57.57 0 0 1 360.28 115.99Q359.32 113.67 356.96 113.28C350.74 112.25 347.48 116.67 348.03 122.5 348.57 128.37 354 131.46 359.34 128.35Q359.69 128.15 359.76 128.24M419.06 115.32Q416.78 111.83 412.05 113.69C410.89 114.15 410.39 115.21 409.9 116.39A.4.39-46.5 0 1 409.18 116.41L407.81 113.58A.86.86 0 0 0 406.33 113.48Q406.13 113.73 406.1 114.31 405.97 116.37 406 128.75A.61.61 0 0 0 406.61 129.36L410.16 129.36A.61.61 0 0 0 410.77 128.75Q410.79 124.45 410.82 119.51 410.83 117.58 411.87 116.19A1.95 1.89-48.9 0 1 414.77 115.95C416.45 117.66 415.82 124.84 415.77 128.5A.84.84 0 0 0 416.61 129.35L419.52 129.35A.89.88-1.2 0 0 420.41 128.43C420.25 125.04 419.84 118.48 421.58 116.23A2.13 2.13 0 0 1 424.82 116.06C427.55 118.94 425.04 127.76 423.76 130.92A1.19 1.19 0 0 0 425.74 132.16Q430.21 127.21 430.45 120.26C430.6 115.91 428.58 112.77 424.04 113.06Q422.02 113.19 420.17 115.39A.69.69 0 0 1 419.06 115.32"
            stroke="#539a90"
            vector-effect="non-scaling-stroke" />
        <path d="M392.83 123.36C396.19 124.13 402 123.79 403 119.87 404.02 115.88 400.94 113.59 397.01 113.17 383.18 111.7 384.57 132.27 397.89 129.36Q400.81 128.72 402.4 126.04A.85.85 0 0 0 401.44 124.78C400.06 125.16 399.64 126.69 398.37 127.2Q394.42 128.8 392.16 124.2A.6.59-6.5 0 1 392.83 123.36M438.27 114.01A.61.61 0 0 0 437.66 113.4L434.02 113.4A.61.61 0 0 0 433.41 114.01L433.41 128.73A.61.61 0 0 0 434.02 129.34L437.66 129.34A.61.61 0 0 0 438.27 128.73L438.27 114.01M446.07 121.73A.43.43 0 0 1 446.05 122.25L440.81 128.53A.43.43 0 0 0 441.13 129.23L442.93 129.28A.43.43 0 0 0 443.27 129.13L447.24 124.39A.43.43 0 0 1 447.92 124.42L451.15 129.02A.43.43 0 0 0 451.49 129.21L455.14 129.31A.43.43 0 0 0 455.51 128.64L450.07 120.87A.43.43 0 0 1 450.09 120.35L455.33 114.08A.43.43 0 0 0 455.01 113.38L453.21 113.33A.43.43 0 0 0 452.87 113.48L448.9 118.22A.43.43 0 0 1 448.22 118.19L444.99 113.59A.43.43 0 0 0 444.65 113.4L441.01 113.3A.43.43 0 0 0 440.64 113.97L446.07 121.73"
            stroke="#539a90"
            vector-effect="non-scaling-stroke" />
        <path d="M 586.57 245.27 L 582.72 198.68 A 0.17 0.17 0.0 0 0 582.39 198.65 L 571.31 250.34"
            stroke="#7e81c8"
            vector-effect="non-scaling-stroke" />
        <path d="M562.71 277.67A.39.38 5 0 0 562.33 277.22L549.54 277.22A.94.93 5.2 0 0 548.62 277.98L548.37 279.33A.72.72 0 0 0 549.18 280.17Q552.55 279.67 556.04 281.63 558.12 282.8 561.43 282.94A.33.33 0 0 0 561.78 282.67L562.71 277.67M604.9 284.27 604.9 280.66A.66.65 90 0 0 604.25 280L591.53 280A.8.8 0 0 0 590.73 280.8L590.73 281.2A.53.52 85.8 0 0 591.33 281.73Q595.53 281.13 598.79 283.51 599.99 284.39 604.34 284.78A.51.51 0 0 0 604.9 284.27"
            stroke="#b8458d"
            vector-effect="non-scaling-stroke" />
        <path d="M375.8763 115.3505A6.03 3.69-90.7 0 0 372.2603 121.4251 6.03 3.69-90.7 0 0 376.0237 127.4095 6.03 3.69-90.7 0 0 379.6397 121.3349 6.03 3.69-90.7 0 0 375.8763 115.3505M356.4478 115.2521A6.03 3.66-88.5 0 0 352.6313 121.1842 6.03 3.66-88.5 0 0 356.1322 127.3079 6.03 3.66-88.5 0 0 359.9487 121.3758 6.03 3.66-88.5 0 0 356.4478 115.2521M391.85 121.39Q392.05 121.69 392.74 121.83 395.3 122.37 397.53 121.76A1.6 1.56 10.6 0 0 398.39 121.19Q400.36 118.64 399.07 116.66 397.78 114.69 394.65 115.48A1.6 1.56-77 0 0 393.78 116.03Q392.33 117.83 391.8 120.39 391.66 121.09 391.85 121.39"
            stroke="#539a90"
            vector-effect="non-scaling-stroke" />
        <path d="M248.879 281.6475A.9.9 0 0 0 248.0832 280.6541L212.2409 276.6971A.9.9 0 0 0 211.2476 277.4929L211.241 277.5525A.9.9 0 0 0 212.0368 278.5459L247.8791 282.5029A.9.9 0 0 0 248.8724 281.7071L248.879 281.6475M186.6168 291.2198A.91.91 0 0 0 185.9103 290.1442L150.6191 282.8357A.91.91 0 0 0 149.5435 283.5423L149.5232 283.6402A.91.91 0 0 0 150.2297 284.7158L185.5209 292.0243A.91.91 0 0 0 186.5965 291.3177L186.6168 291.2198"
            stroke="#7e81c8"
            vector-effect="non-scaling-stroke" />
    </g>
    <path d="M 584.64 38.30 Q 577.84 36.87 577.45 29.25 Q 577.34 26.93 577.67 24.88 Q 579.27 21.35 582.20 20.01 A 0.63 0.63 0.0 0 0 582.56 19.30 Q 582.36 18.32 581.62 16.90 Q 575.13 4.53 561.67 6.92 Q 566.83 2.37 573.94 4.34 Q 584.11 7.15 586.35 18.12 A 1.70 1.69 -0.7 0 0 587.72 19.45 C 595.28 20.79 596.19 31.34 592.33 36.08 Q 590.07 38.85 584.64 38.30 Z"
        fill="#8AC9FF" fill-opacity="1" />
    <path d="M 577.67 24.88 C 573.91 23.61 573.75 21.86 572.75 18.79 A 0.44 0.44 0.0 0 0 572.13 18.53 Q 570.23 19.49 569.55 20.03 Q 562.55 25.58 554.00 28.35 L 551.04 28.94 Q 549.43 28.77 547.91 28.34 Q 546.21 27.87 545.36 26.68 C 540.10 19.40 548.88 10.55 555.33 8.82 Q 560.03 7.56 561.67 6.92 Q 575.13 4.53 581.62 16.90 Q 582.36 18.32 582.56 19.30 A 0.63 0.63 0.0 0 1 582.20 20.01 Q 579.27 21.35 577.67 24.88 Z"
        fill="#713991" />
    <path d="M577.67 24.88Q577.34 26.93 577.45 29.25 577.84 36.87 584.64 38.3 584.19 39.86 583 41.12A.99.98 64.2 0 0 582.74 41.88L583.58 52.67A.82.82 0 0 0 584.33 53.43L588.19 53.75C587.4 62.52 576.73 63.58 570.01 61.51Q566.85 60.54 564.73 56.21L569.28 54.77A.64.64 0 0 0 569.73 54.11L569.24 47.78A.89.87-82.7 0 0 568.67 47.03Q563.05 44.97 562.36 44.16 560.67 42.17 559.6 40.95L554 28.35Q562.55 25.58 569.55 20.03 570.23 19.49 572.13 18.53A.44.44 0 0 1 572.75 18.79C573.75 21.86 573.91 23.61 577.67 24.88ZM178.27 23.16C173.99 25.02 168.92 25.81 166.04 30.55Q162.88 35.75 163.03 41.68A.78.78 0 0 0 163.8 42.44Q166.69 42.46 168.76 44.66A1.26 1.25 67.1 0 0 169.68 45.04Q172.21 44.97 172.89 42.9A.52.51 22.1 0 1 173.61 42.6Q177.86 44.8 181.02 41.03 181.38 40.6 181.65 40.63 181.93 40.67 182.39 41.13C184.59 43.32 187.77 42.21 189.09 39.83A1.44 1.43 5.9 0 1 189.92 39.16Q191.56 38.65 193.25 39.3 193.13 40.31 194.13 40.68C202.15 43.66 201.68 53.72 192.95 54.92A.85.84 3.7 0 0 192.26 55.52C190.78 60.43 189.13 61.8 184.67 64.41A.94.94 0 0 0 184.21 65.12L183.13 75.77A.65.64-77.2 0 0 183.55 76.44L187.94 77.97Q185.29 83.76 179.16 83.91 173.79 84.04 169.77 81.94 165.52 79.72 164.41 74.29L168.31 74.13A.69.69 0 0 0 168.96 73.57L170.88 63.22A.73.73 0 0 0 170.48 62.43Q169.21 61.81 168.31 60.59A.84.83-32.5 0 0 167.23 60.36Q163.41 62.44 160.57 60.65 152.69 55.67 155.07 46.77A3.15 3.14 78.4 0 1 156.14 45.14Q159.34 42.58 158.89 39.92L159.77 31.51C163.97 24.6 170.09 21.22 178.27 23.16Z"
        fill="#94465f" fill-opacity="1" />
    <path d="M 193.25 39.30 Q 191.56 38.65 189.92 39.16 A 1.44 1.43 5.9 0 0 189.09 39.83 C 187.77 42.21 184.59 43.32 182.39 41.13 Q 181.93 40.67 181.65 40.63 Q 181.38 40.60 181.02 41.03 Q 177.86 44.80 173.61 42.60 A 0.52 0.51 22.1 0 0 172.89 42.90 Q 172.21 44.97 169.68 45.04 A 1.26 1.25 67.1 0 1 168.76 44.66 Q 166.69 42.46 163.80 42.44 A 0.78 0.78 0.0 0 1 163.03 41.68 Q 162.88 35.75 166.04 30.55 C 168.92 25.81 173.99 25.02 178.27 23.16 Q 182.81 22.15 186.74 23.10 A 1.65 1.62 41.3 0 0 187.66 23.05 C 189.68 22.34 192.98 22.57 193.90 24.90 Q 194.31 25.93 194.53 26.26 A 1.16 1.15 -12.2 0 0 195.31 26.76 C 197.41 27.09 199.56 28.27 199.86 30.56 A 2.15 2.14 -32.0 0 1 199.51 32.05 Q 198.62 33.37 198.02 36.23 A 1.72 1.70 -7.4 0 1 197.10 37.41 L 193.25 39.30 Z"
        fill="#713991" />
    <path d="M 554.00 28.35 L 559.60 40.95 Q 546.66 41.03 551.04 28.94 L 554.00 28.35 Z" fill="#d9c1c1" fill-opacity="1" />
    <path d="M 159.77 31.51 L 158.89 39.92 Q 155.02 41.16 155.13 37.50 Q 155.16 36.54 156.01 35.34 C 157.25 33.57 156.62 31.14 159.77 31.51 Z"
        fill="#713991" />
    <path d="M 486.7891 92.8797 A 108.57 86.15 -14.4 0 1 403.0546 203.3234 A 108.57 86.15 -14.4 0 1 276.4709 146.8803 A 108.57 86.15 -14.4 0 1 360.2054 36.4366 A 108.57 86.15 -14.4 0 1 486.7891 92.8797 Z M 438.44 109.73 A 2.61 2.61 0.0 0 0 435.83 107.12 A 2.61 2.61 0.0 0 0 433.22 109.73 A 2.61 2.61 0.0 0 0 435.83 112.34 A 2.61 2.61 0.0 0 0 438.44 109.73 Z M 379.11 114.46 C 372.58 110.66 366.88 115.74 367.76 122.72 C 368.59 129.34 376.29 132.72 380.36 126.40 A 0.31 0.31 0.0 0 1 380.91 126.45 Q 381.59 128.25 382.86 129.29 A 0.98 0.98 0.0 0 0 384.46 128.53 L 384.46 108.08 A 0.50 0.49 -0.0 0 0 383.96 107.59 L 380.20 107.59 A 0.57 0.57 0.0 0 0 379.63 108.16 L 379.63 114.16 A 0.35 0.35 0.0 0 1 379.11 114.46 Z M 314.34 129.33 A 0.54 0.53 -0.0 0 0 314.88 128.80 L 314.88 124.96 A 0.47 0.47 0.0 0 1 315.35 124.49 L 319.81 124.49 A 1.00 1.00 0.0 0 0 320.81 123.49 L 320.81 123.01 A 0.91 0.91 0.0 0 0 319.90 122.10 L 315.29 122.10 A 0.42 0.41 -1.4 0 1 314.87 121.71 C 314.75 119.23 314.54 114.08 316.39 112.46 C 319.06 110.12 322.47 112.11 322.86 115.37 Q 323.97 124.57 320.76 131.27 A 1.38 1.38 0.0 0 0 323.04 132.79 C 327.96 127.32 331.22 117.39 324.97 111.58 Q 321.03 107.92 316.71 109.28 C 307.40 112.24 309.52 121.08 309.40 128.77 A 0.55 0.55 0.0 0 0 309.95 129.33 L 314.34 129.33 Z M 330.64 121.19 C 330.51 129.46 340.74 132.58 345.44 126.56 A 1.17 1.16 40.8 0 0 345.32 125.00 L 345.26 124.94 A 0.96 0.95 -49.6 0 0 343.84 125.06 Q 340.60 129.41 336.76 126.31 A 3.25 3.18 -86.1 0 1 336.06 125.49 Q 335.24 124.10 335.29 121.26 Q 335.34 118.43 336.20 117.07 A 3.25 3.18 88.0 0 1 336.93 116.27 Q 340.87 113.30 343.96 117.75 A 0.96 0.95 51.5 0 0 345.38 117.92 L 345.44 117.86 A 1.17 1.16 -38.9 0 0 345.61 116.31 C 341.11 110.13 330.78 112.91 330.64 121.19 Z M 359.76 128.24 Q 360.10 128.66 360.09 128.83 A 0.49 0.49 0.0 0 0 360.58 129.33 L 363.93 129.33 A 0.69 0.69 0.0 0 0 364.62 128.64 L 364.62 114.35 A 1.08 1.07 60.3 0 0 362.62 113.80 L 361.30 116.06 A 0.57 0.57 0.0 0 1 360.28 115.99 Q 359.32 113.67 356.96 113.28 C 350.74 112.25 347.48 116.67 348.03 122.50 C 348.57 128.37 354.00 131.46 359.34 128.35 Q 359.69 128.15 359.76 128.24 Z M 419.06 115.32 Q 416.78 111.83 412.05 113.69 C 410.89 114.15 410.39 115.21 409.90 116.39 A 0.40 0.39 -46.5 0 1 409.18 116.41 L 407.81 113.58 A 0.86 0.86 0.0 0 0 406.33 113.48 Q 406.13 113.73 406.10 114.31 Q 405.97 116.37 406.00 128.75 A 0.61 0.61 0.0 0 0 406.61 129.36 L 410.16 129.36 A 0.61 0.61 0.0 0 0 410.77 128.75 Q 410.79 124.45 410.82 119.51 Q 410.83 117.58 411.87 116.19 A 1.95 1.89 -48.9 0 1 414.77 115.95 C 416.45 117.66 415.82 124.84 415.77 128.50 A 0.84 0.84 0.0 0 0 416.61 129.35 L 419.52 129.35 A 0.89 0.88 -1.2 0 0 420.41 128.43 C 420.25 125.04 419.84 118.48 421.58 116.23 A 2.13 2.13 0.0 0 1 424.82 116.06 C 427.55 118.94 425.04 127.76 423.76 130.92 A 1.19 1.19 0.0 0 0 425.74 132.16 Q 430.21 127.21 430.45 120.26 C 430.60 115.91 428.58 112.77 424.04 113.06 Q 422.02 113.19 420.17 115.39 A 0.69 0.69 0.0 0 1 419.06 115.32 Z M 392.83 123.36 C 396.19 124.13 402.00 123.79 403.00 119.87 C 404.02 115.88 400.94 113.59 397.01 113.17 C 383.18 111.70 384.57 132.27 397.89 129.36 Q 400.81 128.72 402.40 126.04 A 0.85 0.85 0.0 0 0 401.44 124.78 C 400.06 125.16 399.64 126.69 398.37 127.20 Q 394.42 128.80 392.16 124.20 A 0.60 0.59 -6.5 0 1 392.83 123.36 Z M 438.27 114.01 A 0.61 0.61 0.0 0 0 437.66 113.40 L 434.02 113.40 A 0.61 0.61 0.0 0 0 433.41 114.01 L 433.41 128.73 A 0.61 0.61 0.0 0 0 434.02 129.34 L 437.66 129.34 A 0.61 0.61 0.0 0 0 438.27 128.73 L 438.27 114.01 Z M 446.07 121.73 A 0.43 0.43 0.0 0 1 446.05 122.25 L 440.81 128.53 A 0.43 0.43 0.0 0 0 441.13 129.23 L 442.93 129.28 A 0.43 0.43 0.0 0 0 443.27 129.13 L 447.24 124.39 A 0.43 0.43 0.0 0 1 447.92 124.42 L 451.15 129.02 A 0.43 0.43 0.0 0 0 451.49 129.21 L 455.14 129.31 A 0.43 0.43 0.0 0 0 455.51 128.64 L 450.07 120.87 A 0.43 0.43 0.0 0 1 450.09 120.35 L 455.33 114.08 A 0.43 0.43 0.0 0 0 455.01 113.38 L 453.21 113.33 A 0.43 0.43 0.0 0 0 452.87 113.48 L 448.90 118.22 A 0.43 0.43 0.0 0 1 448.22 118.19 L 444.99 113.59 A 0.43 0.43 0.0 0 0 444.65 113.40 L 441.01 113.30 A 0.43 0.43 0.0 0 0 440.64 113.97 L 446.07 121.73 Z"
        fill="#1b6b20" />
    <path d="M 118.27 57.84 Q 119.28 51.93 116.34 48.12 Q 115.81 46.55 114.68 45.46 A 1.49 1.44 -76.9 0 1 114.29 44.81 Q 113.80 43.05 115.52 41.78 Q 122.36 36.70 127.69 33.68 C 132.64 30.88 138.14 34.48 141.78 37.98 C 143.24 39.38 143.37 41.30 141.85 42.68 Q 138.97 45.30 135.30 42.98 A 0.72 0.71 -59.2 0 0 134.29 43.24 Q 132.60 46.31 129.23 46.19 A 0.93 0.91 -77.2 0 0 128.34 46.76 Q 127.01 49.89 124.11 51.05 A 0.93 0.92 81.8 0 0 123.53 51.83 Q 123.47 52.60 122.98 54.34 Q 122.08 57.56 118.27 57.84 Z"
        fill="#1C1C42" />
    <path d="M116.34 48.12Q119.28 51.93 118.27 57.84 117.78 62.06 116.02 65.01A2.94 2.91-34.9 0 0 115.65 67.02L118.53 83.4A.84.82 8.6 0 0 118.99 84.01L124.1 86.5Q123.95 88.89 125.96 90.59C130.79 94.68 135.18 99.58 139.73 104.02Q140.01 104.3 139.9 105.1 136.72 106.08 138.63 109.6C138.48 110.77 138.61 112 138.35 113.13Q134.74 129.53 131.04 145.9 130.98 146.19 130.78 146.79 130.3 146.53 129.87 147.1A.89.87-21.2 0 0 129.72 147.43Q128.84 152.17 127.52 156.87 125.82 162.95 125.85 166.06 125.93 174.69 133.3 180.6 134.12 183.52 134.81 186.35 135.49 189.13 136.41 192.08 138.86 199.92 141.39 207.74C142.9 212.42 143.59 217.06 144.55 221.87 145.76 227.94 144.97 234.5 142.39 240.14 141.18 242.78 137.18 246.74 133.79 247.07Q130.02 247.43 127.62 246.19C123.21 243.91 120.06 239.22 117.82 234.75Q116.93 232.96 115 227.19 111.28 216.04 104.61 207.11 102.17 203.87 101.47 199.76C100.52 194.18 102.66 189.65 106.42 185.65 109.14 182.76 113.53 177.97 114.6 174.42 119.48 158.14 94 152.03 83.32 149.3 81.18 148.75 79.1 147.74 77.09 146.78 80.05 143.7 84.6 140.03 86.31 136.1Q89.85 127.99 88.59 119.81 87.01 109.64 83.5 103.28 79.01 95.12 74.69 89.3 67.64 79.82 65.15 75.87C59.13 66.34 55.01 55.61 56.31 44.18A2.41 2.33-22.3 0 1 56.87 42.9Q60.72 38.44 64.91 37.4C73.75 35.21 81.07 39.43 85.35 47.21 89.06 53.96 90.8 61.41 94.07 67.9Q98.14 76.01 106.32 79.39A.4.4 0 0 0 106.87 79.04L108.84 46.08A.94.94 0 0 1 109.79 45.2Q113.45 45.26 116.34 48.12ZM681.4 243.88Q691.16 243.45 694.7 236.03C697.62 229.89 695.55 222.1 697.88 215.62 699.82 210.18 704.43 207.68 709.66 205.22Q713.32 203.51 715.15 201.91 723.98 194.18 718.4 183.13 714.86 176.1 707.09 169.44 718.17 166.56 716.71 154.28 716.29 150.68 715.65 147 723.25 140.26 719.2 130.35C723.83 124.68 729.35 122.82 736.62 122.12 743.74 121.45 749.36 120.56 752.85 114.05 755.27 109.53 754.7 103.32 753.14 98.32Q752.22 95.37 750.74 90.21C746.86 76.64 750.91 60.8 762.03 51.75 771.57 43.99 785.92 46.9 795.98 52.11 803.87 56.19 807.89 65.1 805.12 73.7Q803.24 79.52 799.67 83.16 795.33 87.58 791.3 89.78C786.08 92.63 780.5 95.5 782.1 102.24Q782.86 105.44 785.47 109.54C793.17 121.64 790.59 134.58 781.24 145.04Q775.28 151.72 765.86 156.13 758.15 159.74 754.07 162.33C744.78 168.23 746.08 178.02 752.51 185.36 758.79 192.54 764.66 199.78 760.66 209.8 758.06 216.32 753.49 219.91 746.55 221.97 739.47 224.07 732.26 223.62 725.23 226.02 719.93 227.83 716.91 231.44 716.31 237 715.96 240.24 716.63 243.92 715.15 246.52Q712.55 251.07 708.7 251.99 693.38 255.63 681.4 243.88Z"
        fill="#FF508A" fill-opacity="1" />
    <path d="M 614.40 103.87 L 618.50 130.11 A 0.55 0.54 83.7 0 1 618.00 130.74 L 559.48 135.30 A 0.65 0.65 0.0 0 0 558.88 135.89 L 549.24 244.97 Q 541.43 236.39 540.71 225.50 C 540.29 219.09 540.65 213.42 541.73 205.87 C 543.68 192.35 544.70 176.66 535.14 165.65 Q 533.38 163.62 531.13 162.03 Q 527.11 159.19 523.05 156.33 Q 509.97 147.12 506.83 131.01 Q 504.89 121.06 510.09 113.07 C 513.36 108.05 519.57 104.60 525.94 105.84 A 5.03 4.85 -26.0 0 1 526.96 106.17 Q 532.04 108.54 538.06 110.02 L 540.36 113.71 A 4.08 4.01 -89.5 0 0 541.50 114.89 C 544.96 117.26 550.35 117.44 554.27 116.28 A 2.12 2.11 79.7 0 0 555.78 114.09 L 554.67 99.84 A 2.13 2.12 -83.2 0 0 553.21 97.98 L 545.16 95.30 A 0.58 0.55 87.1 0 1 544.83 94.99 Q 544.17 93.42 543.09 92.20 L 545.21 82.64 A 1.26 1.25 85.0 0 1 545.95 81.75 L 547.11 81.27 A 0.61 0.60 -36.7 0 0 547.26 80.25 L 546.72 79.80 A 1.27 1.24 -64.4 0 1 546.30 78.57 Q 547.63 72.56 550.72 65.90 Q 564.86 75.71 577.66 88.35 Q 580.50 91.16 585.94 97.32 Q 589.87 101.76 592.54 103.09 Q 600.03 106.80 607.47 102.75 C 610.40 101.15 612.26 97.85 611.46 94.78 C 610.54 91.27 610.48 87.21 609.52 84.19 A 0.74 0.74 0.0 0 0 608.76 83.67 L 601.84 84.21 A 6.13 6.11 -29.5 0 1 597.84 83.11 Q 593.75 80.21 590.39 78.02 Q 589.88 77.70 589.74 77.38 Q 589.51 76.86 589.04 76.86 A 1.66 1.28 -20.1 0 1 588.09 76.56 Q 587.63 76.21 581.59 72.77 C 573.90 68.37 565.53 64.73 557.64 61.13 Q 555.63 60.21 554.78 58.22 L 564.73 56.21 Q 566.85 60.54 570.01 61.51 C 576.73 63.58 587.40 62.52 588.19 53.75 Q 592.79 53.95 597.75 54.27 Q 602.07 54.55 605.64 56.35 C 609.16 58.12 609.91 62.50 611.35 67.26 C 612.88 72.29 613.53 78.16 614.49 82.33 A 0.60 0.60 0.0 0 1 613.96 83.06 L 611.53 83.24 A 0.55 0.55 0.0 0 0 611.03 83.88 L 614.40 103.87 Z"
        fill="#B3DCFF" fill-opacity="1" />
    <path d="M554.78 58.22Q555.63 60.21 557.64 61.13C565.53 64.73 573.9 68.37 581.59 72.77Q587.63 76.21 588.09 76.56A1.66 1.28-20.1 0 0 589.04 76.86Q589.51 76.86 589.74 77.38 589.88 77.7 590.39 78.02 593.75 80.21 597.84 83.11A6.13 6.11-29.5 0 0 601.84 84.21L608.76 83.67A.74.74 0 0 1 609.52 84.19C610.48 87.21 610.54 91.27 611.46 94.78 612.26 97.85 610.4 101.15 607.47 102.75Q600.03 106.8 592.54 103.09 589.87 101.76 585.94 97.32 580.5 91.16 577.66 88.35 564.86 75.71 550.72 65.9L534.5 60.69A.54.53-66.3 0 1 534.2 59.91Q537.74 53.7 544.3 54.33 545.77 54.47 549.53 56.2 552.23 57.44 554.78 58.22ZM227.97 97.42 227.71 97.18A.82.81-74.9 0 1 227.44 96.7L224.55 81.51 236.42 82.48A2.34 2.3-27.1 0 1 237.44 82.8L238.81 83.61A1.05 1.04-43.2 0 0 239.83 83.64L272.02 66.68A1.5 1.49-88.2 0 0 272.58 66.15Q274.36 63.17 278.81 60.36 285.86 55.9 292.99 59.75 294.92 60.78 296.1 62.88A.56.56 0 0 1 295.81 63.68L281.61 69.07A1.42 1.34 11.8 0 0 281.12 69.37Q266.04 83.62 252.34 96.57 248.86 99.85 242.75 97.87A.7.68-48.3 0 0 242.2 97.91L240.66 98.72A.83.81 32.8 0 1 240.21 98.81L227.97 97.42Z"
        fill="#94465f" fill-opacity="1" />
    <path d="M 77.09 146.78 C 79.10 147.74 81.18 148.75 83.32 149.30 C 94.00 152.03 119.48 158.14 114.60 174.42 C 113.53 177.97 109.14 182.76 106.42 185.65 C 102.66 189.65 100.52 194.18 101.47 199.76 Q 102.17 203.87 104.61 207.11 Q 108.46 214.07 109.43 217.30 Q 111.71 224.92 106.00 229.97 Q 102.95 232.66 100.07 234.00 C 89.02 239.12 74.13 239.84 62.05 238.43 Q 47.75 236.76 39.48 225.33 C 35.01 219.17 34.22 211.67 39.20 205.40 Q 40.17 204.18 42.48 201.00 C 49.98 190.70 35.79 186.00 28.34 182.46 C 24.76 180.75 20.48 176.43 20.35 172.07 C 20.17 165.98 24.19 162.59 28.76 158.24 C 31.59 155.55 34.48 151.63 32.25 147.73 Q 30.63 144.88 28.37 143.17 Q 23.81 139.72 20.87 137.93 A 2.60 2.53 86.9 0 1 20.11 137.23 C 19.45 136.34 17.90 135.45 16.84 133.99 Q 13.30 129.07 17.55 123.52 Q 20.33 119.88 21.88 118.13 Q 28.73 110.40 21.96 102.81 Q 18.95 99.43 14.73 96.78 Q 9.37 93.40 5.68 89.88 C -3.05 81.56 1.00 68.85 10.96 63.68 C 18.92 59.54 27.00 58.70 35.63 61.62 Q 41.39 63.57 44.48 68.54 C 45.68 70.48 46.90 76.41 47.11 78.91 C 47.68 85.64 48.07 93.02 51.14 97.63 Q 53.41 101.03 58.88 101.89 C 67.77 103.29 78.40 104.17 81.33 114.69 C 82.71 119.64 79.34 124.51 76.20 128.92 C 71.64 135.33 68.98 141.76 77.09 146.78 Z"
        fill="#B3DCFF" fill-opacity="1" />
    <path d="M535.69 86.56Q530.65 87.8 526.49 90.02 526.04 90.26 525.75 90.87L525.49 90.79A.7.67-46.2 0 0 525.01 90.81L508.26 97.84A1.99 1.98 64.7 0 1 505.74 96.93L493.92 74.5A1.31 1.31 0 0 1 494.69 72.64Q512.26 67.24 527.86 61.83 529.21 61.36 531.27 61.56A1.1 1.1 0 0 1 532.1 62.07Q532.92 63.33 542.12 74.85 543.15 76.13 543.7 78.23A2.16 2.12 44.4 0 1 543.72 79.23Q542.86 83.3 538.11 84.64 535.76 85.3 535.69 86.56ZM164.41 74.29Q165.52 79.72 169.77 81.94 173.79 84.04 179.16 83.91 185.29 83.76 187.94 77.97L191.53 78.7A3.05 2.96-40.6 0 0 192.34 78.75Q205.57 77.64 219.76 78.29 221.67 78.38 223.03 78.77A.91.9-89.6 0 1 223.66 79.42Q223.97 80.73 224.55 81.51L227.44 96.7A.82.81-74.9 0 0 227.71 97.18L227.97 97.42Q227.58 97.3 227.38 97.48 227.17 97.67 227.29 98.07 227.78 99.68 227.84 101.06A1.14 1.13 4.9 0 1 226.46 102.22Q214.17 99.47 207.59 98.35C205.43 97.98 202.95 97 200.69 96.45A.9.89-78.8 0 0 199.6 97.19L191.76 149.97Q170.93 150.21 164.99 149.65 147.89 148.05 130.78 146.79 130.98 146.19 131.04 145.9 134.74 129.53 138.35 113.13C138.61 112 138.48 110.77 138.63 109.6Q140.07 107.56 139.9 105.1 140.01 104.3 139.73 104.02C135.18 99.58 130.79 94.68 125.96 90.59Q123.95 88.89 124.1 86.5L124.52 86.98A.35.35 0 0 0 125.12 86.81L125.19 86.42A1.12 1.11 77.1 0 1 125.62 85.73Q136.65 77.48 143.6 74.12 147.35 72.31 151.77 74.01A3.66 3.53-33.7 0 0 153.04 74.24L164.41 74.29Z"
        fill="#713991" />
    <path d="M 719.20 130.35 Q 723.25 140.26 715.65 147.00 Q 712.24 149.20 708.93 151.49 Q 704.69 154.44 703.57 156.53 C 701.18 161.01 703.67 165.84 707.09 169.44 Q 714.86 176.10 718.40 183.13 Q 723.98 194.18 715.15 201.91 Q 713.32 203.51 709.66 205.22 C 704.43 207.68 699.82 210.18 697.88 215.62 C 695.55 222.10 697.62 229.89 694.70 236.03 Q 691.16 243.45 681.40 243.88 Q 673.96 243.36 666.56 240.73 C 664.37 239.95 661.85 238.44 659.32 237.63 Q 654.63 234.26 653.49 233.26 Q 644.55 225.37 645.69 212.48 Q 646.28 205.95 651.04 201.81 C 656.05 197.45 665.39 195.82 661.09 185.66 C 659.57 182.08 656.19 178.42 655.01 174.61 Q 652.52 166.50 660.34 160.65 Q 663.57 159.22 667.68 157.70 Q 667.95 157.60 671.26 155.37 A 2.76 2.63 -0.9 0 0 671.95 154.69 Q 674.18 151.50 673.50 148.60 Q 672.46 144.11 670.02 138.31 C 665.86 128.44 674.97 125.74 681.05 121.82 C 690.01 116.03 684.30 105.55 680.92 97.16 C 678.93 92.23 679.71 86.38 683.18 81.96 C 688.37 75.31 696.33 73.13 704.19 76.15 C 709.73 78.28 714.68 82.80 714.93 89.01 C 715.08 92.57 713.92 96.18 712.30 100.07 Q 708.29 109.65 707.49 113.34 Q 706.19 119.34 711.31 122.95 Q 715.50 125.90 719.20 130.35 Z"
        fill="#B3DCFF" fill-opacity="1" />
    <path d="M 535.69 86.56 L 542.59 92.72 A 0.29 0.29 0.0 0 0 543.06 92.58 Q 543.10 92.43 543.09 92.20 Q 544.17 93.42 544.83 94.99 A 0.58 0.55 87.1 0 0 545.16 95.30 L 553.21 97.98 A 2.13 2.12 -83.2 0 1 554.67 99.84 L 555.78 114.09 A 2.12 2.11 79.7 0 1 554.27 116.28 C 550.35 117.44 544.96 117.26 541.50 114.89 A 4.08 4.01 -89.5 0 1 540.36 113.71 L 538.06 110.02 L 525.75 90.87 Q 526.04 90.26 526.49 90.02 Q 530.65 87.80 535.69 86.56 Z"
        fill="#94465f" fill-opacity="1" />
    <path d="M 660.34 160.65 Q 652.52 166.50 655.01 174.61 C 656.19 178.42 659.57 182.08 661.09 185.66 C 665.39 195.82 656.05 197.45 651.04 201.81 Q 646.28 205.95 645.69 212.48 Q 644.55 225.37 653.49 233.26 Q 654.63 234.26 659.32 237.63 Q 653.67 245.75 644.49 250.72 Q 631.84 257.59 618.29 254.26 Q 615.77 253.64 609.25 249.54 A 0.37 0.36 -72.3 0 0 608.70 249.83 L 607.60 268.27 A 1.44 1.44 0.0 0 0 608.89 269.79 Q 623.65 271.27 636.93 276.06 C 642.46 278.05 652.82 284.14 643.21 290.62 C 638.02 294.11 630.79 296.20 624.77 297.51 C 600.56 302.77 576.38 303.83 551.75 302.82 Q 529.44 301.90 508.78 297.17 C 501.67 295.54 494.61 293.26 489.47 288.63 A 2.80 2.75 -84.3 0 1 488.89 287.91 C 485.04 281.07 495.39 276.94 500.09 275.33 C 502.91 274.37 508.46 272.71 512.47 271.92 Q 528.96 268.67 546.31 267.65 A 0.98 0.97 -88.6 0 0 547.22 266.78 L 549.39 245.53 A 1.09 1.08 -54.3 0 0 549.31 245.03 Q 549.03 244.38 549.24 244.97 L 558.88 135.89 A 0.65 0.65 0.0 0 1 559.48 135.30 L 618.00 130.74 A 0.55 0.54 83.7 0 0 618.50 130.11 L 614.40 103.87 Q 630.72 110.54 642.22 125.52 Q 655.02 142.21 660.34 160.65 Z M 571.31 250.34 L 568.29 266.30 A 0.54 0.54 0.0 0 0 568.80 266.94 L 587.47 267.47 A 0.34 0.33 2.8 0 0 587.81 267.17 Q 588.16 264.18 587.89 261.87 Q 586.88 253.35 586.97 245.74 Q 586.97 245.39 586.57 245.27 L 582.72 198.68 A 0.17 0.17 0.0 0 0 582.39 198.65 L 571.31 250.34 Z M 562.71 277.67 A 0.39 0.38 5.0 0 0 562.33 277.22 L 549.54 277.22 A 0.94 0.93 5.2 0 0 548.62 277.98 L 548.37 279.33 A 0.72 0.72 0.0 0 0 549.18 280.17 Q 552.55 279.67 556.04 281.63 Q 558.12 282.80 561.43 282.94 A 0.33 0.33 0.0 0 0 561.78 282.67 L 562.71 277.67 Z M 604.90 284.27 L 604.90 280.66 A 0.66 0.65 90.0 0 0 604.25 280.00 L 591.53 280.00 A 0.80 0.80 0.0 0 0 590.73 280.80 L 590.73 281.20 A 0.53 0.52 85.8 0 0 591.33 281.73 Q 595.53 281.13 598.79 283.51 Q 599.99 284.39 604.34 284.78 A 0.51 0.51 0.0 0 0 604.90 284.27 Z"
        fill="#713991" />
    <circle cx="435.83" cy="109.73" fill="#ffffff" fill-opacity="1" r="2.61" />
    <path d="M379.63 114.16 379.63 108.16A.57.57 0 0 1 380.2 107.59L383.96 107.59A.5.49 0 0 1 384.46 108.08L384.46 128.53A.98.98 0 0 1 382.86 129.29Q381.59 128.25 380.91 126.45A.31.31 0 0 0 380.36 126.4C376.29 132.72 368.59 129.34 367.76 122.72 366.88 115.74 372.58 110.66 379.11 114.46A.35.35 0 0 0 379.63 114.16ZM375.8763 115.3505A6.03 3.69-90.7 0 0 372.2603 121.4251 6.03 3.69-90.7 0 0 376.0237 127.4095 6.03 3.69-90.7 0 0 379.6397 121.3349 6.03 3.69-90.7 0 0 375.8763 115.3505ZM309.4 128.77C309.52 121.08 307.4 112.24 316.71 109.28Q321.03 107.92 324.97 111.58C331.22 117.39 327.96 127.32 323.04 132.79A1.38 1.38 0 0 1 320.76 131.27Q323.97 124.57 322.86 115.37C322.47 112.11 319.06 110.12 316.39 112.46 314.54 114.08 314.75 119.23 314.87 121.71A.42.41-1.4 0 0 315.29 122.1L319.9 122.1A.91.91 0 0 1 320.81 123.01L320.81 123.49A1 1 0 0 1 319.81 124.49L315.35 124.49A.47.47 0 0 0 314.88 124.96L314.88 128.8A.54.53 0 0 1 314.34 129.33L309.95 129.33A.55.55 0 0 1 309.4 128.77ZM335.29 121.26Q335.24 124.1 336.06 125.49A3.25 3.18-86.1 0 0 336.76 126.31Q340.6 129.41 343.84 125.06A.96.95-49.6 0 1 345.26 124.94L345.32 125A1.17 1.16 40.8 0 1 345.44 126.56C340.74 132.58 330.51 129.46 330.64 121.19 330.78 112.91 341.11 110.13 345.61 116.31A1.17 1.16-38.9 0 1 345.44 117.86L345.38 117.92A.96.95 51.5 0 1 343.96 117.75Q340.87 113.3 336.93 116.27A3.25 3.18 88 0 0 336.2 117.07Q335.34 118.43 335.29 121.26ZM359.34 128.35C354 131.46 348.57 128.37 348.03 122.5 347.48 116.67 350.74 112.25 356.96 113.28Q359.32 113.67 360.28 115.99A.57.57 0 0 0 361.3 116.06L362.62 113.8A1.08 1.07 60.3 0 1 364.62 114.35L364.62 128.64A.69.69 0 0 1 363.93 129.33L360.58 129.33A.49.49 0 0 1 360.09 128.83Q360.1 128.66 359.76 128.24 359.69 128.15 359.34 128.35ZM356.4478 115.2521A6.03 3.66-88.5 0 0 352.6313 121.1842 6.03 3.66-88.5 0 0 356.1322 127.3079 6.03 3.66-88.5 0 0 359.9487 121.3758 6.03 3.66-88.5 0 0 356.4478 115.2521ZM420.17 115.39Q422.02 113.19 424.04 113.06C428.58 112.77 430.6 115.91 430.45 120.26Q430.21 127.21 425.74 132.16A1.19 1.19 0 0 1 423.76 130.92C425.04 127.76 427.55 118.94 424.82 116.06A2.13 2.13 0 0 0 421.58 116.23C419.84 118.48 420.25 125.04 420.41 128.43A.89.88-1.2 0 1 419.52 129.35L416.61 129.35A.84.84 0 0 1 415.77 128.5C415.82 124.84 416.45 117.66 414.77 115.95A1.95 1.89-48.9 0 0 411.87 116.19Q410.83 117.58 410.82 119.51 410.79 124.45 410.77 128.75A.61.61 0 0 1 410.16 129.36L406.61 129.36A.61.61 0 0 1 406 128.75Q405.97 116.37 406.1 114.31 406.13 113.73 406.33 113.48A.86.86 0 0 1 407.81 113.58L409.18 116.41A.4.39-46.5 0 0 409.9 116.39C410.39 115.21 410.89 114.15 412.05 113.69Q416.78 111.83 419.06 115.32A.69.69 0 0 0 420.17 115.39Z"
        fill="#ffffff" fill-opacity="1" />
    <path d="M 392.83 123.36 A 0.60 0.59 -6.5 0 0 392.16 124.20 Q 394.42 128.80 398.37 127.20 C 399.64 126.69 400.06 125.16 401.44 124.78 A 0.85 0.85 0.0 0 1 402.40 126.04 Q 400.81 128.72 397.89 129.36 C 384.57 132.27 383.18 111.70 397.01 113.17 C 400.94 113.59 404.02 115.88 403.00 119.87 C 402.00 123.79 396.19 124.13 392.83 123.36 Z M 391.85 121.39 Q 392.05 121.69 392.74 121.83 Q 395.30 122.37 397.53 121.76 A 1.60 1.56 10.6 0 0 398.39 121.19 Q 400.36 118.64 399.07 116.66 Q 397.78 114.69 394.65 115.48 A 1.60 1.56 -77.0 0 0 393.78 116.03 Q 392.33 117.83 391.80 120.39 Q 391.66 121.09 391.85 121.39 Z"
        fill="#ffffff" fill-opacity="1" />
    <rect fill="#ffffff" fill-opacity="1" height="15.94" rx=".61" width="4.86"
        x="433.41" y="113.4" />
    <path d="M 446.07 121.73 L 440.64 113.97 A 0.43 0.43 0.0 0 1 441.01 113.30 L 444.65 113.40 A 0.43 0.43 0.0 0 1 444.99 113.59 L 448.22 118.19 A 0.43 0.43 0.0 0 0 448.90 118.22 L 452.87 113.48 A 0.43 0.43 0.0 0 1 453.21 113.33 L 455.01 113.38 A 0.43 0.43 0.0 0 1 455.33 114.08 L 450.09 120.35 A 0.43 0.43 0.0 0 0 450.07 120.87 L 455.51 128.64 A 0.43 0.43 0.0 0 1 455.14 129.31 L 451.49 129.21 A 0.43 0.43 0.0 0 1 451.15 129.02 L 447.92 124.42 A 0.43 0.43 0.0 0 0 447.24 124.39 L 443.27 129.13 A 0.43 0.43 0.0 0 1 442.93 129.28 L 441.13 129.23 A 0.43 0.43 0.0 0 1 440.81 128.53 L 446.05 122.25 A 0.43 0.43 0.0 0 0 446.07 121.73 Z"
        fill="#ffffff" fill-opacity="1" />
    <path d="M 399.07 116.66 Q 400.36 118.64 398.39 121.19 A 1.60 1.56 10.6 0 1 397.53 121.76 Q 395.30 122.37 392.74 121.83 Q 392.05 121.69 391.85 121.39 Q 391.66 121.09 391.80 120.39 Q 392.33 117.83 393.78 116.03 A 1.60 1.56 -77.0 0 1 394.65 115.48 Q 397.78 114.69 399.07 116.66 Z"
        fill="#1b6b20" />
    <ellipse cx="0" cy="0" fill="#1b6b20" rx="6.03"
        ry="3.66" transform="rotate(-88.5 240.394 -122.231)" />
    <ellipse cx="0" cy="0" fill="#1b6b20" rx="6.03"
        ry="3.69" transform="rotate(-90.7 247.928 -125.002)" />
    <path d="M 130.78 146.79 Q 147.89 148.05 164.99 149.65 Q 170.93 150.21 191.76 149.97 Q 196.76 150.13 201.75 150.23 Q 209.51 150.38 211.57 151.23 Q 216.17 153.11 219.14 156.90 Q 220.71 158.90 221.88 165.82 Q 227.64 200.00 229.46 210.03 Q 234.63 238.54 237.12 254.19 Q 237.45 256.22 238.29 257.54 L 238.42 261.69 A 0.51 0.51 0.0 0 1 237.92 262.22 L 227.89 262.31 L 214.49 262.03 Q 213.07 262.54 211.73 262.03 A 1.16 1.11 86.9 0 1 211.09 261.43 L 209.65 258.37 Q 209.95 257.04 209.73 256.01 Q 201.96 219.21 195.04 187.15 A 0.98 0.97 83.7 0 0 194.09 186.38 L 189.75 186.38 A 1.01 1.01 0.0 0 0 188.76 187.21 L 176.11 256.35 L 173.95 267.17 A 0.86 0.85 87.2 0 1 173.37 267.82 Q 171.64 268.35 169.43 267.90 L 155.48 268.00 L 152.24 267.82 A 0.52 0.52 0.0 0 1 151.75 267.28 L 152.12 257.15 L 157.14 186.90 A 0.54 0.54 0.0 0 0 156.68 186.33 Q 148.42 185.12 139.86 183.99 Q 137.70 183.70 133.30 180.60 Q 125.93 174.69 125.85 166.06 Q 125.82 162.95 127.52 156.87 Q 128.84 152.17 129.72 147.43 A 0.89 0.87 -21.2 0 1 129.87 147.10 Q 130.30 146.53 130.78 146.79 Z"
        fill="#d9c1c1" fill-opacity="1" />
    <ellipse cx="0" cy="0" fill="#94465f" fill-opacity="1"
        rx="11.14" ry="7.93" transform="rotate(-170.8 145.949 90.007)" />
    <path d="M 245.58 210.08 Q 251.39 205.79 259.23 208.14 Q 264.88 209.83 266.74 210.63 Q 271.88 212.84 274.27 213.02 C 279.86 213.43 283.07 213.40 286.90 209.77 A 2.77 2.63 82.2 0 0 287.49 208.95 Q 287.70 208.49 289.62 204.78 C 291.45 201.24 295.98 198.71 299.42 198.55 C 309.92 198.07 317.08 206.34 314.46 216.75 C 312.74 223.62 309.13 230.90 303.92 235.63 Q 295.89 242.92 285.83 244.61 Q 265.15 248.10 250.08 233.69 Q 245.22 229.04 242.87 223.06 Q 240.39 216.74 244.64 211.02 A 4.51 4.51 0.0 0 1 245.58 210.08 Z"
        fill="#1b6b20" />
    <path d="M 586.57 245.27 Q 586.32 245.61 586.18 245.67 Q 579.20 248.97 571.31 250.34 L 582.39 198.65 A 0.17 0.17 0.0 0 1 582.72 198.68 L 586.57 245.27 Z"
        fill="#d9c1c1" fill-opacity="1" />
    <path d="M 707.28 296.79 C 700.52 291.52 702.07 280.24 706.72 274.42 Q 713.17 266.37 722.70 260.68 Q 736.23 252.61 749.53 249.95 Q 761.48 247.56 771.93 252.39 C 777.54 254.99 780.99 261.32 778.44 267.73 C 776.53 272.52 769.73 276.77 764.49 279.10 C 754.88 283.38 743.65 282.37 734.36 288.28 C 731.44 290.14 728.54 293.67 725.85 296.08 Q 716.78 304.22 707.28 296.79 Z"
        fill="#1b6b20" />
    <path d="M 209.65 258.37 L 211.09 261.43 A 1.16 1.11 86.9 0 0 211.73 262.03 Q 213.07 262.54 214.49 262.03 L 214.69 269.56 A 0.57 0.57 0.0 0 0 215.23 270.12 Q 219.13 270.36 222.89 268.68 A 2.29 2.24 -54.7 0 1 223.93 268.49 L 227.35 268.70 A 0.57 0.56 -88.1 0 0 227.95 268.13 L 227.89 262.31 L 237.92 262.22 A 0.51 0.51 0.0 0 0 238.42 261.69 L 238.29 257.54 L 238.42 258.20 A 0.38 0.38 0.0 0 0 239.16 258.20 L 239.21 257.94 A 0.76 0.76 0.0 0 1 239.98 257.32 Q 280.59 258.29 320.45 263.58 C 330.76 264.95 340.57 267.02 350.63 269.40 Q 359.93 271.60 367.54 275.21 C 370.98 276.84 375.33 279.79 373.35 284.29 C 372.03 287.29 366.64 289.52 362.17 291.36 Q 355.54 294.09 340.72 297.13 Q 327.41 299.85 310.03 302.01 Q 291.39 304.32 270.74 305.64 Q 193.82 310.52 119.52 305.78 Q 108.14 305.06 99.49 304.25 Q 83.78 302.77 79.50 302.27 C 66.34 300.73 49.18 298.06 33.25 293.76 Q 25.63 291.71 19.85 288.66 C 11.13 284.07 13.25 278.53 20.96 274.95 Q 27.01 272.14 33.63 270.39 C 44.70 267.48 56.25 265.11 67.92 263.56 Q 105.00 258.64 142.31 257.44 Q 142.67 257.43 147.22 257.48 Q 149.86 257.51 152.12 257.15 L 151.75 267.28 A 0.52 0.52 0.0 0 0 152.24 267.82 L 155.48 268.00 L 153.66 275.94 A 0.51 0.51 0.0 0 0 154.06 276.56 Q 157.74 277.29 159.32 276.67 Q 163.35 275.08 166.23 276.05 A 1.28 1.27 15.3 0 0 167.88 275.11 L 169.43 267.90 Q 171.64 268.35 173.37 267.82 A 0.86 0.85 87.2 0 0 173.95 267.17 L 176.11 256.35 Q 189.39 255.85 202.63 256.12 Q 207.49 256.22 209.65 258.37 Z M 150.95 258.66 Q 151.10 258.54 151.12 258.51 A 0.10 0.10 0.0 0 0 151.00 258.37 Q 150.92 258.39 150.88 258.48 A 0.12 0.07 -82.7 0 0 150.95 258.66 Z M 248.8790 281.6475 A 0.90 0.90 0.0 0 0 248.0832 280.6541 L 212.2409 276.6971 A 0.90 0.90 0.0 0 0 211.2476 277.4929 L 211.2410 277.5525 A 0.90 0.90 0.0 0 0 212.0368 278.5459 L 247.8791 282.5029 A 0.90 0.90 0.0 0 0 248.8724 281.7071 L 248.8790 281.6475 Z M 186.6168 291.2198 A 0.91 0.91 0.0 0 0 185.9103 290.1442 L 150.6191 282.8357 A 0.91 0.91 0.0 0 0 149.5435 283.5423 L 149.5232 283.6402 A 0.91 0.91 0.0 0 0 150.2297 284.7158 L 185.5209 292.0243 A 0.91 0.91 0.0 0 0 186.5965 291.3177 L 186.6168 291.2198 Z"
        fill="#E8C6CC" />
    <path d="M227.89 262.31 227.95 268.13A.57.56-88.1 0 1 227.35 268.7L223.93 268.49A2.29 2.24-54.7 0 0 222.89 268.68Q219.13 270.36 215.23 270.12A.57.57 0 0 1 214.69 269.56L214.49 262.03 227.89 262.31ZM169.43 267.9 167.88 275.11A1.28 1.27 15.3 0 1 166.23 276.05Q163.35 275.08 159.32 276.67 157.74 277.29 154.06 276.56A.51.51 0 0 1 153.66 275.94L155.48 268 169.43 267.9Z"
        fill="#94465f" fill-opacity="1" />
    <rect fill="#ffffff" fill-opacity="1" height="1.86"
        rx=".9" transform="rotate(6.3 -2425.249 2229.988)" width="37.86" x="-18.93" y="-.93" />
    <path d="M561.43 282.94Q558.12 282.8 556.04 281.63 552.55 279.67 549.18 280.17A.72.72 0 0 1 548.37 279.33L548.62 277.98A.94.93 5.2 0 1 549.54 277.22L562.33 277.22A.39.38 5 0 1 562.71 277.67L561.78 282.67A.33.33 0 0 1 561.43 282.94ZM604.34 284.78Q599.99 284.39 598.79 283.51 595.53 281.13 591.33 281.73A.53.52 85.8 0 1 590.73 281.2L590.73 280.8A.8.8 0 0 1 591.53 280L604.25 280A.66.65-90 0 1 604.9 280.66L604.9 284.27A.51.51 0 0 1 604.34 284.78Z"
        fill="#94465f" fill-opacity="1" />
    <rect fill="#ffffff" fill-opacity="1" height="1.92"
        rx=".91" transform="rotate(11.7 -1318.637 963.904)" width="37.86" x="-18.93" y="-.96" />
</svg>