<svg height="257.00" version="1.1" viewBox="0.00 0.00 969.00 257.00"
    width="969.00" xmlns="http://www.w3.org/2000/svg">
    <g fill="none" stroke-linecap="butt" stroke-width="2.00">
        <path d="&#10;  M 326.53 222.07&#10;  L 326.84 222.57" stroke="#b879a7"
            vector-effect="non-scaling-stroke" />
        <path d="&#10;  M 302.79 192.45&#10;  Q 302.64 192.14 302.30 192.03" stroke="#b879a7"
            vector-effect="non-scaling-stroke" />
        <path d="&#10;  M 235.70 23.54&#10;  L 234.03 23.61&#10;  A 0.90 0.89 80.8 0 1 233.12 22.95&#10;  Q 232.69 21.25 229.88 21.91&#10;  A 1.21 1.20 8.4 0 0 229.12 22.47&#10;  Q 225.84 28.22 220.15 24.23&#10;  A 0.72 0.72 0.0 0 0 219.21 24.33&#10;  Q 215.05 28.74 209.87 26.24&#10;  A 0.59 0.58 24.5 0 0 209.07 26.53&#10;  Q 207.80 29.46 204.76 29.06&#10;  A 2.11 2.08 -18.8 0 1 203.56 28.48&#10;  Q 201.06 26.03 197.82 25.84&#10;  A 0.98 0.98 0.0 0 1 196.90 24.76&#10;  Q 197.48 19.34 198.93 15.17&#10;  Q 201.16 8.70 207.29 6.17&#10;  Q 211.38 4.48 215.91 2.94" stroke="#b879a7"
            vector-effect="non-scaling-stroke" />
        <path d="&#10;  M 226.87 68.71&#10;  Q 225.91 74.34 219.97 75.44&#10;  C 211.55 76.99 200.26 74.83 198.81 64.44" stroke="#b879a7"
            vector-effect="non-scaling-stroke" />
        <path d="&#10;  M 191.59 26.36&#10;  Q 191.95 26.13 192.15 25.83&#10;  Q 192.32 25.57 192.29 25.12&#10;  Q 191.90 18.45 193.56 11.93" stroke="#b879a7"
            vector-effect="non-scaling-stroke" />
        <path d="&#10;  M 142.42 44.52&#10;  C 143.08 41.13 143.06 35.86 140.46 33.30&#10;  Q 139.11 31.97 136.03 30.10" stroke="#b879a7"
            vector-effect="non-scaling-stroke" />
        <path d="&#10;  M 153.29 83.75&#10;  L 170.24 100.37&#10;  A 0.74 0.74 0.0 0 1 170.46 101.00&#10;  Q 170.33 102.02 168.87 102.71" stroke="#b879a7"
            vector-effect="non-scaling-stroke" />
        <path d="&#10;  M 275.51 92.33&#10;  Q 273.06 83.25 271.92 73.54" stroke="#b879a7"
            vector-effect="non-scaling-stroke" />
        <path d="&#10;  M 232.21 156.17&#10;  Q 223.62 156.01 215.04 156.14&#10;  Q 204.98 156.30 187.59 154.61&#10;  Q 177.64 153.64 172.78 153.30&#10;  Q 165.26 152.76 157.95 152.34" stroke="#928bc8"
            vector-effect="non-scaling-stroke" />
        <path d="&#10;  M 706.06 135.56&#10;  L 710.76 146.60&#10;  A 0.97 0.94 83.7 0 0 711.44 147.16&#10;  L 712.14 147.30" stroke="#928bc8"
            vector-effect="non-scaling-stroke" />
        <path d="&#10;  M 707.80 170.47&#10;  Q 704.81 168.95 703.70 168.06&#10;  Q 700.05 165.13 699.55 160.73&#10;  Q 699.19 157.55 699.87 153.93" stroke="#d9cbde"
            vector-effect="non-scaling-stroke" />
        <path d="&#10;  M 699.87 153.93&#10;  Q 702.09 149.20 705.86 148.00&#10;  A 0.59 0.58 -23.5 0 0 706.20 147.15&#10;  Q 704.80 144.64 703.43 142.29&#10;  Q 696.23 129.94 681.10 131.95" stroke="#928bc8"
            vector-effect="non-scaling-stroke" />
        <path d="&#10;  M 699.87 153.93&#10;  C 696.05 152.76 694.59 150.22 693.95 146.84&#10;  A 0.89 0.88 64.7 0 0 692.51 146.32&#10;  Q 683.49 153.92 671.55 157.97" stroke="#b879a7"
            vector-effect="non-scaling-stroke" />
        <path d="&#10;  M 671.55 157.97&#10;  Q 669.36 157.97 667.90 158.91" stroke="#928bc8"
            vector-effect="non-scaling-stroke" />
        <path d="&#10;  M 169.10 197.40&#10;  Q 177.44 198.34 185.93 199.45&#10;  Q 187.58 199.67 188.91 200.28&#10;  A 1.32 1.31 14.3 0 1 189.68 201.56&#10;  L 186.03 257.00" stroke="#928bc8"
            vector-effect="non-scaling-stroke" />
        <path d="&#10;  M 714.22 188.81&#10;  Q 713.02 189.00 711.85 192.35&#10;  Q 711.59 193.12 708.55 196.07&#10;  C 704.96 199.55 697.14 199.86 692.93 199.07&#10;  Q 686.74 197.91 684.22 191.82" stroke="#d9cbde"
            vector-effect="non-scaling-stroke" />
        <path d="&#10;  M 678.11 173.76&#10;  L 671.55 157.97" stroke="#d9cbde"
            vector-effect="non-scaling-stroke" />
        <path d="&#10;  M 968.09 226.40&#10;  L 968.21 188.52" stroke="#b879a7"
            vector-effect="non-scaling-stroke" />
        <path d="&#10;  M 744.53 249.55&#10;  L 745.64 257.00" stroke="#928bc8"
            vector-effect="non-scaling-stroke" />
        <path d="&#10;  M 672.44 257.00&#10;  L 671.49 241.29&#10;  A 1.63 1.61 9.2 0 0 670.46 239.88&#10;  L 660.11 235.87" stroke="#d9cbde"
            vector-effect="non-scaling-stroke" />
        <path d="&#10;  M 659.63 223.84&#10;  L 662.81 222.21&#10;  A 0.82 0.81 -41.1 0 0 662.91 220.82&#10;  Q 660.89 219.37 660.10 217.44" stroke="#928bc8"
            vector-effect="non-scaling-stroke" />
        <path d="&#10;  M 663.81 203.60&#10;  Q 666.12 203.83 668.07 205.04&#10;  Q 668.24 205.15 668.46 205.15&#10;  Q 668.72 205.15 668.87 205.06&#10;  A 0.84 0.84 0.0 0 1 669.69 205.02&#10;  C 671.13 205.71 673.53 207.28 675.02 208.64&#10;  Q 683.08 216.00 690.32 222.06&#10;  C 694.16 225.28 696.79 227.91 701.36 232.13&#10;  Q 704.22 234.78 707.32 238.69&#10;  C 709.95 242.01 712.53 244.45 716.01 247.99&#10;  Q 717.92 249.93 719.36 250.13&#10;  Q 727.89 251.29 734.90 246.05&#10;  A 2.38 2.29 -4.8 0 0 735.54 245.32&#10;  Q 737.57 241.73 737.61 240.77&#10;  Q 737.96 233.49 735.69 225.21&#10;  A 1.28 1.27 -10.2 0 0 734.34 224.28&#10;  C 728.64 224.85 725.77 225.75 721.56 222.44&#10;  Q 719.08 220.48 710.45 215.02&#10;  Q 710.28 214.91 710.00 214.89&#10;  Q 709.74 214.86 709.51 214.72&#10;  Q 698.44 207.99 685.94 202.85&#10;  Q 678.08 199.61 671.05 194.45" stroke="#d9cbde"
            vector-effect="non-scaling-stroke" />
        <path d="&#10;  M 648.04 228.51&#10;  Q 643.50 230.18 638.69 232.40&#10;  Q 638.32 232.57 637.73 233.53" stroke="#b879a7"
            vector-effect="non-scaling-stroke" />
    </g>
    <path d="&#10;  M 235.70 23.54&#10;  L 234.03 23.61&#10;  A 0.90 0.89 80.8 0 1 233.12 22.95&#10;  Q 232.69 21.25 229.88 21.91&#10;  A 1.21 1.20 8.4 0 0 229.12 22.47&#10;  Q 225.84 28.22 220.15 24.23&#10;  A 0.72 0.72 0.0 0 0 219.21 24.33&#10;  Q 215.05 28.74 209.87 26.24&#10;  A 0.59 0.58 24.5 0 0 209.07 26.53&#10;  Q 207.80 29.46 204.76 29.06&#10;  A 2.11 2.08 -18.8 0 1 203.56 28.48&#10;  Q 201.06 26.03 197.82 25.84&#10;  A 0.98 0.98 0.0 0 1 196.90 24.76&#10;  Q 197.48 19.34 198.93 15.17&#10;  Q 201.16 8.70 207.29 6.17&#10;  Q 211.38 4.48 215.91 2.94&#10;  L 222.46 2.18&#10;  A 3.63 3.45 46.5 0 1 223.64 2.24&#10;  C 225.00 2.54 226.31 3.18 227.79 2.77&#10;  C 230.97 1.89 233.34 2.84 235.22 5.56&#10;  C 237.08 8.26 240.37 7.25 241.64 11.15&#10;  A 1.51 1.47 48.4 0 1 241.59 12.22&#10;  L 240.32 15.17&#10;  A 2.72 2.59 58.4 0 0 240.11 16.16&#10;  Q 240.03 20.59 236.08 21.66&#10;  A 0.68 0.67 -10.8 0 0 235.58 22.39&#10;  L 235.70 23.54&#10;  Z"
        fill="#713991" />
    <path d="&#10;  M 215.91 2.94&#10;  Q 211.38 4.48 207.29 6.17&#10;  Q 201.16 8.70 198.93 15.17&#10;  Q 197.48 19.34 196.90 24.76&#10;  A 0.98 0.98 0.0 0 0 197.82 25.84&#10;  Q 201.06 26.03 203.56 28.48&#10;  A 2.11 2.08 -18.8 0 0 204.76 29.06&#10;  Q 207.80 29.46 209.07 26.53&#10;  A 0.59 0.58 24.5 0 1 209.87 26.24&#10;  Q 215.05 28.74 219.21 24.33&#10;  A 0.72 0.72 0.0 0 1 220.15 24.23&#10;  Q 225.84 28.22 229.12 22.47&#10;  A 1.21 1.20 8.4 0 1 229.88 21.91&#10;  Q 232.69 21.25 233.12 22.95&#10;  A 0.90 0.89 80.8 0 0 234.03 23.61&#10;  L 235.70 23.54&#10;  Q 235.64 23.93 235.91 24.32&#10;  A 0.95 0.94 -5.3 0 0 236.34 24.67&#10;  C 240.29 26.24 242.95 31.03 241.44 35.02&#10;  Q 239.26 40.74 233.19 41.27&#10;  A 0.86 0.85 -89.6 0 0 232.42 42.04&#10;  Q 231.93 47.70 224.11 52.03&#10;  A 2.44 2.41 78.7 0 0 222.87 53.91&#10;  L 221.58 66.35&#10;  A 0.70 0.69 12.6 0 0 222.05 67.08&#10;  L 226.87 68.71&#10;  Q 225.91 74.34 219.97 75.44&#10;  C 211.55 76.99 200.26 74.83 198.81 64.44&#10;  Q 201.27 64.83 203.63 64.23&#10;  A 1.19 1.19 0.0 0 0 204.51 63.28&#10;  L 206.61 51.74&#10;  A 1.63 1.61 -52.4 0 0 206.49 50.78&#10;  Q 205.99 49.69 203.95 48.09&#10;  Q 203.21 47.50 202.03 47.95&#10;  C 197.95 49.52 194.11 49.10 190.99 45.82&#10;  Q 186.22 40.82 186.74 34.24&#10;  Q 187.11 29.56 191.59 26.36&#10;  Q 191.95 26.13 192.15 25.83&#10;  Q 192.32 25.57 192.29 25.12&#10;  Q 191.90 18.45 193.56 11.93&#10;  Q 194.82 10.59 195.85 8.85&#10;  A 3.60 2.95 88.8 0 1 196.33 8.24&#10;  Q 204.28 0.30 215.91 2.94&#10;  Z"
        fill="#ffb8bc" />
    <path d="&#10;  M 193.56 11.93&#10;  Q 191.90 18.45 192.29 25.12&#10;  Q 192.32 25.57 192.15 25.83&#10;  Q 191.95 26.13 191.59 26.36&#10;  L 191.35 25.63&#10;  A 1.21 1.19 -86.6 0 0 190.73 24.92&#10;  C 187.54 23.39 186.61 20.36 188.93 17.62&#10;  Q 190.00 16.36 189.55 14.58&#10;  A 1.36 1.34 59.2 0 1 189.86 13.32&#10;  Q 191.31 11.71 193.56 11.93&#10;  Z"
        fill="#713991" />
    <path d="&#10;  M 623.2452 87.5199&#10;  A 131.93 104.06 -14.1 0 1 520.6406 220.5849&#10;  A 131.93 104.06 -14.1 0 1 367.3348 151.8001&#10;  A 131.93 104.06 -14.1 0 1 469.9394 18.7351&#10;  A 131.93 104.06 -14.1 0 1 623.2452 87.5199&#10;  Z&#10;  M 564.20 107.53&#10;  A 3.02 3.02 0.0 0 0 561.18 104.51&#10;  A 3.02 3.02 0.0 0 0 558.16 107.53&#10;  A 3.02 3.02 0.0 0 0 561.18 110.55&#10;  A 3.02 3.02 0.0 0 0 564.20 107.53&#10;  Z&#10;  M 492.51 113.59&#10;  C 485.50 109.09 478.24 113.70 478.36 121.77&#10;  Q 478.43 126.26 480.40 128.41&#10;  C 483.94 132.29 491.16 132.93 493.61 127.80&#10;  A 0.46 0.46 0.0 0 1 494.45 127.81&#10;  Q 495.21 129.50 496.36 130.72&#10;  A 1.20 1.11 41.8 0 0 498.14 130.69&#10;  Q 498.37 130.38 498.37 129.94&#10;  Q 498.37 106.32 498.38 106.00&#10;  A 0.87 0.87 0.0 0 0 497.51 105.08&#10;  L 493.90 105.10&#10;  A 0.82 0.82 0.0 0 0 493.08 105.92&#10;  L 493.08 113.28&#10;  A 0.37 0.37 0.0 0 1 492.51 113.59&#10;  Z&#10;  M 414.59 125.46&#10;  L 420.31 125.46&#10;  A 0.89 0.89 0.0 0 0 421.20 124.57&#10;  L 421.20 123.80&#10;  A 1.01 1.01 0.0 0 0 420.19 122.79&#10;  L 414.63 122.79&#10;  A 0.68 0.68 0.0 0 1 413.95 122.14&#10;  C 413.70 116.46 413.20 111.27 418.66 109.55&#10;  A 2.13 2.11 -39.0 0 1 420.34 109.72&#10;  Q 422.97 111.18 423.29 112.29&#10;  C 424.74 117.22 424.35 123.00 423.42 127.93&#10;  C 423.06 129.87 421.84 132.10 421.27 134.00&#10;  A 1.57 1.57 0.0 0 0 423.93 135.52&#10;  Q 429.96 128.98 430.26 120.02&#10;  C 430.79 104.68 411.02 101.81 407.53 117.08&#10;  A 0.54 0.47 -40.9 0 0 407.51 117.22&#10;  L 407.44 130.00&#10;  A 0.99 0.99 0.0 0 0 408.43 130.99&#10;  L 413.19 130.99&#10;  A 0.74 0.73 90.0 0 0 413.92 130.25&#10;  L 413.92 126.13&#10;  A 0.67 0.67 0.0 0 1 414.59 125.46&#10;  Z&#10;  M 433.24 121.42&#10;  Q 433.17 125.43 436.01 128.51&#10;  C 439.91 132.74 448.38 132.69 451.63 127.13&#10;  A 0.57 0.57 0.0 0 0 451.25 126.28&#10;  L 450.06 126.03&#10;  A 0.70 0.69 -65.4 0 0 449.35 126.30&#10;  Q 446.72 129.96 442.92 129.06&#10;  A 2.55 2.39 66.7 0 1 442.13 128.72&#10;  C 439.32 126.85 438.86 124.56 438.91 121.52&#10;  C 438.96 118.47 439.50 116.20 442.38 114.44&#10;  A 2.55 2.39 -64.8 0 1 443.17 114.12&#10;  Q 447.00 113.35 449.51 117.10&#10;  A 0.70 0.69 67.3 0 0 450.21 117.39&#10;  L 451.40 117.18&#10;  A 0.57 0.57 0.0 0 0 451.81 116.35&#10;  C 448.75 110.68 440.29 110.34 436.25 114.44&#10;  Q 433.31 117.41 433.24 121.42&#10;  Z&#10;  M 469.08 130.16&#10;  L 469.41 130.64&#10;  A 0.76 0.73 -17.2 0 0 470.02 130.95&#10;  L 474.21 130.95&#10;  A 0.47 0.46 0.0 0 0 474.68 130.49&#10;  L 474.68 113.30&#10;  A 1.33 1.32 60.1 0 0 472.21 112.63&#10;  L 470.39 115.76&#10;  A 0.45 0.45 0.0 0 1 469.59 115.71&#10;  Q 467.48 110.87 461.76 111.83&#10;  Q 456.26 112.74 454.70 118.47&#10;  Q 453.41 123.25 455.60 127.01&#10;  C 458.33 131.68 463.75 132.65 468.23 129.98&#10;  A 0.64 0.64 0.0 0 1 469.08 130.16&#10;  Z&#10;  M 519.83 126.05&#10;  A 1.82 1.79 23.8 0 0 518.15 126.69&#10;  Q 514.60 131.04 510.39 128.37&#10;  A 2.22 2.07 0.5 0 1 509.79 127.80&#10;  L 508.15 125.46&#10;  A 0.86 0.85 -11.2 0 1 509.04 124.14&#10;  C 514.41 125.33 523.40 123.86 521.40 116.43&#10;  A 3.13 3.10 18.2 0 0 520.82 115.29&#10;  Q 517.73 111.39 511.73 111.71&#10;  C 502.27 112.21 499.48 122.28 505.12 128.97&#10;  A 3.03 3.02 -4.8 0 0 505.89 129.62&#10;  C 510.42 132.31 517.74 132.34 520.61 127.24&#10;  A 0.78 0.78 0.0 0 0 520.06 126.09&#10;  L 519.83 126.05&#10;  Z&#10;  M 528.95 115.80&#10;  L 527.23 112.52&#10;  A 1.03 1.02 33.2 0 0 525.30 112.92&#10;  C 525.13 115.46 525.29 121.08 525.30 130.27&#10;  A 0.70 0.70 0.0 0 0 526.00 130.96&#10;  L 529.86 130.96&#10;  A 0.73 0.73 0.0 0 0 530.59 130.23&#10;  Q 530.56 124.56 530.60 120.52&#10;  Q 530.64 116.66 532.39 114.84&#10;  A 1.40 1.39 21.0 0 1 533.34 114.42&#10;  Q 536.50 114.33 536.77 117.79&#10;  Q 536.99 120.63 536.92 130.21&#10;  A 0.72 0.72 0.0 0 0 537.64 130.94&#10;  L 541.70 130.94&#10;  A 0.75 0.75 0.0 0 0 542.45 130.18&#10;  C 542.41 127.69 540.91 112.51 546.75 114.53&#10;  C 551.72 116.24 548.10 129.72 546.65 133.22&#10;  A 1.11 1.11 0.0 0 0 547.66 134.75&#10;  L 547.72 134.75&#10;  A 2.63 2.60 17.0 0 0 549.97 133.57&#10;  C 553.40 128.34 557.08 119.69 552.85 113.99&#10;  Q 551.68 112.42 549.93 111.99&#10;  Q 544.20 110.61 541.99 114.99&#10;  A 0.51 0.51 0.0 0 1 541.06 114.95&#10;  C 540.42 113.39 539.82 112.60 538.12 112.09&#10;  Q 532.09 110.30 529.46 115.79&#10;  A 0.29 0.28 43.6 0 1 528.95 115.80&#10;  Z&#10;  M 563.87 112.58&#10;  A 0.45 0.45 0.0 0 0 563.42 112.13&#10;  L 559.00 112.13&#10;  A 0.45 0.45 0.0 0 0 558.55 112.58&#10;  L 558.55 130.56&#10;  A 0.45 0.45 0.0 0 0 559.00 131.01&#10;  L 563.42 131.01&#10;  A 0.45 0.45 0.0 0 0 563.87 130.56&#10;  L 563.87 112.58&#10;  Z&#10;  M 573.79 122.11&#10;  A 0.49 0.49 0.0 0 1 573.77 122.71&#10;  L 567.49 130.20&#10;  A 0.49 0.49 0.0 0 0 567.86 131.00&#10;  L 570.02 131.00&#10;  A 0.49 0.49 0.0 0 0 570.40 130.83&#10;  L 575.16 125.16&#10;  A 0.49 0.49 0.0 0 1 575.94 125.19&#10;  L 579.84 130.77&#10;  A 0.49 0.49 0.0 0 0 580.25 130.98&#10;  L 584.52 130.98&#10;  A 0.49 0.49 0.0 0 0 584.92 130.21&#10;  L 578.49 121.02&#10;  A 0.49 0.49 0.0 0 1 578.51 120.42&#10;  L 584.79 112.93&#10;  A 0.49 0.49 0.0 0 0 584.41 112.13&#10;  L 582.25 112.13&#10;  A 0.49 0.49 0.0 0 0 581.87 112.31&#10;  L 577.12 117.98&#10;  A 0.49 0.49 0.0 0 1 576.34 117.95&#10;  L 572.44 112.37&#10;  A 0.49 0.49 0.0 0 0 572.03 112.16&#10;  L 567.75 112.16&#10;  A 0.49 0.49 0.0 0 0 567.35 112.93&#10;  L 573.79 122.11&#10;  Z"
        fill="#1b6b20" />
    <path d="&#10;  M 142.42 44.52&#10;  C 143.08 41.13 143.06 35.86 140.46 33.30&#10;  Q 139.11 31.97 136.03 30.10&#10;  Q 138.35 25.77 142.12 23.12&#10;  C 144.03 21.78 148.45 19.29 152.72 16.20&#10;  C 156.56 13.42 161.43 13.58 165.39 16.23&#10;  C 167.85 17.86 171.19 19.95 172.34 22.98&#10;  A 1.66 1.63 -47.7 0 1 172.38 24.04&#10;  Q 171.35 27.57 167.53 27.72&#10;  A 2.22 2.09 -34.5 0 1 166.76 27.60&#10;  L 162.41 26.13&#10;  A 0.55 0.55 0.0 0 0 161.68 26.57&#10;  Q 161.04 30.81 156.97 30.21&#10;  Q 154.84 29.89 154.17 30.53&#10;  A 1.16 1.13 -26.6 0 0 153.83 31.51&#10;  Q 154.19 34.09 151.97 35.35&#10;  Q 150.37 36.25 149.30 35.62&#10;  A 0.63 0.63 0.0 0 0 148.37 36.29&#10;  Q 149.15 39.87 148.20 42.71&#10;  A 1.61 1.54 84.2 0 1 147.57 43.52&#10;  Q 145.27 44.98 142.42 44.52&#10;  Z"
        fill="#713991" />
    <path d="&#10;  M 136.03 30.10&#10;  Q 139.11 31.97 140.46 33.30&#10;  C 143.06 35.86 143.08 41.13 142.42 44.52&#10;  C 141.86 47.20 141.38 49.86 140.22 52.41&#10;  Q 139.39 54.22 139.55 55.25&#10;  Q 142.19 72.13 145.34 89.31&#10;  A 0.68 0.68 0.0 0 0 146.46 89.70&#10;  L 153.29 83.75&#10;  L 170.24 100.37&#10;  A 0.74 0.74 0.0 0 1 170.46 101.00&#10;  Q 170.33 102.02 168.87 102.71&#10;  Q 158.27 111.56 152.18 114.40&#10;  C 148.40 116.17 137.94 117.70 132.93 114.23&#10;  C 127.99 110.81 126.08 104.68 126.61 98.49&#10;  Q 129.54 64.33 131.19 30.11&#10;  A 0.57 0.57 0.0 0 1 131.83 29.57&#10;  L 136.03 30.10&#10;  Z"
        fill="#ffb8bc" />
    <path d="&#10;  M 275.51 92.33&#10;  Q 273.06 83.25 271.92 73.54&#10;  L 286.15 74.47&#10;  A 1.20 1.10 55.6 0 1 286.54 74.56&#10;  L 289.37 75.70&#10;  A 1.96 1.95 42.0 0 0 290.97 75.62&#10;  L 328.71 55.80&#10;  A 4.87 4.82 4.4 0 0 330.35 54.41&#10;  C 337.00 45.73 348.18 40.99 357.64 48.85&#10;  Q 358.62 49.66 359.10 50.81&#10;  A 0.27 0.26 67.8 0 1 358.96 51.16&#10;  L 340.54 58.96&#10;  A 3.44 3.27 10.0 0 0 339.50 59.65&#10;  Q 338.36 60.65 310.57 86.96&#10;  Q 305.86 91.42 305.23 91.84&#10;  C 302.23 93.81 298.55 94.26 295.11 93.08&#10;  Q 293.29 92.46 291.99 93.62&#10;  A 1.59 1.58 -62.4 0 1 290.76 94.01&#10;  L 275.51 92.33&#10;  Z"
        fill="#ffb8bc" />
    <path d="&#10;  M 198.81 64.44&#10;  C 200.26 74.83 211.55 76.99 219.97 75.44&#10;  Q 225.91 74.34 226.87 68.71&#10;  Q 228.45 68.80 230.62 69.71&#10;  Q 231.57 70.11 233.39 69.78&#10;  Q 235.33 69.44 236.16 69.39&#10;  Q 253.03 68.28 270.78 69.92&#10;  A 0.52 0.51 86.7 0 1 271.22 70.32&#10;  L 271.92 73.54&#10;  Q 273.06 83.25 275.51 92.33&#10;  L 276.54 98.08&#10;  A 0.49 0.49 0.0 0 1 275.96 98.64&#10;  L 242.03 91.47&#10;  A 0.53 0.52 -80.1 0 0 241.41 91.91&#10;  L 232.21 156.17&#10;  Q 223.62 156.01 215.04 156.14&#10;  Q 204.98 156.30 187.59 154.61&#10;  Q 177.64 153.64 172.78 153.30&#10;  Q 165.26 152.76 157.95 152.34&#10;  L 168.87 102.71&#10;  Q 170.33 102.02 170.46 101.00&#10;  A 0.74 0.74 0.0 0 0 170.24 100.37&#10;  L 153.29 83.75&#10;  L 150.21 81.12&#10;  A 0.43 0.42 -43.4 0 1 150.23 80.46&#10;  Q 162.01 71.53 173.98 64.84&#10;  Q 179.54 61.74 186.02 64.47&#10;  A 2.30 2.28 56.0 0 0 186.98 64.66&#10;  L 198.81 64.44&#10;  Z"
        fill="#713991" />
    <path d="&#10;  M 507.89 121.70&#10;  Q 507.66 116.31 511.16 114.59&#10;  C 516.22 112.10 518.79 118.49 515.40 121.88&#10;  A 1.82 1.78 -73.0 0 1 514.50 122.37&#10;  Q 511.77 122.94 508.48 122.38&#10;  A 0.72 0.71 -86.0 0 1 507.89 121.70&#10;  Z"
        fill="#1b6b20" />
    <ellipse cx="0.00" cy="0.00" fill="#1b6b20" rx="7.40"
        ry="4.62" transform="translate(464.46,121.60) rotate(-89.2)" />
    <ellipse cx="0.00" cy="0.00" fill="#1b6b20" rx="7.38"
        ry="4.73" transform="translate(488.43,121.75) rotate(-90.7)" />
    <path d="&#10;  M 706.06 135.56&#10;  L 710.76 146.60&#10;  A 0.97 0.94 83.7 0 0 711.44 147.16&#10;  L 712.14 147.30&#10;  Q 715.86 148.25 717.20 150.02&#10;  Q 723.16 157.92 718.40 166.53&#10;  A 3.58 3.44 82.5 0 1 717.84 167.29&#10;  Q 714.06 171.27 707.80 170.47&#10;  Q 704.81 168.95 703.70 168.06&#10;  Q 700.05 165.13 699.55 160.73&#10;  Q 699.19 157.55 699.87 153.93&#10;  Q 702.09 149.20 705.86 148.00&#10;  A 0.59 0.58 -23.5 0 0 706.20 147.15&#10;  Q 704.80 144.64 703.43 142.29&#10;  Q 696.23 129.94 681.10 131.95&#10;  Q 694.08 123.94 706.06 135.56&#10;  Z"
        fill="#b3ddff" />
    <path d="&#10;  M 699.87 153.93&#10;  C 696.05 152.76 694.59 150.22 693.95 146.84&#10;  A 0.89 0.88 64.7 0 0 692.51 146.32&#10;  Q 683.49 153.92 671.55 157.97&#10;  Q 669.36 157.97 667.90 158.91&#10;  Q 663.64 160.08 661.06 156.91&#10;  C 657.02 151.92 659.23 144.16 663.59 140.13&#10;  Q 668.58 135.50 673.19 134.40&#10;  Q 678.94 133.04 681.10 131.95&#10;  Q 696.23 129.94 703.43 142.29&#10;  Q 704.80 144.64 706.20 147.15&#10;  A 0.59 0.58 -23.5 0 1 705.86 148.00&#10;  Q 702.09 149.20 699.87 153.93&#10;  Z"
        fill="#713991" />
    <path d="&#10;  M 712.14 147.30&#10;  L 711.44 147.16&#10;  A 0.97 0.94 83.7 0 1 710.76 146.60&#10;  L 706.06 135.56&#10;  Q 710.78 137.12 711.50 142.45&#10;  Q 711.83 144.87 712.14 147.30&#10;  Z"
        fill="#713991" />
    <path d="&#10;  M 169.10 197.40&#10;  Q 177.44 198.34 185.93 199.45&#10;  Q 187.58 199.67 188.91 200.28&#10;  A 1.32 1.31 14.3 0 1 189.68 201.56&#10;  L 186.03 257.00&#10;  L 144.51 257.00&#10;  Q 148.60 247.98 143.53 240.67&#10;  Q 140.78 236.69 137.75 235.13&#10;  C 135.09 233.76 131.68 232.09 128.04 231.35&#10;  Q 120.83 229.87 115.73 228.92&#10;  Q 108.01 227.47 103.71 225.71&#10;  C 90.29 220.21 79.33 208.39 77.06 194.23&#10;  Q 74.72 179.70 84.79 167.22&#10;  Q 93.47 156.46 107.37 147.60&#10;  Q 109.32 146.36 112.22 145.12&#10;  Q 116.72 143.19 117.28 143.02&#10;  Q 126.63 140.26 134.45 143.23&#10;  Q 140.92 145.69 144.65 150.07&#10;  C 148.95 155.11 151.00 162.28 151.31 168.81&#10;  C 151.58 174.59 150.32 178.78 149.64 185.01&#10;  C 148.29 197.29 159.78 198.23 169.10 197.40&#10;  Z"
        fill="#713991" />
    <path d="&#10;  M 699.87 153.93&#10;  Q 699.19 157.55 699.55 160.73&#10;  Q 700.05 165.13 703.70 168.06&#10;  Q 704.81 168.95 707.80 170.47&#10;  L 706.37 174.22&#10;  A 3.45 3.43 52.3 0 0 706.17 175.81&#10;  L 707.41 187.60&#10;  A 0.74 0.74 0.0 0 0 707.94 188.24&#10;  Q 711.20 189.14 714.22 188.81&#10;  Q 713.02 189.00 711.85 192.35&#10;  Q 711.59 193.12 708.55 196.07&#10;  C 704.96 199.55 697.14 199.86 692.93 199.07&#10;  Q 686.74 197.91 684.22 191.82&#10;  L 689.20 190.54&#10;  A 0.78 0.78 0.0 0 0 689.79 189.78&#10;  L 689.79 181.58&#10;  A 0.79 0.79 0.0 0 0 689.25 180.83&#10;  Q 685.04 179.50 684.18 179.10&#10;  Q 679.90 177.14 678.11 173.76&#10;  L 671.55 157.97&#10;  Q 683.49 153.92 692.51 146.32&#10;  A 0.89 0.88 64.7 0 1 693.95 146.84&#10;  C 694.59 150.22 696.05 152.76 699.87 153.93&#10;  Z"
        fill="#ffb8bc" />
    <path d="&#10;  M 157.95 152.34&#10;  Q 165.26 152.76 172.78 153.30&#10;  Q 177.64 153.64 187.59 154.61&#10;  Q 204.98 156.30 215.04 156.14&#10;  Q 223.62 156.01 232.21 156.17&#10;  Q 239.79 156.30 247.38 156.30&#10;  Q 252.37 156.30 255.45 157.33&#10;  Q 260.03 158.85 262.54 161.15&#10;  Q 265.02 163.43 267.18 168.00&#10;  A 5.13 4.85 29.3 0 1 267.56 169.22&#10;  L 282.82 257.00&#10;  L 248.12 257.00&#10;  L 235.91 200.73&#10;  A 0.85 0.83 83.4 0 0 235.10 200.07&#10;  L 229.36 200.07&#10;  A 0.88 0.87 -84.9 0 0 228.50 200.79&#10;  L 217.95 257.00&#10;  L 186.03 257.00&#10;  L 189.68 201.56&#10;  A 1.32 1.31 14.3 0 0 188.91 200.28&#10;  Q 187.58 199.67 185.93 199.45&#10;  Q 177.44 198.34 169.10 197.40&#10;  Q 168.07 196.78 164.67 195.35&#10;  Q 159.36 193.12 154.60 186.15&#10;  Q 152.48 183.04 151.85 177.36&#10;  Q 151.50 174.15 152.88 168.16&#10;  Q 153.90 163.71 156.28 154.53&#10;  Q 156.67 153.03 157.95 152.34&#10;  Z"
        fill="#b3ddff" />
    <path d="&#10;  M 671.55 157.97&#10;  L 678.11 173.76&#10;  C 674.75 174.14 669.19 172.97 667.29 169.68&#10;  Q 664.42 164.73 667.90 158.91&#10;  Q 669.36 157.97 671.55 157.97&#10;  Z"
        fill="#b3ddff" />
    <ellipse cx="0.00" cy="0.00" fill="#713991" rx="0.79"
        ry="0.20" transform="translate(266.94,162.90) rotate(-155.1)" />
    <ellipse cx="0.00" cy="0.00" fill="#713991" rx="2.12"
        ry="0.19" transform="translate(277.70,169.72) rotate(-143.9)" />
    <ellipse cx="0.00" cy="0.00" fill="#713991" rx="2.35"
        ry="0.26" transform="translate(282.51,173.05) rotate(-145.9)" />
    <ellipse cx="0.00" cy="0.00" fill="#713991" rx="1.45"
        ry="0.39" transform="translate(286.69,176.38) rotate(-143.3)" />
    <path d="&#10;  M 295.76 184.72&#10;  L 288.38 178.53&#10;  A 0.46 0.46 0.0 0 1 288.86 177.75&#10;  C 290.14 178.29 290.65 179.58 291.92 180.35&#10;  Q 294.27 181.77 295.98 184.53&#10;  A 0.15 0.15 0.0 0 1 295.76 184.72&#10;  Z"
        fill="#713991" />
    <path d="&#10;  M 969.00 185.50&#10;  L 969.00 185.85&#10;  Q 968.51 187.32 969.00 188.25&#10;  L 969.00 225.64&#10;  L 968.89 237.12&#10;  A 0.39 0.38 -90.0 0 1 968.51 237.51&#10;  L 968.49 237.51&#10;  A 0.40 0.38 -90.0 0 1 968.11 237.11&#10;  L 968.09 226.40&#10;  L 968.21 188.52&#10;  L 968.19 180.65&#10;  A 0.29 0.28 0.0 0 1 968.48 180.37&#10;  L 968.73 180.37&#10;  A 0.04 0.04 0.0 0 1 968.77 180.40&#10;  L 969.00 185.50&#10;  Z"
        fill="#713991" />
    <path d="&#10;  M 968.21 188.52&#10;  L 968.09 226.40&#10;  Q 961.86 231.74 956.40 234.42&#10;  Q 951.36 236.90 948.91 240.88&#10;  A 2.81 2.73 65.5 0 0 948.52 241.97&#10;  Q 947.79 247.17 948.92 249.34&#10;  Q 950.83 253.06 952.68 257.00&#10;  L 914.55 257.00&#10;  Q 915.37 249.39 913.30 242.70&#10;  Q 909.93 231.84 909.60 230.42&#10;  C 906.21 216.15 910.46 200.62 920.29 189.87&#10;  Q 929.96 179.30 945.11 180.94&#10;  Q 957.86 182.32 968.21 188.52&#10;  Z"
        fill="#ffb8bc" />
    <path d="&#10;  M 326.53 222.07&#10;  L 326.84 222.57&#10;  L 347.83 256.39&#10;  A 0.22 0.21 -29.8 0 1 347.74 256.69&#10;  L 347.17 256.99&#10;  A 0.10 0.10 0.0 0 1 347.03 256.95&#10;  Q 342.10 248.73 335.34 238.15&#10;  Q 327.52 225.91 321.61 216.87&#10;  Q 314.00 205.22 303.96 193.54&#10;  Q 303.43 192.93 302.79 192.45&#10;  Q 302.64 192.14 302.30 192.03&#10;  L 299.87 188.56&#10;  A 0.17 0.10 53.0 0 1 299.85 188.39&#10;  Q 299.88 188.36 299.95 188.34&#10;  Q 300.34 188.25 300.60 188.54&#10;  Q 315.72 205.34 326.53 222.07&#10;  Z"
        fill="#ffb8bc" />
    <path d="&#10;  M 714.22 188.81&#10;  L 726.41 189.99&#10;  A 6.62 6.51 62.2 0 1 729.11 190.85&#10;  Q 734.10 193.73 735.63 198.88&#10;  Q 739.99 213.60 741.10 222.99&#10;  A 1.18 1.17 -35.7 0 1 740.99 223.64&#10;  L 740.50 224.63&#10;  A 0.99 0.95 54.5 0 0 740.41 225.25&#10;  L 744.53 249.55&#10;  L 745.64 257.00&#10;  L 672.44 257.00&#10;  L 671.49 241.29&#10;  A 1.63 1.61 9.2 0 0 670.46 239.88&#10;  L 660.11 235.87&#10;  Q 658.07 235.47 656.67 234.12&#10;  A 1.15 1.12 -67.2 0 1 656.33 233.26&#10;  Q 656.54 228.34 659.63 223.84&#10;  L 662.81 222.21&#10;  A 0.82 0.81 -41.1 0 0 662.91 220.82&#10;  Q 660.89 219.37 660.10 217.44&#10;  Q 660.82 214.88 661.10 212.56&#10;  A 6.75 6.58 58.3 0 1 661.38 211.31&#10;  L 663.81 203.60&#10;  Q 666.12 203.83 668.07 205.04&#10;  Q 668.24 205.15 668.46 205.15&#10;  Q 668.72 205.15 668.87 205.06&#10;  A 0.84 0.84 0.0 0 1 669.69 205.02&#10;  C 671.13 205.71 673.53 207.28 675.02 208.64&#10;  Q 683.08 216.00 690.32 222.06&#10;  C 694.16 225.28 696.79 227.91 701.36 232.13&#10;  Q 704.22 234.78 707.32 238.69&#10;  C 709.95 242.01 712.53 244.45 716.01 247.99&#10;  Q 717.92 249.93 719.36 250.13&#10;  Q 727.89 251.29 734.90 246.05&#10;  A 2.38 2.29 -4.8 0 0 735.54 245.32&#10;  Q 737.57 241.73 737.61 240.77&#10;  Q 737.96 233.49 735.69 225.21&#10;  A 1.28 1.27 -10.2 0 0 734.34 224.28&#10;  C 728.64 224.85 725.77 225.75 721.56 222.44&#10;  Q 719.08 220.48 710.45 215.02&#10;  Q 710.28 214.91 710.00 214.89&#10;  Q 709.74 214.86 709.51 214.72&#10;  Q 698.44 207.99 685.94 202.85&#10;  Q 678.08 199.61 671.05 194.45&#10;  L 684.22 191.82&#10;  Q 686.74 197.91 692.93 199.07&#10;  C 697.14 199.86 704.96 199.55 708.55 196.07&#10;  Q 711.59 193.12 711.85 192.35&#10;  Q 713.02 189.00 714.22 188.81&#10;  Z"
        fill="#b3ddff" />
    <path d="&#10;  M 671.05 194.45&#10;  Q 678.08 199.61 685.94 202.85&#10;  Q 698.44 207.99 709.51 214.72&#10;  Q 709.74 214.86 710.00 214.89&#10;  Q 710.28 214.91 710.45 215.02&#10;  Q 719.08 220.48 721.56 222.44&#10;  C 725.77 225.75 728.64 224.85 734.34 224.28&#10;  A 1.28 1.27 -10.2 0 1 735.69 225.21&#10;  Q 737.96 233.49 737.61 240.77&#10;  Q 737.57 241.73 735.54 245.32&#10;  A 2.38 2.29 -4.8 0 1 734.90 246.05&#10;  Q 727.89 251.29 719.36 250.13&#10;  Q 717.92 249.93 716.01 247.99&#10;  C 712.53 244.45 709.95 242.01 707.32 238.69&#10;  Q 704.22 234.78 701.36 232.13&#10;  C 696.79 227.91 694.16 225.28 690.32 222.06&#10;  Q 683.08 216.00 675.02 208.64&#10;  C 673.53 207.28 671.13 205.71 669.69 205.02&#10;  A 0.84 0.84 0.0 0 0 668.87 205.06&#10;  Q 668.72 205.15 668.46 205.15&#10;  Q 668.24 205.15 668.07 205.04&#10;  Q 666.12 203.83 663.81 203.60&#10;  L 647.58 196.94&#10;  A 0.60 0.60 0.0 0 1 647.29 196.09&#10;  Q 652.02 187.96 661.28 190.18&#10;  Q 664.71 191.01 671.05 194.45&#10;  Z"
        fill="#ffb8bc" />
    <path d="&#10;  M 302.79 192.45&#10;  Q 302.41 192.35 302.30 192.03&#10;  Q 302.64 192.14 302.79 192.45&#10;  Z"
        fill="#713991" />
    <path d="&#10;  M 660.10 217.44&#10;  Q 660.89 219.37 662.91 220.82&#10;  A 0.82 0.81 -41.1 0 1 662.81 222.21&#10;  L 659.63 223.84&#10;  L 648.04 228.51&#10;  Q 643.50 230.18 638.69 232.40&#10;  Q 638.32 232.57 637.73 233.53&#10;  Q 637.43 233.38 637.02 233.50&#10;  Q 633.00 234.57 627.78 236.95&#10;  Q 623.52 238.89 623.02 238.97&#10;  Q 622.06 239.11 618.37 241.06&#10;  Q 616.87 241.84 613.69 242.77&#10;  A 0.67 0.67 0.0 0 1 612.91 242.43&#10;  L 597.52 213.14&#10;  A 0.59 0.58 67.5 0 1 597.86 212.31&#10;  L 642.15 197.92&#10;  A 1.50 1.49 60.7 0 1 643.75 198.37&#10;  L 660.10 217.44&#10;  Z"
        fill="#713991" />
    <path d="&#10;  M 108.50 257.00&#10;  L 48.63 257.00&#10;  Q 45.33 252.10 42.54 249.95&#10;  Q 37.69 246.22 30.64 241.35&#10;  Q 27.42 239.13 24.75 236.38&#10;  C 18.99 230.47 18.71 221.53 22.61 214.54&#10;  C 27.55 205.70 38.57 201.49 48.52 200.92&#10;  Q 59.66 200.29 68.36 206.32&#10;  C 75.88 211.53 75.86 222.50 77.09 233.24&#10;  C 77.78 239.29 79.11 245.26 83.85 249.30&#10;  A 3.04 2.97 -14.7 0 0 84.87 249.88&#10;  Q 90.88 251.94 93.23 252.32&#10;  C 100.07 253.42 104.01 253.72 109.21 256.27&#10;  A 0.26 0.25 48.0 0 1 109.19 256.74&#10;  L 108.50 257.00&#10;  Z"
        fill="#b3ddff" />
    <path d="&#10;  M 858.89 257.00&#10;  L 831.38 257.00&#10;  Q 828.94 250.53 826.44 244.11&#10;  Q 823.74 237.20 823.83 234.39&#10;  Q 823.98 229.45 826.79 224.77&#10;  C 834.24 212.39 851.18 211.44 861.30 220.53&#10;  Q 868.66 227.14 866.41 236.47&#10;  Q 864.99 242.36 860.85 251.43&#10;  C 860.11 253.06 859.65 255.17 858.89 257.00&#10;  Z"
        fill="#b3ddff" />
    <path d="&#10;  M 326.84 222.57&#10;  L 326.53 222.07&#10;  Q 326.85 222.24 326.84 222.57&#10;  Z"
        fill="#713991" />
    <path d="&#10;  M 648.04 228.51&#10;  L 659.03 237.45&#10;  A 0.66 0.64 35.0 0 0 660.00 237.29&#10;  Q 660.21 236.94 660.11 235.87&#10;  L 670.46 239.88&#10;  A 1.63 1.61 9.2 0 1 671.49 241.29&#10;  L 672.44 257.00&#10;  L 651.64 257.00&#10;  L 641.08 239.73&#10;  A 1.46 0.68 34.0 0 0 640.97 239.59&#10;  Q 638.62 236.97 637.73 233.53&#10;  Q 638.32 232.57 638.69 232.40&#10;  Q 643.50 230.18 648.04 228.51&#10;  Z"
        fill="#ffb8bc" />
    <path d="&#10;  M 758.75 257.00&#10;  L 745.64 257.00&#10;  L 744.53 249.55&#10;  Q 752.21 251.98 758.75 257.00&#10;  Z"
        fill="#713991" />
    <path d="&#10;  M 648.73 257.00&#10;  L 621.78 257.00&#10;  L 621.46 256.87&#10;  A 0.39 0.38 -53.8 0 1 621.36 256.21&#10;  C 624.93 253.34 631.68 250.41 636.46 251.84&#10;  Q 641.82 253.45 646.90 255.79&#10;  C 647.77 256.19 648.91 255.91 649.64 256.11&#10;  A 0.27 0.27 0.0 0 1 649.67 256.62&#10;  L 648.73 257.00&#10;  Z"
        fill="#b3ddff" />
</svg>