<svg fill="none" height="14" viewBox="0 0 19 14" width="19" xmlns="http://www.w3.org/2000/svg">
    <path
        d="M3.26562 0C2.39953 0 1.5689 0.33802 0.956479 0.939699C0.344056 1.54138 0 2.35743 0 3.20833V4.66667H19V3.20833C19 2.35743 18.6559 1.54138 18.0435 0.939699C17.4311 0.33802 16.6005 0 15.7344 0H3.26562ZM19 5.83333H0V10.7917C0 11.6426 0.344056 12.4586 0.956479 13.0603C1.5689 13.662 2.39953 14 3.26562 14H15.7344C16.6005 14 17.4311 13.662 18.0435 13.0603C18.6559 12.4586 19 11.6426 19 10.7917V5.83333ZM13.6562 10.5H16.0312C16.1887 10.5 16.3397 10.5615 16.4511 10.6709C16.5624 10.7802 16.625 10.9286 16.625 11.0833C16.625 11.238 16.5624 11.3864 16.4511 11.4958C16.3397 11.6052 16.1887 11.6667 16.0312 11.6667H13.6562C13.4988 11.6667 13.3478 11.6052 13.2364 11.4958C13.1251 11.3864 13.0625 11.238 13.0625 11.0833C13.0625 10.9286 13.1251 10.7802 13.2364 10.6709C13.3478 10.5615 13.4988 10.5 13.6562 10.5Z"
        fill="#1C6B1E" />
</svg>
