<svg fill="none" height="5" viewBox="0 0 6 5" width="6" xmlns="http://www.w3.org/2000/svg">
    <path
        d="M1.6656 2.77778L1.9197 2.19028L2.1732 2.77778H1.6656ZM4.2 2.5H4.5V3.05556H4.2C4.12044 3.05556 4.04413 3.02629 3.98787 2.9742C3.93161 2.9221 3.9 2.85145 3.9 2.77778C3.9 2.70411 3.93161 2.63345 3.98787 2.58136C4.04413 2.52927 4.12044 2.5 4.2 2.5ZM5.7 0H0.3C0.220435 0 0.144129 0.0292658 0.087868 0.0813592C0.031607 0.133453 0 0.204107 0 0.277778V4.72222C0 4.79589 0.031607 4.86655 0.087868 4.91864C0.144129 4.97073 0.220435 5 0.3 5H5.7C5.77957 5 5.85587 4.97073 5.91213 4.91864C5.96839 4.86655 6 4.79589 6 4.72222V0.277778C6 0.204107 5.96839 0.133453 5.91213 0.0813592C5.85587 0.0292658 5.77957 0 5.7 0ZM3.1794 3.61111H2.5329L2.4129 3.33333H1.4259L1.3059 3.61111H0.6597L1.0194 2.77833L1.0197 2.77778L1.6197 1.38889H2.2197L3.1794 3.61111ZM4.5 1.38889H5.1V3.61111H4.2C3.96131 3.61111 3.73239 3.52331 3.5636 3.36703C3.39482 3.21075 3.3 2.99879 3.3 2.77778C3.3 2.55676 3.39482 2.3448 3.5636 2.18852C3.73239 2.03224 3.96131 1.94444 4.2 1.94444H4.5V1.38889Z"
        fill="white" />
</svg>
