<svg fill="none" height="20" viewBox="0 0 19 20" width="19" xmlns="http://www.w3.org/2000/svg">
    <path
        d="M8.15012 0.47963L4.43012 6.55963C4.02012 7.21963 4.50012 8.07963 5.28012 8.07963H12.7101C13.4901 8.07963 13.9701 7.21963 13.5601 6.55963L9.85012 0.47963C9.76172 0.333266 9.63703 0.212209 9.48811 0.12818C9.3392 0.0441518 9.17111 0 9.00012 0C8.82913 0 8.66104 0.0441518 8.51213 0.12818C8.36321 0.212209 8.23852 0.333266 8.15012 0.47963Z"
        fill="white" />
    <path
        d="M14.5 19.0796C16.9853 19.0796 19 17.0649 19 14.5796C19 12.0943 16.9853 10.0796 14.5 10.0796C12.0147 10.0796 10 12.0943 10 14.5796C10 17.0649 12.0147 19.0796 14.5 19.0796Z"
        fill="white" />
    <path
        d="M1 18.5796H7C7.55 18.5796 8 18.1296 8 17.5796V11.5796C8 11.0296 7.55 10.5796 7 10.5796H1C0.45 10.5796 0 11.0296 0 11.5796V17.5796C0 18.1296 0.45 18.5796 1 18.5796Z"
        fill="white" />
</svg>
