<svg fill="none" height="17" viewBox="0 0 17 17" width="17" xmlns="http://www.w3.org/2000/svg">
    <path
        d="M9.48781 3.05881C9.16352 3.01755 8.83401 2.9939 8.50001 2.98801C7.04048 2.99563 5.52751 3.41328 4.0954 4.21356C3.03208 4.83224 1.99628 5.70565 1.09674 6.78303C0.654954 7.33301 0.0911059 8.12934 0 8.97897C0.0107667 9.71498 0.682168 10.6234 1.09674 11.175C1.94027 12.21 2.94909 13.0584 4.0954 13.7444C4.13437 13.7667 4.17345 13.7886 4.21265 13.8103L3.14913 15.9953L4.5942 17L12.4059 1.00009L11.015 0L9.48781 3.05881ZM12.7863 4.15008L11.7249 6.31428C12.2132 7.06062 12.5031 7.98098 12.5031 8.97897C12.5031 11.4665 10.7107 13.4832 8.49896 13.4832C8.40335 13.4832 8.31068 13.4711 8.21673 13.4637L7.51428 14.8943C7.83824 14.9351 8.1658 14.9648 8.49999 14.9699C9.9609 14.9622 11.473 14.5398 12.9036 13.7444C13.9669 13.1257 15.0037 12.2523 15.9033 11.175C16.3451 10.625 16.9089 9.82864 17 8.97897C16.9892 8.24299 16.3178 7.33455 15.9033 6.78301C15.0597 5.74795 14.0499 4.89954 12.9036 4.21353C12.8649 4.19146 12.8253 4.17162 12.7863 4.15008ZM8.49897 4.47479C8.59596 4.47479 8.69218 4.47935 8.78742 4.48699L7.96461 6.16294C6.80982 6.43836 5.94336 7.59421 5.94336 8.97777C5.94336 9.32533 5.99777 9.65806 6.09796 9.96648C6.09808 9.96683 6.09785 9.96737 6.09796 9.96772L5.27306 11.6485C4.78359 10.9015 4.49486 9.97813 4.49486 8.97896C4.49487 6.49147 6.28729 4.47477 8.49897 4.47479ZM10.8927 8.00856L9.03852 11.7877C10.1871 11.5071 11.0473 10.3565 11.0473 8.97777C11.0473 8.63655 10.9894 8.31215 10.8927 8.00856Z"
        fill="black" />
</svg>
