<svg fill="none" height="12" viewBox="0 0 12 12" width="12" xmlns="http://www.w3.org/2000/svg">
    <path
        d="M0 8.57143C0 8.3441 0.0903058 8.12608 0.251051 7.96534C0.411797 7.80459 0.629814 7.71429 0.857143 7.71429H2.57143C2.79876 7.71429 3.01677 7.80459 3.17752 7.96534C3.33827 8.12608 3.42857 8.3441 3.42857 8.57143V11.1429C3.42857 11.3702 3.33827 11.5882 3.17752 11.7489C3.01677 11.9097 2.79876 12 2.57143 12H0.857143C0.629814 12 0.411797 11.9097 0.251051 11.7489C0.0903058 11.5882 0 11.3702 0 11.1429V8.57143ZM4.28571 5.14286C4.28571 4.91553 4.37602 4.69751 4.53677 4.53677C4.69751 4.37602 4.91553 4.28571 5.14286 4.28571H6.85714C7.08447 4.28571 7.30249 4.37602 7.46323 4.53677C7.62398 4.69751 7.71429 4.91553 7.71429 5.14286V11.1429C7.71429 11.3702 7.62398 11.5882 7.46323 11.7489C7.30249 11.9097 7.08447 12 6.85714 12H5.14286C4.91553 12 4.69751 11.9097 4.53677 11.7489C4.37602 11.5882 4.28571 11.3702 4.28571 11.1429V5.14286ZM8.57143 0.857143C8.57143 0.629814 8.66173 0.411797 8.82248 0.251051C8.98323 0.0903058 9.20124 0 9.42857 0H11.1429C11.3702 0 11.5882 0.0903058 11.7489 0.251051C11.9097 0.411797 12 0.629814 12 0.857143V11.1429C12 11.3702 11.9097 11.5882 11.7489 11.7489C11.5882 11.9097 11.3702 12 11.1429 12H9.42857C9.20124 12 8.98323 11.9097 8.82248 11.7489C8.66173 11.5882 8.57143 11.3702 8.57143 11.1429V0.857143Z"
        fill="#11D316" />
</svg>
