<svg fill="none" height="20" viewBox="0 0 18 20" width="18" xmlns="http://www.w3.org/2000/svg">
    <path
        d="M15.33 4.54H13.39V2.69C13.391 2.15983 13.2352 1.64121 12.9424 1.19926C12.6495 0.757314 12.2326 0.411759 11.744 0.206C11.4193 0.0713349 11.0715 0.00135901 10.72 0H2.67002C2.31808 0.00131077 1.96984 0.0719297 1.64519 0.207825C1.32053 0.34372 1.02583 0.542229 0.777896 0.792019C0.529963 1.04181 0.333658 1.33799 0.20019 1.66364C0.0667212 1.9893 -0.00129694 2.33806 1.87278e-05 2.69V12.78C-0.00129694 13.1319 0.0667212 13.4807 0.20019 13.8064C0.333658 14.132 0.529963 14.4282 0.777896 14.678C1.02583 14.9278 1.32053 15.1263 1.64519 15.2622C1.96984 15.3981 2.31808 15.4687 2.67002 15.47H4.61002V17.32C4.61001 18.0291 4.891 18.7092 5.39143 19.2115C5.89187 19.7138 6.57097 19.9974 7.28002 20H15.28C15.9891 19.9974 16.6682 19.7138 17.1686 19.2115C17.669 18.7092 17.95 18.0291 17.95 17.32V7.23C17.9503 6.52853 17.6765 5.85472 17.187 5.35221C16.6976 4.8497 16.0312 4.55825 15.33 4.54ZM4.61002 7.23V13.97H2.67002C2.51506 13.9687 2.36187 13.9369 2.21921 13.8764C2.07654 13.8158 1.94719 13.7278 1.83855 13.6173C1.7299 13.5068 1.64409 13.376 1.586 13.2323C1.52792 13.0887 1.4987 12.935 1.50002 12.78V2.69C1.4987 2.53504 1.52792 2.38133 1.586 2.23767C1.64409 2.094 1.7299 1.96318 1.83855 1.85267C1.94719 1.74217 2.07654 1.65415 2.21921 1.59364C2.36187 1.53313 2.51506 1.50131 2.67002 1.5H10.72C10.875 1.50131 11.0282 1.53313 11.1708 1.59364C11.3135 1.65415 11.4428 1.74217 11.5515 1.85267C11.6601 1.96318 11.7459 2.094 11.804 2.23767C11.8621 2.38133 11.8913 2.53504 11.89 2.69V4.54H7.28002C6.57006 4.54528 5.89097 4.83102 5.39082 5.33492C4.89066 5.83882 4.61 6.52002 4.61002 7.23Z"
        fill="white" />
</svg>
