<svg fill="none" height="15" viewBox="0 0 15 15" width="15" xmlns="http://www.w3.org/2000/svg">
    <path clip-rule="evenodd" d="M7.01434 2.646H1.7173C0.791151 2.646 0.0410156 3.43687 0.0410156 4.41109V13.2349C0.0410156 14.2099 0.791151 15 1.7173 15H10.9368C11.863 15 12.6131 14.2099 12.6131 13.2349V6.77622L9.33263 10.2297C9.04616 10.5343 8.67308 10.7448 8.26317 10.8331L6.01611 11.3065C4.54937 11.6148 3.25696 10.2539 3.55031 8.71049L3.99955 6.34453C4.08085 5.91784 4.28033 5.52532 4.57284 5.2178L7.01434 2.646Z"
        fill="white"
        fill-rule="evenodd" />
    <path clip-rule="evenodd" d="M14.1602 1.09759C14.0755 0.884274 13.9512 0.688657 13.7939 0.520896C13.6393 0.356828 13.4528 0.225576 13.2458 0.135042C13.0418 0.0459845 12.8215 0 12.5987 0C12.376 0 12.1557 0.0459845 11.9517 0.135042C11.7447 0.225576 11.5582 0.356828 11.4036 0.520896L10.9459 1.00259L13.3363 3.51939L13.7939 3.03686C13.9529 2.87038 14.0773 2.67442 14.1602 2.46017C14.3329 2.0222 14.3329 1.53556 14.1602 1.09759ZM12.152 4.76696L9.7608 2.24932L5.757 6.46621C5.69793 6.52879 5.65809 6.60687 5.64218 6.69122L5.19294 9.05802C5.13427 9.36637 5.39325 9.63805 5.68576 9.57638L7.93365 9.10385C8.01544 9.08573 8.08989 9.04363 8.14738 8.98301L12.152 4.76696Z"
        fill="white"
        fill-rule="evenodd" />
</svg>
