<svg fill="none" height="143" viewBox="0 0 102 143" width="102" xmlns="http://www.w3.org/2000/svg">
    <rect fill="#1C6B1E" height="106.474" rx="8" width="101.688" y="36.3868" />
    <path
        d="M95.0061 13.939C93.9934 10.3646 92.0705 7.11029 89.4233 4.49061C86.776 1.87093 85.7161 1.32265 82.1162 0.332596C81.061 0.0738301 80.3004 0.073895 79.2452 0.332661C78.2223 0.647498 76.6192 0.719037 75.8556 1.46532L68.9131 9.09452L15.8183 62.2095C14.8108 63.1291 11.8658 67.6576 11.6872 69.0057L10.3455 76.0664C10.1952 77.0318 10.2799 78.0189 10.5926 78.945C10.9104 79.8647 11.4294 80.7072 12.1109 81.4023C12.7888 82.1044 13.6221 82.631 14.5472 82.9469C15.2133 83.1575 15.896 83.2629 16.5951 83.2629C16.8893 83.298 17.1836 83.298 17.4778 83.2629L28.2469 80.3328C29.5677 80.0934 31.7812 78.9743 32.7664 78.0674L92.2851 19.179C93.0229 18.4161 94.757 17.2042 95.0634 16.1906C95.3529 15.1611 95.2259 14.9853 95.0061 13.939ZM89.8157 15.6942C89.7776 15.8662 89.2508 15.6942 89.5685 16.1506L83.6014 19.179L75.6923 10.1174L80.2118 4.86343C80.3421 4.73739 80.2032 4.92234 80.3751 4.86344C80.514 4.82777 81.3417 4.86343 81.3417 4.86343C84.0088 5.6045 83.6882 6.39511 85.6588 8.32972C87.6293 10.2643 88.4718 10.8733 89.2508 13.5155C89.2631 13.6453 89.8514 15.5688 89.8157 15.6942ZM69.6991 95.058H11.6872C10.9849 95.058 10.3113 94.7806 9.81468 94.2869C9.31806 93.7931 9.03906 93.1235 9.03906 92.4252C9.03906 91.7269 9.31806 91.0572 9.81468 90.5635C10.3113 90.0697 10.9849 89.7923 11.6872 89.7923H69.6638C70.3661 89.7923 71.0396 90.0697 71.5363 90.5635C72.0329 91.0572 72.3119 91.7269 72.3119 92.4252C72.3119 93.1235 72.0329 93.7931 71.5363 94.2869C71.0396 94.7806 70.3661 95.058 69.6638 95.058H69.6991Z"
        fill="white" />
    <path
        d="M89.3659 4.4906C92.0132 7.11028 93.936 10.3646 94.9487 13.939C95.1685 14.9853 95.2955 15.1611 95.0061 16.1906C94.6996 17.2042 92.9655 18.4161 92.2277 19.179L74.8931 36.3868H41.6311L68.8557 9.09451L75.7982 1.46531C76.5619 0.719029 78.165 0.647489 79.1878 0.332653C80.2431 0.0738863 81.0037 0.0738258 82.0589 0.332592C85.6587 1.32265 86.7186 1.87093 89.3659 4.4906Z"
        fill="#4E9E50" fill-opacity="0.51" />
    <rect fill="white" height="5.21045" rx="2.3" width="72.3118" x="9.03906" y="99.8185" />
    <rect fill="white" height="5.21045" rx="2.3" width="81.3508" x="9.03906" y="111.146" />
</svg>
