<svg fill="none" height="22" viewBox="0 0 24 22" width="24" xmlns="http://www.w3.org/2000/svg">
    <path clip-rule="evenodd" d="M11.056 0.357854C11.3064 0.12872 11.646 0 12 0C12.354 0 12.6936 0.12872 12.944 0.357854L20.9549 7.69127L23.6252 10.1357C23.8684 10.3663 24.003 10.675 24 10.9955C23.9969 11.3159 23.8565 11.6225 23.6089 11.8491C23.3614 12.0757 23.0265 12.2043 22.6764 12.207C22.3264 12.2098 21.9891 12.0866 21.7373 11.864L21.3461 11.5059V19.5555C21.3461 20.2038 21.0648 20.8256 20.564 21.284C20.0632 21.7425 19.384 22 18.6758 22H14.6703C14.3162 22 13.9766 21.8712 13.7262 21.642C13.4758 21.4128 13.3352 21.1019 13.3352 20.7778V17.1111H10.6648V20.7778C10.6648 21.1019 10.5242 21.4128 10.2738 21.642C10.0234 21.8712 9.68379 22 9.32969 22H5.32422C4.61601 22 3.9368 21.7425 3.43602 21.284C2.93524 20.8256 2.65391 20.2038 2.65391 19.5555V11.5059L2.2627 11.864C2.01089 12.0866 1.67363 12.2098 1.32355 12.207C0.973481 12.2043 0.638607 12.0757 0.391058 11.8491C0.14351 11.6225 0.00309252 11.3159 5.04724e-05 10.9955C-0.00299157 10.675 0.131585 10.3663 0.374794 10.1357L3.04511 7.69127L11.056 0.357854Z"
        fill="#1C6B1E"
        fill-rule="evenodd" />
</svg>
