<svg fill="none" height="8" viewBox="0 0 9 8" width="9" xmlns="http://www.w3.org/2000/svg">
    <path clip-rule="evenodd" d="M0.714188 0.736629C1.17087 0.264966 1.79017 0 2.43591 0C3.08166 0 3.70096 0.264966 4.15764 0.736629C4.24693 0.828544 4.36187 0.942935 4.50247 1.0798C4.64274 0.942935 4.75752 0.828544 4.84682 0.736629C5.30158 0.269005 5.9166 0.00569421 6.55822 0.0039189C7.19985 0.00214358 7.81622 0.262047 8.27341 0.727148C8.73059 1.19225 8.99163 1.82496 8.9998 2.48779C9.00798 3.15062 8.76262 3.79 8.31705 4.26698L4.84633 7.85268C4.75499 7.94701 4.63113 8 4.50198 8C4.37283 8 4.24897 7.94701 4.15764 7.85268L0.686914 4.26748C0.241769 3.79318 -0.00493718 3.15702 7.4901e-05 2.49638C0.00508698 1.83575 0.261902 1.20366 0.714188 0.736629Z"
        fill="white"
        fill-rule="evenodd" />
</svg>
