<svg fill="none" height="17" viewBox="0 0 19 17" width="19" xmlns="http://www.w3.org/2000/svg">
    <path clip-rule="evenodd" d="M16.2847 8.64501C16.9918 7.9268 17.3846 6.95713 17.3767 5.94931C17.3688 4.94149 16.9609 3.97808 16.2427 3.27101C15.8871 2.92091 15.466 2.64427 15.0034 2.45691C14.5409 2.26955 14.046 2.17512 13.547 2.17902C12.5392 2.18689 11.5758 2.5948 10.8687 3.31301C10.6767 3.50501 10.4327 3.74068 10.1367 4.02001L9.31369 4.79501L8.49069 4.02001C8.19402 3.74001 7.94969 3.50434 7.75769 3.31301C7.04505 2.60038 6.07851 2.20002 5.07069 2.20002C4.06287 2.20002 3.09633 2.60038 2.38369 3.31301C0.915689 4.78201 0.898689 7.15701 2.32969 8.63301L9.31369 15.617L16.2847 8.64501ZM1.53469 2.46501C1.999 2.00058 2.55025 1.63216 3.15697 1.38081C3.76368 1.12945 4.41397 1.00008 5.07069 1.00008C5.72741 1.00008 6.3777 1.12945 6.98441 1.38081C7.59113 1.63216 8.14238 2.00058 8.60669 2.46501C8.78869 2.64768 9.02436 2.87501 9.31369 3.14701C9.60169 2.87501 9.83736 2.64734 10.0207 2.46401C10.9512 1.51918 12.2189 0.982685 13.545 0.972558C14.8711 0.962431 16.1469 1.4795 17.0917 2.41001C18.0365 3.34052 18.573 4.60826 18.5831 5.93433C18.5933 7.2604 18.0762 8.53618 17.1457 9.48101L10.0207 16.607C9.83316 16.7945 9.57885 16.8998 9.31369 16.8998C9.04852 16.8998 8.79422 16.7945 8.60669 16.607L1.47969 9.48001C0.565729 8.53741 0.0591991 7.27314 0.0694897 5.96024C0.0797804 4.64734 0.606066 3.39117 1.53469 2.46301V2.46501Z"
        fill="white"
        fill-rule="evenodd" />
</svg>
