<svg fill="none" height="104" viewBox="0 0 105 104" width="105" xmlns="http://www.w3.org/2000/svg">
    <path
        d="M0 16C0 7.16346 7.16345 0 16 0H44.6229C47.3843 0 49.6229 2.23858 49.6229 5V43.8398C49.6229 46.6012 47.3843 48.8398 44.6229 48.8398H5C2.23857 48.8398 0 46.6012 0 43.8398V16Z"
        fill="#1C6B1E" />
    <path
        d="M54.877 5.00001C54.877 2.23858 57.1155 0 59.877 0H88.4999C97.3364 0 104.5 7.16344 104.5 16V43.8398C104.5 46.6012 102.261 48.8398 99.4999 48.8398H59.877C57.1155 48.8398 54.877 46.6012 54.877 43.8398V5.00001Z"
        fill="#1C6B1E" />
    <path
        d="M54.877 60.1603C54.877 57.3989 57.1155 55.1603 59.877 55.1603H99.4999C102.261 55.1603 104.5 57.3989 104.5 60.1603V88C104.5 96.8366 97.3364 104 88.4999 104H59.877C57.1155 104 54.877 101.761 54.877 99.0001V60.1603Z"
        fill="#1C6B1E" />
    <path
        d="M0 60.1603C0 57.3989 2.23858 55.1603 5 55.1603H44.6229C47.3843 55.1603 49.6229 57.3989 49.6229 60.1603V99.0001C49.6229 101.761 47.3843 104 44.6229 104H16C7.16344 104 0 96.8366 0 88.0001V60.1603Z"
        fill="#1C6B1E" />
    <path
        d="M32.9453 22.9258V23.1484C32.9297 23.8047 32.8594 24.4844 32.7344 25.1875C32.6172 25.8906 32.4492 26.5938 32.2305 27.2969C32.0117 28 31.75 28.6953 31.4453 29.3828C31.1406 30.0703 30.7969 30.7266 30.4141 31.3516C30.0391 31.9844 29.6328 32.5742 29.1953 33.1211C28.7578 33.6758 28.2969 34.1641 27.8125 34.5859L26.0664 33.5781C26.3399 33.1172 26.586 32.6133 26.8047 32.0664C27.0313 31.5273 27.2344 30.9609 27.4141 30.3672C27.5938 29.7734 27.7461 29.1641 27.8711 28.5391C28.0039 27.9141 28.1133 27.293 28.1992 26.6758C28.2852 26.0586 28.3477 25.4531 28.3867 24.8594C28.4336 24.2578 28.4571 23.6875 28.4571 23.1484C28.4571 22.7266 28.4531 22.25 28.4453 21.7188C28.4453 21.1797 28.4141 20.6328 28.3516 20.0781C28.2969 19.5234 28.2031 18.9844 28.0703 18.4609C27.9375 17.9297 27.7383 17.457 27.4727 17.043C27.2149 16.6289 26.8789 16.2969 26.4649 16.0469C26.0586 15.7969 25.5508 15.6719 24.9414 15.6719C24.4024 15.6719 23.9375 15.7656 23.5469 15.9531C23.1641 16.1328 22.836 16.3789 22.5625 16.6914C22.2969 16.9961 22.0821 17.3516 21.918 17.7578C21.7617 18.1641 21.6367 18.5938 21.543 19.0469C21.4571 19.4922 21.3985 19.9453 21.3672 20.4062C21.3438 20.8594 21.3321 21.2891 21.3321 21.6953V24.9648H26.3828V26.8984H21.3321V31H16.6797V22.4219C16.6797 21.1953 16.875 20.0547 17.2656 19C17.6563 17.9453 18.2071 17.0312 18.918 16.2578C19.6367 15.4766 20.4961 14.8672 21.4961 14.4297C22.5039 13.9844 23.625 13.7617 24.8594 13.7617C25.6953 13.7617 26.4766 13.8828 27.2031 14.125C27.9375 14.3594 28.6055 14.6875 29.2071 15.1094C29.8086 15.5234 30.3438 16.0195 30.8125 16.5977C31.2891 17.168 31.6836 17.793 31.9961 18.4727C32.3164 19.1523 32.5586 19.8711 32.7227 20.6289C32.8867 21.3867 32.961 22.1523 32.9453 22.9258Z"
        fill="white" />
    <path
        d="M88.0567 22.5391C88.0567 23.3594 87.9473 24.1406 87.7285 24.8828C87.5098 25.6172 87.2012 26.2969 86.8028 26.9219C86.4121 27.5469 85.9434 28.1133 85.3965 28.6211C84.8496 29.1211 84.2442 29.5469 83.5801 29.8984C82.9238 30.25 82.2168 30.5234 81.459 30.7188C80.709 30.9062 79.9356 31 79.1387 31H71.6973V14.125H79.1387C79.9356 14.125 80.709 14.2188 81.459 14.4062C82.209 14.5938 82.9121 14.8633 83.5684 15.2148C84.2324 15.5586 84.8379 15.9805 85.3848 16.4805C85.9395 16.9805 86.4121 17.543 86.8028 18.168C87.2012 18.7852 87.5098 19.4648 87.7285 20.207C87.9473 20.9414 88.0567 21.7188 88.0567 22.5391ZM83.334 22.5391C83.334 21.625 83.2207 20.7578 82.9942 19.9375C82.7754 19.1094 82.4317 18.3828 81.9629 17.7578C81.4942 17.1328 80.8965 16.6367 80.1699 16.2695C79.4512 15.9023 78.5879 15.7188 77.5801 15.7188H76.3496V29.3594H77.5801C78.5723 29.3594 79.4278 29.1758 80.1465 28.8086C80.8731 28.4336 81.4707 27.9336 81.9395 27.3086C82.416 26.6758 82.7676 25.9492 82.9942 25.1289C83.2207 24.3086 83.334 23.4453 83.334 22.5391Z"
        fill="white" />
    <path
        d="M32.8047 81.5782C32.8047 82.0548 32.7266 82.5001 32.5703 82.9142C32.4141 83.3282 32.1992 83.7072 31.9258 84.0509C31.6524 84.3868 31.3321 84.6876 30.9649 84.9532C30.6055 85.2189 30.2149 85.4415 29.793 85.6212C29.3789 85.8009 28.9492 85.9376 28.5039 86.0314C28.0586 86.1173 27.6211 86.1603 27.1914 86.1603H17.2656V69.2853H26.336C26.7344 69.2853 27.1524 69.3165 27.5899 69.379C28.0274 69.4337 28.4531 69.5236 28.8672 69.6486C29.2891 69.7736 29.6875 69.9376 30.0625 70.1407C30.4453 70.3439 30.7774 70.5939 31.0586 70.8907C31.3477 71.1798 31.5742 71.5157 31.7383 71.8986C31.9102 72.2814 31.9961 72.7189 31.9961 73.2111C31.9961 73.6798 31.9024 74.1056 31.7149 74.4884C31.5274 74.8712 31.2735 75.215 30.9531 75.5197C30.6406 75.8165 30.2774 76.0822 29.8633 76.3165C29.4571 76.5431 29.0274 76.7423 28.5742 76.9142C29.1446 77.0704 29.6836 77.2775 30.1914 77.5353C30.7071 77.7931 31.1563 78.1095 31.5391 78.4845C31.9297 78.8595 32.2383 79.3048 32.4649 79.8204C32.6914 80.3282 32.8047 80.9142 32.8047 81.5782ZM27.2735 73.6212C27.2735 72.6681 27.0196 71.9728 26.5117 71.5353C26.0117 71.0978 25.2969 70.879 24.3672 70.879H21.918V76.3517H23.9688C24.3906 76.3517 24.8008 76.3009 25.1992 76.1993C25.5977 76.09 25.9492 75.9259 26.2539 75.7072C26.5664 75.4806 26.8125 75.1954 26.9922 74.8517C27.1797 74.5079 27.2735 74.0978 27.2735 73.6212ZM28.0938 81.2853C28.0938 80.8243 28.0352 80.3947 27.918 79.9962C27.8008 79.59 27.6211 79.2423 27.3789 78.9532C27.1367 78.6564 26.8321 78.4259 26.4649 78.2618C26.1055 78.09 25.6797 78.004 25.1875 78.004H21.918V84.5197H24.7774C25.2539 84.5197 25.6953 84.4415 26.1016 84.2853C26.5078 84.129 26.8594 83.9103 27.1563 83.629C27.4531 83.3478 27.6836 83.0079 27.8477 82.6095C28.0117 82.2111 28.0938 81.7697 28.0938 81.2853Z"
        fill="white" />
    <path
        d="M87.6113 73.4689L85.6074 74.3126C85.4512 73.8048 85.2403 73.34 84.9746 72.9181C84.7168 72.4962 84.4043 72.1368 84.0371 71.84C83.6778 71.5353 83.2676 71.3009 82.8067 71.1368C82.3457 70.965 81.8418 70.879 81.2949 70.879C80.709 70.879 80.1699 70.9767 79.6778 71.172C79.1934 71.3595 78.7559 71.6212 78.3653 71.9572C77.9824 72.2931 77.6465 72.6837 77.3574 73.129C77.0684 73.5743 76.8262 74.0509 76.6309 74.5587C76.4356 75.0587 76.291 75.5782 76.1973 76.1173C76.1035 76.6564 76.0567 77.1837 76.0567 77.6993C76.0567 78.5197 76.1504 79.3361 76.3379 80.1486C76.5332 80.9611 76.8379 81.6915 77.252 82.34C77.6738 82.9884 78.2168 83.5157 78.8809 83.922C79.5449 84.3204 80.3496 84.5197 81.2949 84.5197C81.7949 84.5197 82.2676 84.4376 82.7129 84.2736C83.1582 84.1017 83.5606 83.8712 83.9199 83.5822C84.2871 83.2853 84.6074 82.9376 84.8809 82.5392C85.1543 82.1407 85.3731 81.7111 85.5371 81.2501L87.5645 82.0587C87.2676 82.8009 86.8613 83.4532 86.3457 84.0157C85.8301 84.5704 85.2403 85.0314 84.5762 85.3986C83.9199 85.7657 83.2129 86.0392 82.4551 86.2189C81.7051 86.4064 80.9473 86.5001 80.1817 86.5001C79.3535 86.5001 78.5567 86.3986 77.791 86.1954C77.0332 85.9923 76.3262 85.7032 75.6699 85.3282C75.0137 84.9532 74.416 84.5001 73.877 83.9689C73.3457 83.4376 72.8887 82.8478 72.5059 82.1993C72.1309 81.5509 71.8379 80.8478 71.627 80.09C71.4238 79.3243 71.3223 78.5275 71.3223 77.6993C71.3223 76.8712 71.4238 76.0782 71.627 75.3204C71.8379 74.5548 72.1309 73.8478 72.5059 73.1993C72.8887 72.5431 73.3457 71.9493 73.877 71.4181C74.416 70.8868 75.0137 70.4337 75.6699 70.0587C76.3262 69.6837 77.0332 69.3947 77.791 69.1915C78.5567 68.9884 79.3535 68.8868 80.1817 68.8868C80.9785 68.8868 81.7559 68.9806 82.5137 69.1681C83.2793 69.3556 83.9903 69.6407 84.6465 70.0236C85.3028 70.3986 85.8848 70.8751 86.3926 71.4532C86.9082 72.0236 87.3145 72.6954 87.6113 73.4689Z"
        fill="white" />
</svg>
