<svg fill="none" height="14" viewBox="0 0 19 14" width="19" xmlns="http://www.w3.org/2000/svg">
    <path
        d="M15.2639 0.00197543C15.034 0.0196891 14.8143 0.103241 14.6316 0.242432C14.4489 0.381623 14.3111 0.570431 14.2351 0.785807C14.159 1.00118 14.148 1.23381 14.2033 1.45529C14.2586 1.67677 14.3779 1.87752 14.5467 2.03303C15.2069 2.68495 15.7304 3.45957 16.087 4.31236C16.4436 5.16514 16.6263 6.07927 16.6247 7.00218C16.6259 7.92502 16.443 8.83902 16.0864 9.69175C15.7298 10.5445 15.2065 11.3192 14.5467 11.9713C14.432 12.0797 14.3404 12.2096 14.2772 12.3535C14.214 12.4974 14.1805 12.6523 14.1787 12.8092C14.1768 12.966 14.2067 13.1217 14.2665 13.267C14.3264 13.4123 14.415 13.5443 14.5271 13.6552C14.6392 13.7661 14.7726 13.8538 14.9194 13.913C15.0662 13.9722 15.2235 14.0017 15.3821 13.9999C15.5406 13.9981 15.6972 13.965 15.8426 13.9024C15.988 13.8399 16.1194 13.7493 16.2289 13.6358C18.0035 11.8746 19 9.48913 19 7.00218C19 4.51523 18.0035 2.12973 16.2289 0.368552C16.1203 0.255025 15.99 0.16406 15.8455 0.100981C15.701 0.0379025 15.5453 0.0039774 15.3874 0.00119183C15.3462 -0.000397276 15.305 -0.000397276 15.2639 0.00119183V0.00197543ZM3.46381 0.0254737C3.20065 0.0600078 2.95677 0.180797 2.77113 0.368552C0.996518 2.12973 0 4.51523 0 7.00218C0 9.48913 0.996518 11.8746 2.77113 13.6358C2.88063 13.7493 3.01195 13.8399 3.15737 13.9024C3.30278 13.965 3.45936 13.9981 3.61791 13.9999C3.77645 14.0017 3.93376 13.9722 4.08059 13.913C4.22742 13.8538 4.36082 13.7661 4.47293 13.6552C4.58505 13.5443 4.67362 13.4123 4.73345 13.267C4.79329 13.1217 4.82317 12.966 4.82134 12.8092C4.81952 12.6523 4.78603 12.4974 4.72283 12.3535C4.65963 12.2096 4.56801 12.0797 4.45335 11.9713C3.79311 11.3194 3.26964 10.5448 2.91301 9.692C2.55639 8.83921 2.37365 7.92509 2.37531 7.00218C2.37409 6.07934 2.55702 5.16533 2.91362 4.31261C3.27022 3.45988 3.79347 2.68521 4.45335 2.03303C4.63285 1.86054 4.7527 1.63636 4.79578 1.39248C4.83887 1.14859 4.80299 0.897475 4.69327 0.674964C4.58355 0.452454 4.4056 0.269924 4.18481 0.153428C3.96402 0.0369324 3.71168 -0.00835887 3.46381 0.0254737ZM6.4823 2.62049C6.22194 2.64819 5.97814 2.76027 5.78883 2.93929C5.2138 3.45239 4.75383 4.07905 4.43859 4.77884C4.12335 5.47863 3.95983 6.23602 3.95858 7.00218C3.95858 8.60634 4.6473 10.0648 5.76429 11.0659C5.87968 11.1703 6.01474 11.2513 6.16175 11.3041C6.30876 11.3569 6.46484 11.3805 6.62109 11.3736C6.77733 11.3668 6.93068 11.3295 7.07237 11.264C7.21407 11.1985 7.34133 11.106 7.4469 10.9918C7.55247 10.8777 7.63428 10.744 7.68765 10.5986C7.74103 10.4531 7.76493 10.2987 7.75798 10.1441C7.75103 9.98947 7.71338 9.83774 7.64717 9.69754C7.58096 9.55734 7.48749 9.43142 7.37209 9.32696C7.04365 9.03339 6.7814 8.67463 6.60245 8.27407C6.42349 7.8735 6.33184 7.44013 6.33347 7.00218C6.33183 6.56404 6.42355 6.13048 6.60265 5.72977C6.78174 5.32906 7.04419 4.97021 7.37288 4.67661C7.5626 4.51331 7.69502 4.29463 7.75107 4.05209C7.80713 3.80955 7.78392 3.55566 7.68479 3.32701C7.58566 3.09835 7.41574 2.90674 7.19949 2.77976C6.98324 2.65279 6.73263 2.59703 6.4823 2.62049ZM12.3451 2.62049C12.1096 2.63334 11.8833 2.71528 11.6951 2.85588C11.5068 2.99648 11.3652 3.18936 11.2882 3.40993C11.2111 3.6305 11.2022 3.86877 11.2626 4.09437C11.323 4.31996 11.4499 4.52265 11.6271 4.67661C11.9558 4.97021 12.2183 5.32906 12.3974 5.72977C12.5764 6.13048 12.6682 6.56404 12.6665 7.00218C12.6682 7.44032 12.5764 7.87388 12.3974 8.27459C12.2183 8.6753 11.9558 9.03415 11.6271 9.32775C11.4948 9.42552 11.3846 9.54953 11.3034 9.69185C11.2223 9.83417 11.172 9.99166 11.1559 10.1543C11.1398 10.3169 11.1581 10.4811 11.2097 10.6363C11.2613 10.7915 11.3451 10.9343 11.4556 11.0557C11.5662 11.1771 11.7011 11.2743 11.8518 11.3412C12.0025 11.408 12.1656 11.4431 12.3307 11.444C12.4959 11.445 12.6594 11.4118 12.8109 11.3467C12.9623 11.2816 13.0984 11.1859 13.2104 11.0659C13.7857 10.5527 14.2458 9.92598 14.5612 9.22604C14.8766 8.52611 15.0402 7.76853 15.0414 7.00218C15.0444 6.23755 14.8852 5.48082 14.5741 4.78085C14.2631 4.08089 13.8072 3.45326 13.2357 2.9385C13.1172 2.82789 12.977 2.74258 12.8238 2.68787C12.6706 2.63316 12.5077 2.61023 12.3451 2.62049ZM9.5 5.58287C9.21633 5.58302 8.93907 5.6664 8.70328 5.82245C8.4675 5.9785 8.28376 6.20022 8.17532 6.45958C8.06687 6.71893 8.03858 7.00429 8.09401 7.27955C8.14945 7.55482 8.28613 7.80764 8.48677 8.00606C8.68741 8.20447 8.94301 8.33957 9.22124 8.39427C9.49947 8.44898 9.78785 8.42082 10.0499 8.31338C10.312 8.20593 10.536 8.02401 10.6935 7.79062C10.8511 7.55724 10.9352 7.28286 10.9352 7.00218C10.9355 6.8156 10.8986 6.6308 10.8266 6.45837C10.7546 6.28593 10.6489 6.12926 10.5156 5.99733C10.3822 5.8654 10.2239 5.76081 10.0496 5.68955C9.87534 5.6183 9.68856 5.58256 9.5 5.58287Z"
        fill="white" />
</svg>
