<svg fill="none" height="17" viewBox="0 0 17 17" width="17" xmlns="http://www.w3.org/2000/svg">
    <path
        d="M0 8.5C0.73855 3.66444 4.26316 0 8.49961 0C12.7361 0 16.2607 3.66444 17 8.5C16.2614 13.3356 12.7361 17 8.49961 17C4.26316 17 0.73855 13.3356 0 8.5ZM8.49961 13.2222C9.5415 13.2222 10.5407 12.7247 11.2774 11.8391C12.0142 10.9535 12.4281 9.75241 12.4281 8.5C12.4281 7.24759 12.0142 6.04647 11.2774 5.16088C10.5407 4.2753 9.5415 3.77778 8.49961 3.77778C7.45772 3.77778 6.4585 4.2753 5.72177 5.16088C4.98504 6.04647 4.57115 7.24759 4.57115 8.5C4.57115 9.75241 4.98504 10.9535 5.72177 11.8391C6.4585 12.7247 7.45772 13.2222 8.49961 13.2222ZM8.49961 11.3333C7.87447 11.3333 7.27494 11.0348 6.8329 10.5035C6.39087 9.97212 6.14253 9.25145 6.14253 8.5C6.14253 7.74855 6.39087 7.02788 6.8329 6.49653C7.27494 5.96518 7.87447 5.66667 8.49961 5.66667C9.12474 5.66667 9.72427 5.96518 10.1663 6.49653C10.6083 7.02788 10.8567 7.74855 10.8567 8.5C10.8567 9.25145 10.6083 9.97212 10.1663 10.5035C9.72427 11.0348 9.12474 11.3333 8.49961 11.3333Z"
        fill="black" />
</svg>
