<svg fill="none" height="23" viewBox="0 0 26 23" width="26" xmlns="http://www.w3.org/2000/svg">
    <path clip-rule="evenodd" d="M0.5 2.4036C0.5 1.03604 1.74286 0 3.17857 0H22.8214C24.2571 0 25.5 1.03604 25.5 2.4036V11.6865C25.5 13.0541 24.2571 14.0901 22.8214 14.0901H3.17857C1.74286 14.0901 0.5 13.0541 0.5 11.6865V2.4036ZM16.5714 7.04504C16.5714 7.92432 16.1952 8.76758 15.5254 9.38933C14.8556 10.0111 13.9472 10.3604 13 10.3604C12.0528 10.3604 11.1444 10.0111 10.4746 9.38933C9.80485 8.76758 9.42857 7.92432 9.42857 7.04504C9.42857 6.16577 9.80485 5.3225 10.4746 4.70076C11.1444 4.07902 12.0528 3.72973 13 3.72973C13.9472 3.72973 14.8556 4.07902 15.5254 4.70076C16.1952 5.3225 16.5714 6.16577 16.5714 7.04504ZM6.75 7.45946C6.75 7.29619 6.71536 7.13453 6.64805 6.98369C6.58075 6.83285 6.4821 6.6958 6.35773 6.58035C6.23337 6.46491 6.08573 6.37333 5.92324 6.31085C5.76075 6.24837 5.58659 6.21622 5.41071 6.21622C5.23484 6.21622 5.06068 6.24837 4.89819 6.31085C4.7357 6.37333 4.58806 6.46491 4.4637 6.58035C4.33933 6.6958 4.24068 6.83285 4.17338 6.98369C4.10607 7.13453 4.07143 7.29619 4.07143 7.45946C4.07143 7.78919 4.21253 8.10541 4.4637 8.33856C4.71486 8.57172 5.05551 8.7027 5.41071 8.7027C5.76591 8.7027 6.10657 8.57172 6.35773 8.33856C6.6089 8.10541 6.75 7.78919 6.75 7.45946ZM20.5893 6.21622C20.9445 6.21622 21.2851 6.3472 21.5363 6.58035C21.7875 6.81351 21.9286 7.12973 21.9286 7.45946C21.9286 7.78919 21.7875 8.10541 21.5363 8.33856C21.2851 8.57172 20.9445 8.7027 20.5893 8.7027C20.2341 8.7027 19.8934 8.57172 19.6423 8.33856C19.3911 8.10541 19.25 7.78919 19.25 7.45946C19.25 7.12973 19.3911 6.81351 19.6423 6.58035C19.8934 6.3472 20.2341 6.21622 20.5893 6.21622ZM9.65179 17.4054C9.65179 17.1306 9.5342 16.8671 9.3249 16.6728C9.11559 16.4785 8.83171 16.3694 8.53571 16.3694C8.23971 16.3694 7.95584 16.4785 7.74653 16.6728C7.53723 16.8671 7.41964 17.1306 7.41964 17.4054V20.7207C7.41964 20.9955 7.53723 21.259 7.74653 21.4533C7.95584 21.6476 8.23971 21.7568 8.53571 21.7568C8.83171 21.7568 9.11559 21.6476 9.3249 21.4533C9.5342 21.259 9.65179 20.9955 9.65179 20.7207V17.4054ZM17.4643 16.3694C18.0804 16.3694 18.5804 16.8335 18.5804 17.4054V20.7207C18.5804 20.8568 18.5515 20.9915 18.4954 21.1172C18.4393 21.2429 18.3571 21.3571 18.2535 21.4533C18.1498 21.5495 18.0268 21.6258 17.8914 21.6779C17.756 21.73 17.6108 21.7568 17.4643 21.7568C17.3177 21.7568 17.1726 21.73 17.0372 21.6779C16.9018 21.6258 16.7787 21.5495 16.6751 21.4533C16.5715 21.3571 16.4893 21.2429 16.4332 21.1172C16.3771 20.9915 16.3482 20.8568 16.3482 20.7207V17.4054C16.3482 16.8335 16.8482 16.3694 17.4643 16.3694ZM13 17.6126C13.6161 17.6126 14.1161 18.0768 14.1161 18.6486V21.964C14.1161 22.2387 13.9985 22.5023 13.7892 22.6966C13.5799 22.8908 13.296 23 13 23C12.704 23 12.4201 22.8908 12.2108 22.6966C12.0015 22.5023 11.8839 22.2387 11.8839 21.964V18.6486C11.8839 18.0768 12.3839 17.6126 13 17.6126Z"
        fill="#798279"
        fill-rule="evenodd" />
</svg>
