<svg fill="none" height="16" viewBox="0 0 20 16" width="20" xmlns="http://www.w3.org/2000/svg">
    <path
        d="M1.66667 0H18.3333C19.2083 0 20 0.844444 20 1.77778V14.2222C20 15.1556 19.2083 16 18.3333 16H1.66667C0.791667 16 0 15.1556 0 14.2222V1.77778C0 0.844444 0.791667 0 1.66667 0ZM11.6667 2.66667V3.55556H18.3333V2.66667H11.6667ZM11.6667 4.44444V5.33333H18.3333V4.44444H11.6667ZM11.6667 6.22222V7.11111H17.5V6.22222H11.6667ZM6.66667 9.69778C5 9.69778 1.66667 10.6667 1.66667 12.4444V13.3333H11.6667V12.4444C11.6667 10.6667 8.33333 9.69778 6.66667 9.69778ZM6.66667 2.66667C6.00363 2.66667 5.36774 2.94762 4.8989 3.44772C4.43006 3.94781 4.16667 4.62609 4.16667 5.33333C4.16667 6.04058 4.43006 6.71885 4.8989 7.21895C5.36774 7.71905 6.00363 8 6.66667 8C7.32971 8 7.96559 7.71905 8.43443 7.21895C8.90327 6.71885 9.16667 6.04058 9.16667 5.33333C9.16667 4.62609 8.90327 3.94781 8.43443 3.44772C7.96559 2.94762 7.32971 2.66667 6.66667 2.66667Z"
        fill="white" />
</svg>
