<svg fill="#FFFFFF" height="31" viewBox="0 0 31 31" width="31" xmlns="http://www.w3.org/2000/svg">
    <path
        d="M31 15.5C31 19.6109 29.367 23.5533 26.4602 26.4602C23.5533 29.367 19.6109 31 15.5 31C11.3891 31 7.44666 29.367 4.53985 26.4602C1.63303 23.5533 0 19.6109 0 15.5C0 11.3891 1.63303 7.44666 4.53985 4.53985C7.44666 1.63303 11.3891 0 15.5 0C19.6109 0 23.5533 1.63303 26.4602 4.53985C29.367 7.44666 31 11.3891 31 15.5ZM10.6562 7.75387V23.25H13.1421V17.7552H16.3738C19.4389 17.7552 21.3125 15.655 21.3125 12.7604C21.3125 9.889 19.4622 7.75387 16.3951 7.75387H10.6562ZM16.0231 15.6434C17.7533 15.6434 18.7724 14.5874 18.7724 12.7604C18.7724 10.9333 17.7533 9.889 16.0212 9.889H13.1324V15.6434H16.0231Z"
        fill="#FE9C36" />
</svg>
