<svg fill="none" height="21" viewBox="0 0 18 21" width="18" xmlns="http://www.w3.org/2000/svg">
    <path
        d="M7 14C7 14.2652 7.10536 14.5196 7.29289 14.7071C7.48043 14.8946 7.73478 15 8 15C8.26522 15 8.51957 14.8946 8.70711 14.7071C8.89464 14.5196 9 14.2652 9 14C9 13.7348 8.89464 13.4804 8.70711 13.2929C8.51957 13.1054 8.26522 13 8 13C7.73478 13 7.48043 13.1054 7.29289 13.2929C7.10536 13.4804 7 13.7348 7 14Z"
        stroke="white" stroke-linecap="round" stroke-linejoin="round" stroke-width="2" />
    <path
        d="M8 19H3C2.46957 19 1.96086 18.7893 1.58579 18.4142C1.21071 18.0391 1 17.5304 1 17V11C1 10.4696 1.21071 9.96086 1.58579 9.58579C1.96086 9.21071 2.46957 9 3 9H13C13.5304 9 14.0391 9.21071 14.4142 9.58579C14.7893 9.96086 15 10.4696 15 11M4 9V5C4 3.93913 4.42143 2.92172 5.17157 2.17157C5.92172 1.42143 6.93913 1 8 1C9.06087 1 10.0783 1.42143 10.8284 2.17157C11.5786 2.92172 12 3.93913 12 5V9M12 20L17 15M17 15V19.5M17 15H12.5"
        stroke="white" stroke-linecap="round" stroke-linejoin="round" stroke-width="2" />
</svg>
