<svg fill="none" height="23" viewBox="0 0 23 23" width="23" xmlns="http://www.w3.org/2000/svg">
    <mask style="mask-type:luminance" height="24" id="mask0_1827_228" maskUnits="userSpaceOnUse" width="24"
        x="0" y="-1">
        <path
            d="M8.79017 20.277C7.21772 19.8074 5.7936 18.9388 4.65637 17.7556C5.02224 17.3217 5.25032 16.7884 5.31142 16.2241C5.37251 15.6598 5.26384 15.0901 4.99932 14.5879C4.73479 14.0857 4.32643 13.6738 3.82651 13.405C3.32658 13.1362 2.75782 13.0227 2.193 13.0789C2.06404 12.4487 1.99938 11.807 2 11.1637C2 10.1702 2.15212 9.21182 2.43544 8.31147H2.47537C2.96013 8.31163 3.43693 8.18823 3.86076 7.95292C4.28458 7.71762 4.64143 7.37818 4.89763 6.96665C5.15382 6.55512 5.3009 6.08508 5.32498 5.60092C5.34906 5.11676 5.24934 4.63445 5.03523 4.19953C6.15013 3.1622 7.4979 2.40786 8.96511 2C9.20392 2.4689 9.5678 2.8626 10.0165 3.13753C10.4652 3.41247 10.9812 3.55791 11.5074 3.55778C12.0336 3.55791 12.5496 3.41247 12.9983 3.13753C13.447 2.8626 13.8108 2.4689 14.0497 2C15.5169 2.40786 16.8646 3.1622 17.9795 4.19953C17.7639 4.63749 17.6642 5.12348 17.6901 5.61097C17.7161 6.09847 17.8667 6.57115 18.1275 6.98378C18.3884 7.3964 18.7509 7.73516 19.1801 7.96763C19.6094 8.2001 20.0912 8.31849 20.5793 8.31147C20.8687 9.23452 21.0156 10.1963 21.0148 11.1637C21.0148 11.8197 20.9482 12.4605 20.8218 13.0794C20.2569 13.0231 19.6882 13.1367 19.1882 13.4055C18.6883 13.6743 18.28 14.0861 18.0154 14.5883C17.7509 15.0906 17.6422 15.6603 17.7033 16.2246C17.7644 16.7889 17.9925 17.3221 18.3584 17.7561C17.2211 18.9391 15.797 19.8075 14.2246 20.277C14.0399 19.7014 13.6773 19.1994 13.189 18.8432C12.7006 18.4871 12.1118 18.2951 11.5074 18.2951C10.9029 18.2951 10.3141 18.4871 9.82579 18.8432C9.33746 19.1994 8.97483 19.7014 8.79017 20.277Z"
            fill="white" stroke="white" stroke-linejoin="round" stroke-width="4" />
        <path
            d="M11.5073 14.4912C11.9443 14.4912 12.377 14.4052 12.7807 14.2379C13.1844 14.0707 13.5512 13.8256 13.8602 13.5166C14.1692 13.2076 14.4143 12.8408 14.5816 12.4371C14.7488 12.0333 14.8348 11.6006 14.8348 11.1636C14.8348 10.7267 14.7488 10.294 14.5816 9.89023C14.4143 9.48651 14.1692 9.11968 13.8602 8.81069C13.5512 8.50169 13.1844 8.25658 12.7807 8.08936C12.377 7.92213 11.9443 7.83606 11.5073 7.83606C10.6247 7.83606 9.77836 8.18664 9.15431 8.81069C8.53027 9.43473 8.17969 10.2811 8.17969 11.1636C8.17969 12.0462 8.53027 12.8926 9.15431 13.5166C9.77836 14.1406 10.6247 14.4912 11.5073 14.4912Z"
            fill="black" stroke="black" stroke-linejoin="round" stroke-width="4" />
    </mask>
    <g mask="url(#mask0_1827_228)">
        <path d="M0.0986328 -0.245117H22.9163V22.5726H0.0986328V-0.245117Z" fill="black" />
    </g>
</svg>
