<svg fill="none" height="21" viewBox="0 0 20 21" width="20" xmlns="http://www.w3.org/2000/svg">
    <path
        d="M18.9391 11.045C19.1509 9.23327 18.8072 7.39995 17.9535 5.78798C17.0999 4.176 15.7765 2.86147 14.1589 2.01857C12.5413 1.17566 10.7057 0.844181 8.89544 1.06805C7.08517 1.29191 5.38565 2.06055 4.02208 3.27212C2.65851 4.48369 1.69527 6.08099 1.26 7.85236C0.82473 9.62373 0.937972 11.4855 1.58472 13.1911C2.23147 14.8967 3.3812 16.3654 4.88156 17.4028C6.38191 18.4402 8.16207 18.9972 9.98613 19M1.59913 7H18.3991M1.59913 13H10.9991"
        stroke="black" stroke-linecap="round" stroke-linejoin="round" stroke-width="2" />
    <path
        d="M9.49869 1C7.81403 3.69961 6.9209 6.81787 6.9209 10C6.9209 13.1821 7.81403 16.3004 9.49869 19M10.4987 1C12.4173 4.0741 13.3034 7.68083 13.0277 11.294M13.9987 20L18.9987 15M18.9987 15V19.5M18.9987 15H14.4987"
        stroke="black" stroke-linecap="round" stroke-linejoin="round" stroke-width="2" />
</svg>
