<svg fill="none" height="14" viewBox="0 0 14 14" width="14" xmlns="http://www.w3.org/2000/svg">
    <path
        d="M6.36364 12.7273V8.90909C6.36364 8.57154 6.22955 8.24782 5.99086 8.00914C5.75218 7.77045 5.42846 7.63636 5.09091 7.63636H1.27273C0.935179 7.63636 0.611456 7.77045 0.372773 8.00914C0.13409 8.24782 0 8.57154 0 8.90909V12.7273C0 13.0648 0.13409 13.3885 0.372773 13.6272C0.611456 13.8659 0.935179 14 1.27273 14H5.09091C5.42846 14 5.75218 13.8659 5.99086 13.6272C6.22955 13.3885 6.36364 13.0648 6.36364 12.7273ZM5.09091 6.36364H1.27273C0.935179 6.36364 0.611456 6.22955 0.372773 5.99086C0.13409 5.75218 0 5.42846 0 5.09091V1.27273C0 0.935179 0.13409 0.611456 0.372773 0.372774C0.611456 0.134091 0.935179 2.38419e-07 1.27273 2.38419e-07H5.09091C5.42846 2.38419e-07 5.75218 0.134091 5.99086 0.372774C6.22955 0.611456 6.36364 0.935179 6.36364 1.27273V5.09091C6.36364 5.42846 6.22955 5.75218 5.99086 5.99086C5.75218 6.22955 5.42846 6.36364 5.09091 6.36364ZM12.7273 14H8.90909C8.57154 14 8.24782 13.8659 8.00914 13.6272C7.77045 13.3885 7.63636 13.0648 7.63636 12.7273V8.90909C7.63636 8.57154 7.77045 8.24782 8.00914 8.00914C8.24782 7.77045 8.57154 7.63636 8.90909 7.63636H12.7273C13.0648 7.63636 13.3885 7.77045 13.6272 8.00914C13.8659 8.24782 14 8.57154 14 8.90909V12.7273C14 13.0648 13.8659 13.3885 13.6272 13.6272C13.3885 13.8659 13.0648 14 12.7273 14ZM8.27273 2.54545C8.4415 2.54545 8.60336 2.6125 8.7227 2.73184C8.84205 2.85118 8.90909 3.01304 8.90909 3.18182V5.72727C8.90909 5.89605 8.84205 6.05791 8.7227 6.17725C8.60336 6.29659 8.4415 6.36364 8.27273 6.36364C8.10395 6.36364 7.94209 6.29659 7.82275 6.17725C7.70341 6.05791 7.63636 5.89605 7.63636 5.72727V3.18182C7.63636 3.01304 7.70341 2.85118 7.82275 2.73184C7.94209 2.6125 8.10395 2.54545 8.27273 2.54545ZM13.3636 5.09091H11.4545V5.72727C11.4545 5.89605 11.3875 6.05791 11.2682 6.17725C11.1488 6.29659 10.987 6.36364 10.8182 6.36364C10.6494 6.36364 10.4875 6.29659 10.3682 6.17725C10.2489 6.05791 10.1818 5.89605 10.1818 5.72727V1.27273H8.27273C8.10395 1.27273 7.94209 1.20568 7.82275 1.08634C7.70341 0.967 7.63636 0.805138 7.63636 0.636364C7.63636 0.46759 7.70341 0.305728 7.82275 0.186386C7.94209 0.067045 8.10395 2.38419e-07 8.27273 2.38419e-07H10.8182C10.987 2.38419e-07 11.1488 0.067045 11.2682 0.186386C11.3875 0.305728 11.4545 0.46759 11.4545 0.636364V3.81818H13.3636C13.5324 3.81818 13.6943 3.88523 13.8136 4.00457C13.933 4.12391 14 4.28577 14 4.45455C14 4.62332 13.933 4.78518 13.8136 4.90452C13.6943 5.02386 13.5324 5.09091 13.3636 5.09091ZM13.3636 2.54545C13.1949 2.54545 13.033 2.47841 12.9137 2.35907C12.7943 2.23973 12.7273 2.07787 12.7273 1.90909V0.636364C12.7273 0.46759 12.7943 0.305728 12.9137 0.186386C13.033 0.067045 13.1949 2.38419e-07 13.3636 2.38419e-07C13.5324 2.38419e-07 13.6943 0.067045 13.8136 0.186386C13.933 0.305728 14 0.46759 14 0.636364V1.90909C14 2.07787 13.933 2.23973 13.8136 2.35907C13.6943 2.47841 13.5324 2.54545 13.3636 2.54545Z"
        fill="white" />
</svg>
