<svg fill="none" height="22" viewBox="0 0 22 22" width="22" xmlns="http://www.w3.org/2000/svg">
    <path
        d="M11 0C4.93453 0 0 4.93453 0 11C0 17.0655 4.93453 22 11 22C17.0655 22 22 17.0655 22 11C22 4.93453 17.0655 0 11 0ZM15.5833 16.8798L12.481 13.7775C11.4441 14.491 10.178 14.7913 8.93113 14.6193C7.68426 14.4474 6.54665 13.8157 5.74154 12.8483C4.93643 11.8808 4.52193 10.6473 4.5794 9.38999C4.63686 8.13264 5.16214 6.94216 6.05215 6.05215C6.94216 5.16214 8.13264 4.63686 9.38999 4.5794C10.6473 4.52193 11.8808 4.93643 12.8483 5.74154C13.8157 6.54665 14.4474 7.68426 14.6193 8.93113C14.7913 10.178 14.491 11.4441 13.7775 12.481L16.8798 15.5833L15.5833 16.8798Z"
        fill="#1C6B1E" />
    <path
        d="M9.62533 12.8333C11.3972 12.8333 12.8337 11.3969 12.8337 9.62496C12.8337 7.85305 11.3972 6.41663 9.62533 6.41663C7.85341 6.41663 6.41699 7.85305 6.41699 9.62496C6.41699 11.3969 7.85341 12.8333 9.62533 12.8333Z"
        fill="#1C6B1E" />
</svg>
