<svg fill="none" height="23" viewBox="0 0 24 23" width="24" xmlns="http://www.w3.org/2000/svg">
    <path
        d="M12.7898 0.0239615C10.9391 -0.0900544 9.08569 0.203904 7.37582 0.88264C5.66312 1.56162 4.14117 2.60795 2.93042 3.93881C1.71545 5.27218 0.842557 6.85253 0.37972 8.55681C-0.0831179 10.2611 -0.123415 12.0433 0.261965 13.7647C0.64436 15.4856 1.44274 17.0997 2.59471 18.4808C3.74391 19.8596 5.21594 20.9677 6.89507 21.718C8.57136 22.4679 10.4094 22.8387 12.2636 22.8011C14.1178 22.7635 15.9373 22.3185 17.578 21.5015C17.6306 21.4761 17.6894 21.4643 17.7483 21.4674C17.8073 21.4704 17.8644 21.4881 17.9137 21.5187C19.4718 22.5046 21.3097 23.0209 23.1847 22.9994C23.229 22.9996 23.2729 22.9915 23.3139 22.9756C23.3549 22.9598 23.3921 22.9363 23.4234 22.9067C23.4547 22.8771 23.4795 22.842 23.4964 22.8032C23.5132 22.7645 23.5217 22.723 23.5214 22.6812V18.8114C23.5219 18.7358 23.4941 18.6625 23.4429 18.6044C23.3916 18.5463 23.3203 18.5073 23.2415 18.4942C22.8558 18.4361 22.479 18.3334 22.1198 18.1885C22.0528 18.1601 21.9976 18.1117 21.9626 18.0507C21.9276 17.9898 21.9147 17.9196 21.9261 17.8511C21.9319 17.8054 21.9493 17.7617 21.9768 17.7237C23.1483 16.0575 23.8371 14.1302 23.9745 12.1341C24.1119 10.1379 23.693 8.14263 22.7598 6.34713C21.8289 4.55435 20.415 3.02469 18.6602 1.9119C16.9096 0.801584 14.8795 0.147982 12.7756 0.0172531L12.7898 0.0239615ZM4.74083 11.4024C4.73975 10.0373 5.16487 8.70216 5.96299 7.56423C6.76023 6.43006 7.89476 5.5441 9.22376 5.0179C10.5521 4.49286 12.0161 4.35449 13.4282 4.62049C14.8404 4.8865 16.1363 5.54478 17.15 6.51101C18.1672 7.47997 18.8594 8.71088 19.1399 10.0497C19.4204 11.3885 19.2769 12.7758 18.7272 14.0379C18.1773 15.2985 17.2445 16.377 16.0465 17.1371C14.6488 18.0223 12.9689 18.4207 11.2945 18.264C9.62016 18.1074 8.05553 17.4054 6.8687 16.2785C5.50474 14.9823 4.7381 13.2293 4.73576 11.4014L4.74083 11.4024Z"
        fill="#798279" />
</svg>
