<svg fill="none" height="22" viewBox="0 0 22 22" width="22" xmlns="http://www.w3.org/2000/svg">
    <path clip-rule="evenodd" d="M4.77514 0.342973C8.91238 -0.114324 13.0875 -0.114324 17.2248 0.342973C19.5155 0.599286 21.3635 2.40015 21.6323 4.69496C22.1226 8.88407 22.1226 13.1159 21.6323 17.305C21.3635 19.5998 19.5155 21.4007 17.2248 21.657C13.0875 22.1143 8.91238 22.1143 4.77514 21.657C2.48446 21.4007 0.636401 19.5998 0.367617 17.305C-0.122539 13.1164 -0.122539 8.88497 0.367617 4.69629C0.503571 3.58143 1.01267 2.54506 1.81241 1.75516C2.61215 0.965259 3.65565 0.468118 4.7738 0.344308M11 4.33452C11.266 4.33452 11.5211 4.44 11.7091 4.62777C11.8972 4.81554 12.0029 5.0702 12.0029 5.33574V9.99878H16.6738C16.9398 9.99878 17.1949 10.1043 17.383 10.292C17.5711 10.4798 17.6768 10.7345 17.6768 11C17.6768 11.2655 17.5711 11.5202 17.383 11.708C17.1949 11.8957 16.9398 12.0012 16.6738 12.0012H12.0029V16.6643C12.0029 16.9298 11.8972 17.1845 11.7091 17.3722C11.5211 17.56 11.266 17.6655 11 17.6655C10.734 17.6655 10.4789 17.56 10.2908 17.3722C10.1027 17.1845 9.99704 16.9298 9.99704 16.6643V12.0012H5.32608C5.06009 12.0012 4.80499 11.8957 4.6169 11.708C4.42882 11.5202 4.32315 11.2655 4.32315 11C4.32315 10.7345 4.42882 10.4798 4.6169 10.292C4.80499 10.1043 5.06009 9.99878 5.32608 9.99878H9.99704V5.33574C9.99704 5.0702 10.1027 4.81554 10.2908 4.62777C10.4789 4.44 10.734 4.33452 11 4.33452Z"
        fill="#1C6B1E"
        fill-rule="evenodd" />
</svg>
