<svg fill="none" height="13" viewBox="0 0 13 13" width="13" xmlns="http://www.w3.org/2000/svg">
    <g clip-path="url(#clip0_1452_407)">
        <mask style="mask-type:luminance" height="13" id="mask0_1452_407" maskUnits="userSpaceOnUse" width="13"
            x="0" y="0">
            <path d="M0 0H13V13H0V0Z" fill="white" />
            <path clip-rule="evenodd" d="M2.5 5.5C2.5 5.36739 2.55268 5.24021 2.64645 5.14645C2.74021 5.05268 2.86739 5 3 5H8.154C8.28661 5 8.41378 5.05268 8.50755 5.14645C8.60132 5.24021 8.654 5.36739 8.654 5.5C8.654 5.63261 8.60132 5.75979 8.50755 5.85355C8.41378 5.94732 8.28661 6 8.154 6H3C2.86739 6 2.74021 5.94732 2.64645 5.85355C2.55268 5.75979 2.5 5.63261 2.5 5.5ZM2.5 3.5C2.5 3.36739 2.55268 3.24021 2.64645 3.14645C2.74021 3.05268 2.86739 3 3 3H10C10.1326 3 10.2598 3.05268 10.3536 3.14645C10.4473 3.24021 10.5 3.36739 10.5 3.5C10.5 3.63261 10.4473 3.75979 10.3536 3.85355C10.2598 3.94732 10.1326 4 10 4H3C2.86739 4 2.74021 3.94732 2.64645 3.85355C2.55268 3.75979 2.5 3.63261 2.5 3.5ZM2.5 7.5C2.5 7.36739 2.55268 7.24021 2.64645 7.14645C2.74021 7.05268 2.86739 7 3 7H10C10.1326 7 10.2598 7.05268 10.3536 7.14645C10.4473 7.24021 10.5 7.36739 10.5 7.5C10.5 7.63261 10.4473 7.75979 10.3536 7.85355C10.2598 7.94732 10.1326 8 10 8H3C2.86739 8 2.74021 7.94732 2.64645 7.85355C2.55268 7.75979 2.5 7.63261 2.5 7.5ZM2.5 9.5C2.5 9.36739 2.55268 9.24021 2.64645 9.14645C2.74021 9.05268 2.86739 9 3 9H8.154C8.28661 9 8.41378 9.05268 8.50755 9.14645C8.60132 9.24021 8.654 9.36739 8.654 9.5C8.654 9.63261 8.60132 9.75979 8.50755 9.85355C8.41378 9.94732 8.28661 10 8.154 10H3C2.86739 10 2.74021 9.94732 2.64645 9.85355C2.55268 9.75979 2.5 9.63261 2.5 9.5Z"
                fill="black"
                fill-rule="evenodd" />
        </mask>
        <g mask="url(#mask0_1452_407)">
            <path
                d="M6.5 13C10.0899 13 13 10.0899 13 6.5C13 2.91015 10.0899 0 6.5 0C2.91015 0 0 2.91015 0 6.5C0 10.0899 2.91015 13 6.5 13Z"
                fill="white" />
        </g>
    </g>
    <defs>
        <clipPath id="clip0_1452_407">
            <rect fill="white" height="13" width="13" />
        </clipPath>
    </defs>
</svg>
