<svg fill="none" height="8" viewBox="0 0 8 8" width="8" xmlns="http://www.w3.org/2000/svg">
    <path
        d="M0.0640625 0.596875C0.021875 0.534375 0 0.459375 0 0.384375C0 0.171875 0.171875 0 0.384375 0H2.09219C2.26719 0 2.43125 0.0921875 2.52031 0.242188L3.59063 2.025C2.8375 2.12031 2.16406 2.47188 1.6625 2.99219L0.0640625 0.596875ZM7.93437 0.596875L6.3375 2.99219C5.83594 2.47188 5.1625 2.12031 4.40938 2.025L5.47969 0.242188C5.57031 0.0921875 5.73281 0 5.90781 0H7.61562C7.82812 0 8 0.171875 8 0.384375C8 0.459375 7.97812 0.534375 7.93594 0.596875H7.93437ZM1.25 5.25C1.25 4.52065 1.53973 3.82118 2.05546 3.30546C2.57118 2.78973 3.27065 2.5 4 2.5C4.72935 2.5 5.42882 2.78973 5.94454 3.30546C6.46027 3.82118 6.75 4.52065 6.75 5.25C6.75 5.97935 6.46027 6.67882 5.94454 7.19454C5.42882 7.71027 4.72935 8 4 8C3.27065 8 2.57118 7.71027 2.05546 7.19454C1.53973 6.67882 1.25 5.97935 1.25 5.25ZM4.13125 3.76719C4.07812 3.65781 3.92344 3.65781 3.86875 3.76719L3.51875 4.47656C3.49687 4.52031 3.45625 4.55 3.40937 4.55625L2.625 4.67031C2.50469 4.6875 2.45781 4.83437 2.54375 4.92031L3.11094 5.47344C3.14531 5.50781 3.16094 5.55469 3.15313 5.60313L3.01875 6.38281C2.99844 6.50156 3.12344 6.59375 3.23125 6.5375L3.93125 6.16875C3.97344 6.14687 4.025 6.14687 4.06719 6.16875L4.76719 6.5375C4.875 6.59375 5 6.50312 4.97969 6.38281L4.84531 5.60313C4.8375 5.55625 4.85312 5.50781 4.8875 5.47344L5.45469 4.92031C5.54219 4.83594 5.49375 4.68906 5.37344 4.67031L4.59062 4.55625C4.54375 4.55 4.50156 4.51875 4.48125 4.47656L4.13125 3.76719Z"
        fill="#8500C4" />
</svg>
