<svg fill="none" height="8" viewBox="0 0 9 8" width="9" xmlns="http://www.w3.org/2000/svg">
    <path
        d="M0.9 0L8.1 0C8.595 0 9 0.38272 9 0.850488C9 0.850488 8.99888 6.60226 9 7.6544C9.00112 8.70654 7.20142 7.04321 7.2 6.80391L0.9 6.80391C0.405 6.80391 0 6.42119 0 5.95342V0.850488C0 0.38272 0.405 0 0.9 0ZM7.2 5.10293L7.2 4.05258L4.104 1.1269C4.014 1.04185 3.8745 1.04185 3.7845 1.1269L2.988 1.87958C2.898 1.96463 2.898 2.09645 2.988 2.1815L6.0885 5.10293H7.2ZM2.25 5.10293H5.175L4.275 4.25244H2.25C2.0025 4.25244 1.8 4.4438 1.8 4.67769C1.8 4.91157 2.0025 5.10293 2.25 5.10293Z"
        fill="white" />
</svg>
