<svg fill="none" height="22" viewBox="0 0 22 22" width="22" xmlns="http://www.w3.org/2000/svg">
    <path
        d="M2.75 0C1.232 0 0 1.12009 0 2.50021V4.8244C0.00058588 5.35913 0.158347 5.88399 0.456955 6.34467C0.755563 6.80535 1.18417 7.18511 1.6984 7.44462L8.0256 10.6429C6.70031 11.2512 5.63931 12.2479 5.014 13.4721C4.3887 14.6963 4.23562 16.0764 4.5795 17.3894C4.92338 18.7024 5.74413 19.8717 6.90915 20.7083C8.07417 21.5449 9.51541 22 11 22C12.4846 22 13.9258 21.5449 15.0908 20.7083C16.2559 19.8717 17.0766 18.7024 17.4205 17.3894C17.7644 16.0764 17.6113 14.6963 16.986 13.4721C16.3607 12.2479 15.2997 11.2512 13.9744 10.6429L20.3038 7.44662C20.818 7.18668 21.2463 6.8065 21.5445 6.34546C21.8428 5.88441 22 5.35927 22 4.8244V2.50021C22 1.12009 20.768 0 19.25 0H2.75ZM8.8 8.74473V2.00017H13.2V8.74473L11 9.85683L8.8 8.74473ZM15.4 16.0013C15.4 17.0623 14.9364 18.0798 14.1113 18.83C13.2861 19.5802 12.167 20.0017 11 20.0017C9.83305 20.0017 8.71389 19.5802 7.88873 18.83C7.06357 18.0798 6.6 17.0623 6.6 16.0013C6.6 14.9404 7.06357 13.9229 7.88873 13.1727C8.71389 12.4225 9.83305 12.001 11 12.001C12.167 12.001 13.2861 12.4225 14.1113 13.1727C14.9364 13.9229 15.4 14.9404 15.4 16.0013Z"
        fill="#798279" />
</svg>
