<svg fill="none" height="8" viewBox="0 0 8 8" width="8" xmlns="http://www.w3.org/2000/svg">
    <path
        d="M3.6 0C5.58828 0 7.2 1.64188 7.2 3.66737C7.2 5.69286 5.58828 7.33474 3.6 7.33474C1.61172 7.33474 0 5.69286 0 3.66737C0 1.64188 1.61172 0 3.6 0ZM3.6 1.46695C3.50452 1.46695 3.41295 1.50559 3.34544 1.57436C3.27793 1.64314 3.24 1.73642 3.24 1.83368V3.66737C3.24002 3.76463 3.27796 3.85789 3.34548 3.92665L4.42548 5.02686C4.49338 5.09367 4.58431 5.13063 4.6787 5.1298C4.77309 5.12896 4.86339 5.09039 4.93013 5.0224C4.99688 4.9544 5.03474 4.86242 5.03556 4.76626C5.03638 4.6701 5.0001 4.57746 4.93452 4.5083L3.96 3.51554V1.83368C3.96 1.73642 3.92207 1.64314 3.85456 1.57436C3.78705 1.50559 3.69548 1.46695 3.6 1.46695Z"
        fill="#005CE6" />
</svg>
