<svg fill="none" height="20" viewBox="0 0 20 20" width="20" xmlns="http://www.w3.org/2000/svg">
    <path
        d="M16.432 6.75L19.637 3.545C20 5.009 20 7.04 20 10C20 14.714 20 17.071 18.535 18.535C17.072 20 14.714 20 10 20C5.286 20 2.929 20 1.464 18.535C0 17.072 0 14.714 0 10C0 5.286 0 2.929 1.464 1.464C2.93 0 5.286 0 10 0C12.96 0 14.991 -8.9407e-08 16.455 0.363L13.25 3.568V3C13.25 2.40326 13.0129 1.83097 12.591 1.40901C12.169 0.987053 11.5967 0.75 11 0.75C10.4033 0.75 9.83097 0.987053 9.40901 1.40901C8.98705 1.83097 8.75 2.40326 8.75 3V9C8.75 9.59674 8.98705 10.169 9.40901 10.591C9.83097 11.0129 10.4033 11.25 11 11.25H17C17.5967 11.25 18.169 11.0129 18.591 10.591C19.0129 10.169 19.25 9.59674 19.25 9C19.25 8.40326 19.0129 7.83097 18.591 7.40901C18.169 6.98705 17.5967 6.75 17 6.75H16.432Z"
        fill="#1C6B1E" />
    <path
        d="M17 9.75003C17.1989 9.75003 17.3897 9.67101 17.5303 9.53036C17.671 9.38971 17.75 9.19894 17.75 9.00003C17.75 8.80112 17.671 8.61035 17.5303 8.4697C17.3897 8.32905 17.1989 8.25003 17 8.25003H12.81L19.53 1.53003C19.6625 1.38785 19.7346 1.19981 19.7312 1.00551C19.7277 0.811206 19.649 0.625821 19.5116 0.488408C19.3742 0.350995 19.1888 0.272283 18.9945 0.268855C18.8002 0.265426 18.6122 0.33755 18.47 0.47003L11.75 7.19003V3.00003C11.75 2.80112 11.671 2.61035 11.5303 2.4697C11.3897 2.32905 11.1989 2.25003 11 2.25003C10.8011 2.25003 10.6103 2.32905 10.4697 2.4697C10.329 2.61035 10.25 2.80112 10.25 3.00003V9.00003C10.25 9.41403 10.586 9.75003 11 9.75003H17Z"
        fill="#1C6B1E" />
</svg>
