<svg fill="none" height="9" viewBox="0 0 15 9" width="15" xmlns="http://www.w3.org/2000/svg">
    <path clip-rule="evenodd" d="M6.07877 0.438646C6.36002 0.157745 6.74127 -3.43323e-05 7.13877 -3.43323e-05C7.53627 -3.43323e-05 7.91752 0.157745 8.19877 0.438646L13.8568 6.09465C14.138 6.37604 14.296 6.75764 14.2959 7.1555C14.2958 7.55336 14.1377 7.93488 13.8563 8.21615C13.5749 8.49741 13.1933 8.65537 12.7954 8.65527C12.3976 8.65518 12.016 8.49704 11.7348 8.21565L7.13877 3.61965L2.54277 8.21565C2.26 8.48902 1.88116 8.64039 1.48787 8.63716C1.09457 8.63393 0.718271 8.47635 0.440027 8.19837C0.161783 7.92039 0.00385189 7.54424 0.000249863 7.15095C-0.00335217 6.75765 0.147664 6.37868 0.420771 6.09565L6.07777 0.437645L6.07877 0.438646Z"
        fill="#1C6B1E"
        fill-rule="evenodd" />
</svg>
