<svg fill="none" height="22" viewBox="0 0 20 22" width="20" xmlns="http://www.w3.org/2000/svg">
    <path
        d="M8.69565 4.39999H6.95652V0.733332C6.95652 0.53884 7.04814 0.352314 7.21121 0.214788C7.37429 0.0772615 7.59546 0 7.82609 0C8.05671 0 8.27789 0.0772615 8.44096 0.214788C8.60404 0.352314 8.69565 0.53884 8.69565 0.733332V4.39999ZM15.6522 10.5985V5.86665C15.6522 5.47767 15.4689 5.10462 15.1428 4.82957C14.8166 4.55451 14.3743 4.39999 13.913 4.39999H8.69565V9.96323L10.6891 8.28115C10.7699 8.21301 10.8658 8.15897 10.9714 8.12209C11.077 8.08522 11.1901 8.06624 11.3043 8.06624C11.4186 8.06624 11.5317 8.08522 11.6373 8.12209C11.7429 8.15897 11.8388 8.21301 11.9196 8.28115C12.0004 8.34928 12.0644 8.43017 12.1082 8.51919C12.1519 8.60821 12.1744 8.70363 12.1744 8.79998C12.1744 8.89634 12.1519 8.99175 12.1082 9.08077C12.0644 9.16979 12.0004 9.25068 11.9196 9.31881L8.4413 12.2521C8.36055 12.3203 8.26464 12.3744 8.15908 12.4113C8.05351 12.4482 7.94036 12.4672 7.82609 12.4672C7.71181 12.4672 7.59866 12.4482 7.49309 12.4113C7.38753 12.3744 7.29163 12.3203 7.21087 12.2521L3.73261 9.31881C3.56944 9.18121 3.47778 8.99458 3.47778 8.79998C3.47778 8.60538 3.56944 8.41875 3.73261 8.28115C3.89577 8.14355 4.11707 8.06624 4.34783 8.06624C4.57858 8.06624 4.79988 8.14355 4.96304 8.28115L6.95652 9.96323V4.39999H1.73913C1.27788 4.39999 0.83553 4.55451 0.509379 4.82957C0.183229 5.10462 0 5.47767 0 5.86665V17.6C0 17.7945 0.0916148 17.981 0.25469 18.1185C0.417765 18.256 0.638942 18.3333 0.869565 18.3333H8.98913C9.02391 18.3947 9.06196 18.4561 9.10326 18.5166L9.12935 18.5515L11.5489 21.6681C11.6752 21.8309 11.8729 21.9447 12.0987 21.9845C12.3245 22.0243 12.5597 21.9868 12.7527 21.8803C12.9457 21.7738 13.0807 21.6071 13.1278 21.4167C13.175 21.2263 13.1306 21.0279 13.0043 20.8651L10.5989 17.7677C10.4284 17.5138 10.3845 17.2131 10.4768 16.9319C10.5692 16.6506 10.7902 16.4119 11.0913 16.268C11.3924 16.1242 11.7489 16.0872 12.0824 16.1651C12.4159 16.243 12.699 16.4294 12.8696 16.6833C12.8772 16.6952 12.8859 16.7071 12.8946 16.7181L14.0554 18.2132C14.158 18.3452 14.3084 18.4457 14.4842 18.4999C14.6599 18.554 14.8517 18.5589 15.0311 18.5138C15.2104 18.4688 15.3677 18.3761 15.4796 18.2496C15.5915 18.1231 15.652 17.9695 15.6522 17.8117V12.4666C16.4718 13.1065 17.1264 13.8818 17.5752 14.7443C18.024 15.6068 18.2574 16.538 18.2609 17.4799V21.2666C18.2609 21.4611 18.3525 21.6476 18.5156 21.7852C18.6786 21.9227 18.8998 22 19.1304 22C19.3611 22 19.5822 21.9227 19.7453 21.7852C19.9084 21.6476 20 21.4611 20 21.2666V17.4762C19.9951 16.1177 19.5963 14.7809 18.8385 13.5821C18.0807 12.3834 16.9868 11.3591 15.6522 10.5985Z"
        fill="#1C6B1E" />
</svg>
